<?xml version="1.0" encoding="UTF-8" standalone="no"?>
<!DOCTYPE svg PUBLIC "-//W3C//DTD SVG 1.1//EN"
 "http://www.w3.org/Graphics/SVG/1.1/DTD/svg11.dtd">
<!-- Generated by graphviz version 2.49.1 (20210923.0004)
 -->
<!-- Title: models_diagram Pages: 1 -->
<svg width="858pt" height="1044pt"
 viewBox="0.00 0.00 857.64 1044.00" xmlns="http://www.w3.org/2000/svg" xmlns:xlink="http://www.w3.org/1999/xlink">
<g id="graph0" class="graph" transform="scale(1 1) rotate(0) translate(4 1040)">
<title>models_diagram</title>
<polygon fill="transparent" stroke="transparent" points="-4,4 -4,-1040 853.64,-1040 853.64,4 -4,4"/>
<!-- ApplicationRecord -->
<g id="node1" class="node">
<title>ApplicationRecord</title>
<ellipse fill="none" stroke="black" cx="240.85" cy="-975" rx="79.89" ry="18"/>
<text text-anchor="middle" x="240.85" y="-971.3" font-family="Times,serif" font-size="14.00">ApplicationRecord</text>
</g>
<!-- Course -->
<g id="node2" class="node">
<title>Course</title>
<path fill="none" stroke="black" d="M350.85,-914.5C350.85,-914.5 476.85,-914.5 476.85,-914.5 482.85,-914.5 488.85,-920.5 488.85,-926.5 488.85,-926.5 488.85,-1023.5 488.85,-1023.5 488.85,-1029.5 482.85,-1035.5 476.85,-1035.5 476.85,-1035.5 350.85,-1035.5 350.85,-1035.5 344.85,-1035.5 338.85,-1029.5 338.85,-1023.5 338.85,-1023.5 338.85,-926.5 338.85,-926.5 338.85,-920.5 344.85,-914.5 350.85,-914.5"/>
<text text-anchor="middle" x="413.85" y="-1020.3" font-family="Times,serif" font-size="14.00">Course</text>
<polyline fill="none" stroke="black" points="338.85,-1012.5 488.85,-1012.5 "/>
<text text-anchor="start" x="346.85" y="-997.3" font-family="Times,serif" font-size="14.00">id :INTEGER</text>
<text text-anchor="start" x="346.85" y="-982.3" font-family="Times,serif" font-size="14.00">created_at :datetime(6)</text>
<text text-anchor="start" x="346.85" y="-967.3" font-family="Times,serif" font-size="14.00">updated_at :datetime(6)</text>
<text text-anchor="start" x="346.85" y="-952.3" font-family="Times,serif" font-size="14.00">student_id :INTEGER</text>
<text text-anchor="start" x="346.85" y="-937.3" font-family="Times,serif" font-size="14.00">teacher_id :INTEGER</text>
<text text-anchor="start" x="346.85" y="-922.3" font-family="Times,serif" font-size="14.00">subject_id :INTEGER</text>
</g>
<!-- Role -->
<g id="node5" class="node">
<title>Role</title>
<path fill="none" stroke="black" d="M64.85,-482.5C64.85,-482.5 190.85,-482.5 190.85,-482.5 196.85,-482.5 202.85,-488.5 202.85,-494.5 202.85,-494.5 202.85,-591.5 202.85,-591.5 202.85,-597.5 196.85,-603.5 190.85,-603.5 190.85,-603.5 64.85,-603.5 64.85,-603.5 58.85,-603.5 52.85,-597.5 52.85,-591.5 52.85,-591.5 52.85,-494.5 52.85,-494.5 52.85,-488.5 58.85,-482.5 64.85,-482.5"/>
<text text-anchor="middle" x="127.85" y="-588.3" font-family="Times,serif" font-size="14.00">Role</text>
<polyline fill="none" stroke="black" points="52.85,-580.5 202.85,-580.5 "/>
<text text-anchor="start" x="60.85" y="-565.3" font-family="Times,serif" font-size="14.00">id :INTEGER</text>
<text text-anchor="start" x="60.85" y="-550.3" font-family="Times,serif" font-size="14.00">name :varchar</text>
<text text-anchor="start" x="60.85" y="-535.3" font-family="Times,serif" font-size="14.00">resource_type :varchar</text>
<text text-anchor="start" x="60.85" y="-520.3" font-family="Times,serif" font-size="14.00">resource_id :INTEGER</text>
<text text-anchor="start" x="60.85" y="-505.3" font-family="Times,serif" font-size="14.00">created_at :datetime(6)</text>
<text text-anchor="start" x="60.85" y="-490.3" font-family="Times,serif" font-size="14.00">updated_at :datetime(6)</text>
</g>
<!-- Course&#45;&gt;Role -->
<g id="edge4" class="edge">
<title>Course&#45;&gt;Role</title>
<path fill="none" stroke="#0c2ad6" d="M329.31,-914.31C264.8,-888.37 231.65,-917.82 180.85,-877 104.41,-815.59 105.31,-692.01 115.06,-613.88"/>
<polygon fill="#0c2ad6" stroke="#0c2ad6" points="329.46,-914.37 336.84,-922.48 334.04,-916.36 338.63,-918.35 338.63,-918.35 338.63,-918.35 334.04,-916.36 340.42,-914.22 329.46,-914.37 329.46,-914.37"/>
<polygon fill="#0c2ad6" stroke="#0c2ad6" points="115.1,-613.56 120.88,-604.24 115.76,-608.6 116.42,-603.65 116.42,-603.65 116.42,-603.65 115.76,-608.6 111.96,-603.05 115.1,-613.56 115.1,-613.56"/>
</g>
<!-- Subject -->
<g id="node6" class="node">
<title>Subject</title>
<path fill="none" stroke="black" d="M201.85,-785.5C201.85,-785.5 327.85,-785.5 327.85,-785.5 333.85,-785.5 339.85,-791.5 339.85,-797.5 339.85,-797.5 339.85,-864.5 339.85,-864.5 339.85,-870.5 333.85,-876.5 327.85,-876.5 327.85,-876.5 201.85,-876.5 201.85,-876.5 195.85,-876.5 189.85,-870.5 189.85,-864.5 189.85,-864.5 189.85,-797.5 189.85,-797.5 189.85,-791.5 195.85,-785.5 201.85,-785.5"/>
<text text-anchor="middle" x="264.85" y="-861.3" font-family="Times,serif" font-size="14.00">Subject</text>
<polyline fill="none" stroke="black" points="189.85,-853.5 339.85,-853.5 "/>
<text text-anchor="start" x="197.85" y="-838.3" font-family="Times,serif" font-size="14.00">id :INTEGER</text>
<text text-anchor="start" x="197.85" y="-823.3" font-family="Times,serif" font-size="14.00">name :varchar</text>
<text text-anchor="start" x="197.85" y="-808.3" font-family="Times,serif" font-size="14.00">created_at :datetime(6)</text>
<text text-anchor="start" x="197.85" y="-793.3" font-family="Times,serif" font-size="14.00">updated_at :datetime(6)</text>
</g>
<!-- Course&#45;&gt;Subject -->
<g id="edge3" class="edge">
<title>Course&#45;&gt;Subject</title>
<path fill="none" stroke="#893417" d="M343.62,-907.07C335.33,-899.17 326.96,-891.2 318.94,-883.55"/>
<polygon fill="#893417" stroke="#893417" points="343.85,-907.29 347.98,-917.45 347.47,-910.74 351.09,-914.19 351.09,-914.19 351.09,-914.19 347.47,-910.74 354.19,-910.93 343.85,-907.29 343.85,-907.29"/>
<polygon fill="#893417" stroke="#893417" points="318.92,-883.53 314.79,-873.38 315.3,-880.09 311.68,-876.64 311.68,-876.64 311.68,-876.64 315.3,-880.09 308.58,-879.89 318.92,-883.53 318.92,-883.53"/>
</g>
<!-- User -->
<g id="node8" class="node">
<title>User</title>
<path fill="none" stroke="black" d="M289.35,-203.5C289.35,-203.5 470.35,-203.5 470.35,-203.5 476.35,-203.5 482.35,-209.5 482.35,-215.5 482.35,-215.5 482.35,-432.5 482.35,-432.5 482.35,-438.5 476.35,-444.5 470.35,-444.5 470.35,-444.5 289.35,-444.5 289.35,-444.5 283.35,-444.5 277.35,-438.5 277.35,-432.5 277.35,-432.5 277.35,-215.5 277.35,-215.5 277.35,-209.5 283.35,-203.5 289.35,-203.5"/>
<text text-anchor="middle" x="379.85" y="-429.3" font-family="Times,serif" font-size="14.00">User</text>
<polyline fill="none" stroke="black" points="277.35,-421.5 482.35,-421.5 "/>
<text text-anchor="start" x="285.35" y="-406.3" font-family="Times,serif" font-size="14.00">postals :varchar</text>
<text text-anchor="start" x="285.35" y="-391.3" font-family="Times,serif" font-size="14.00">email :varchar</text>
<text text-anchor="start" x="285.35" y="-376.3" font-family="Times,serif" font-size="14.00">encrypted_password :varchar</text>
<text text-anchor="start" x="285.35" y="-361.3" font-family="Times,serif" font-size="14.00">reset_password_token :varchar</text>
<text text-anchor="start" x="285.35" y="-346.3" font-family="Times,serif" font-size="14.00">reset_password_sent_at :datetime</text>
<text text-anchor="start" x="285.35" y="-331.3" font-family="Times,serif" font-size="14.00">remember_created_at :datetime</text>
<text text-anchor="start" x="285.35" y="-316.3" font-family="Times,serif" font-size="14.00">created_at :datetime(6)</text>
<text text-anchor="start" x="285.35" y="-301.3" font-family="Times,serif" font-size="14.00">updated_at :datetime(6)</text>
<text text-anchor="start" x="285.35" y="-286.3" font-family="Times,serif" font-size="14.00">ruolo :varchar</text>
<text text-anchor="start" x="285.35" y="-271.3" font-family="Times,serif" font-size="14.00">nome :varchar</text>
<text text-anchor="start" x="285.35" y="-256.3" font-family="Times,serif" font-size="14.00">descrizione :TEXT</text>
<text text-anchor="start" x="285.35" y="-241.3" font-family="Times,serif" font-size="14.00">provider :varchar</text>
<text text-anchor="start" x="285.35" y="-226.3" font-family="Times,serif" font-size="14.00">uid :varchar</text>
<text text-anchor="start" x="285.35" y="-211.3" font-family="Times,serif" font-size="14.00">id :INTEGER</text>
</g>
<!-- Course&#45;&gt;User -->
<g id="edge1" class="edge">
<title>Course&#45;&gt;User</title>
<path fill="none" stroke="#c595de" d="M497.92,-937.53C537.79,-914.04 576.85,-879.03 576.85,-832 576.85,-832 576.85,-832 576.85,-542 576.85,-482.12 535.21,-431.43 490.22,-394.14"/>
<polygon fill="#c595de" stroke="#c595de" points="497.84,-937.58 486.92,-938.6 493.49,-940.05 489.14,-942.52 489.14,-942.52 489.14,-942.52 493.49,-940.05 491.37,-946.43 497.84,-937.58 497.84,-937.58"/>
<polygon fill="#c595de" stroke="#c595de" points="490.16,-394.09 485.21,-384.3 486.27,-390.95 482.39,-387.8 482.39,-387.8 482.39,-387.8 486.27,-390.95 479.56,-391.3 490.16,-394.09 490.16,-394.09"/>
<text text-anchor="middle" x="597.35" y="-690.8" font-family="Times,serif" font-size="14.00">teacher</text>
</g>
<!-- Course&#45;&gt;User -->
<g id="edge2" class="edge">
<title>Course&#45;&gt;User</title>
<path fill="none" stroke="#51b557" d="M390.33,-904.37C384.48,-881.58 379.85,-855.96 379.85,-832 379.85,-832 379.85,-832 379.85,-542 379.85,-513.78 379.85,-483.49 379.85,-454.76"/>
<polygon fill="#51b557" stroke="#51b557" points="390.4,-904.64 388.65,-915.46 391.69,-909.46 392.99,-914.29 392.99,-914.29 392.99,-914.29 391.69,-909.46 397.34,-913.13 390.4,-904.64 390.4,-904.64"/>
<polygon fill="#51b557" stroke="#51b557" points="379.85,-454.67 384.35,-444.67 379.85,-449.67 379.85,-444.67 379.85,-444.67 379.85,-444.67 379.85,-449.67 375.35,-444.67 379.85,-454.67 379.85,-454.67"/>
<text text-anchor="middle" x="400.35" y="-690.8" font-family="Times,serif" font-size="14.00">student</text>
</g>
<!-- Message -->
<g id="node3" class="node">
<title>Message</title>
<path fill="none" stroke="black" d="M92.35,-15.5C92.35,-15.5 229.35,-15.5 229.35,-15.5 235.35,-15.5 241.35,-21.5 241.35,-27.5 241.35,-27.5 241.35,-124.5 241.35,-124.5 241.35,-130.5 235.35,-136.5 229.35,-136.5 229.35,-136.5 92.35,-136.5 92.35,-136.5 86.35,-136.5 80.35,-130.5 80.35,-124.5 80.35,-124.5 80.35,-27.5 80.35,-27.5 80.35,-21.5 86.35,-15.5 92.35,-15.5"/>
<text text-anchor="middle" x="160.85" y="-121.3" font-family="Times,serif" font-size="14.00">Message</text>
<polyline fill="none" stroke="black" points="80.35,-113.5 241.35,-113.5 "/>
<text text-anchor="start" x="88.35" y="-98.3" font-family="Times,serif" font-size="14.00">id :INTEGER</text>
<text text-anchor="start" x="88.35" y="-83.3" font-family="Times,serif" font-size="14.00">testo :TEXT</text>
<text text-anchor="start" x="88.35" y="-68.3" font-family="Times,serif" font-size="14.00">created_at :datetime(6)</text>
<text text-anchor="start" x="88.35" y="-53.3" font-family="Times,serif" font-size="14.00">updated_at :datetime(6)</text>
<text text-anchor="start" x="88.35" y="-38.3" font-family="Times,serif" font-size="14.00">messanger_id :INTEGER</text>
<text text-anchor="start" x="88.35" y="-23.3" font-family="Times,serif" font-size="14.00">user_id :INTEGER</text>
</g>
<!-- Message&#45;&gt;Role -->
<g id="edge5" class="edge">
<title>Message&#45;&gt;Role</title>
<path fill="none" stroke="#52623b" d="M155.9,-146.73C149.67,-234.51 139.03,-384.38 132.8,-472.19"/>
<polygon fill="#52623b" stroke="#52623b" points="155.91,-146.58 161.1,-136.93 156.26,-141.6 156.62,-136.61 156.62,-136.61 156.62,-136.61 156.26,-141.6 152.13,-136.29 155.91,-146.58 155.91,-146.58"/>
<polygon fill="#52623b" stroke="#52623b" points="132.8,-472.19 127.6,-481.84 132.45,-477.17 132.09,-482.16 132.09,-482.16 132.09,-482.16 132.45,-477.17 136.58,-482.48 132.8,-472.19 132.8,-472.19"/>
</g>
<!-- Message&#45;&gt;User -->
<g id="edge6" class="edge">
<title>Message&#45;&gt;User</title>
<path fill="none" stroke="#a48518" d="M220.85,-144.53C232.77,-157.94 245.2,-171.92 256.85,-185 261.29,-189.99 265.83,-195.09 270.41,-200.23"/>
<polygon fill="#a48518" stroke="#a48518" points="220.54,-144.19 217.26,-133.72 217.22,-140.45 213.9,-136.71 213.9,-136.71 213.9,-136.71 217.22,-140.45 210.53,-139.7 220.54,-144.19 220.54,-144.19"/>
<polygon fill="#a48518" stroke="#a48518" points="270.5,-200.33 273.79,-210.8 273.82,-204.07 277.15,-207.8 277.15,-207.8 277.15,-207.8 273.82,-204.07 280.51,-204.81 270.5,-200.33 270.5,-200.33"/>
</g>
<!-- Message&#45;&gt;User -->
<g id="edge7" class="edge">
<title>Message&#45;&gt;User</title>
<path fill="none" stroke="#7e66cf" d="M231.91,-143.89C240.47,-152.52 248.97,-161.36 256.85,-170 264.3,-178.18 271.85,-186.75 279.34,-195.48"/>
<polygon fill="#7e66cf" stroke="#7e66cf" points="231.78,-143.76 227.89,-133.51 228.25,-140.23 224.71,-136.7 224.71,-136.7 224.71,-136.7 228.25,-140.23 221.53,-139.88 231.78,-143.76 231.78,-143.76"/>
<polygon fill="#7e66cf" stroke="#7e66cf" points="279.42,-195.57 282.48,-206.1 282.66,-199.37 285.91,-203.18 285.91,-203.18 285.91,-203.18 282.66,-199.37 289.33,-200.26 279.42,-195.57 279.42,-195.57"/>
<text text-anchor="middle" x="296.85" y="-173.8" font-family="Times,serif" font-size="14.00">messanger</text>
</g>
<!-- Review -->
<g id="node4" class="node">
<title>Review</title>
<path fill="none" stroke="black" d="M280.35,-0.5C280.35,-0.5 409.35,-0.5 409.35,-0.5 415.35,-0.5 421.35,-6.5 421.35,-12.5 421.35,-12.5 421.35,-139.5 421.35,-139.5 421.35,-145.5 415.35,-151.5 409.35,-151.5 409.35,-151.5 280.35,-151.5 280.35,-151.5 274.35,-151.5 268.35,-145.5 268.35,-139.5 268.35,-139.5 268.35,-12.5 268.35,-12.5 268.35,-6.5 274.35,-0.5 280.35,-0.5"/>
<text text-anchor="middle" x="344.85" y="-136.3" font-family="Times,serif" font-size="14.00">Review</text>
<polyline fill="none" stroke="black" points="268.35,-128.5 421.35,-128.5 "/>
<text text-anchor="start" x="276.35" y="-113.3" font-family="Times,serif" font-size="14.00">user_id :INTEGER</text>
<text text-anchor="start" x="276.35" y="-98.3" font-family="Times,serif" font-size="14.00">valutazione :INTEGER</text>
<text text-anchor="start" x="276.35" y="-83.3" font-family="Times,serif" font-size="14.00">testo :TEXT</text>
<text text-anchor="start" x="276.35" y="-68.3" font-family="Times,serif" font-size="14.00">created_at :datetime(6)</text>
<text text-anchor="start" x="276.35" y="-53.3" font-family="Times,serif" font-size="14.00">updated_at :datetime(6)</text>
<text text-anchor="start" x="276.35" y="-38.3" font-family="Times,serif" font-size="14.00">reviewer_id :INTEGER</text>
<text text-anchor="start" x="276.35" y="-23.3" font-family="Times,serif" font-size="14.00">reviewed_id :INTEGER</text>
<text text-anchor="start" x="276.35" y="-8.3" font-family="Times,serif" font-size="14.00">id :INTEGER</text>
</g>
<!-- Review&#45;&gt;Role -->
<g id="edge8" class="edge">
<title>Review&#45;&gt;Role</title>
<path fill="none" stroke="#51ed37" d="M266.32,-159.91C264.05,-163.25 261.88,-166.62 259.85,-170 243.84,-196.65 184.21,-372.42 150.83,-472.53"/>
<polygon fill="#51ed37" stroke="#51ed37" points="266.38,-159.82 275.84,-154.28 269.28,-155.75 272.18,-151.67 272.18,-151.67 272.18,-151.67 269.28,-155.75 268.51,-149.07 266.38,-159.82 266.38,-159.82"/>
<polygon fill="#51ed37" stroke="#51ed37" points="150.75,-472.78 143.32,-480.84 149.17,-477.52 147.59,-482.27 147.59,-482.27 147.59,-482.27 149.17,-477.52 151.86,-483.69 150.75,-472.78 150.75,-472.78"/>
</g>
<!-- Review&#45;&gt;User -->
<g id="edge9" class="edge">
<title>Review&#45;&gt;User</title>
<path fill="none" stroke="#0c8532" d="M411.3,-160.73C412.61,-163.79 413.8,-166.89 414.85,-170 417.37,-177.54 418.86,-185.35 419.52,-193.27"/>
<polygon fill="#0c8532" stroke="#0c8532" points="411.27,-160.68 411.05,-149.71 409.13,-156.16 406.99,-151.64 406.99,-151.64 406.99,-151.64 409.13,-156.16 402.92,-153.57 411.27,-160.68 411.27,-160.68"/>
<polygon fill="#0c8532" stroke="#0c8532" points="419.53,-193.36 415.44,-203.53 419.73,-198.35 419.94,-203.35 419.94,-203.35 419.94,-203.35 419.73,-198.35 424.43,-203.16 419.53,-193.36 419.53,-193.36"/>
</g>
<!-- Review&#45;&gt;User -->
<g id="edge10" class="edge">
<title>Review&#45;&gt;User</title>
<path fill="none" stroke="#1a85d0" d="M425.56,-160.36C427.14,-163.53 428.58,-166.74 429.85,-170 432.73,-177.43 434.35,-185.1 434.95,-192.86"/>
<polygon fill="#1a85d0" stroke="#1a85d0" points="425.55,-160.35 424.66,-149.42 423.14,-155.97 420.72,-151.59 420.72,-151.59 420.72,-151.59 423.14,-155.97 416.78,-153.76 425.55,-160.35 425.55,-160.35"/>
<polygon fill="#1a85d0" stroke="#1a85d0" points="434.96,-193.12 430.68,-203.22 435.07,-198.12 435.18,-203.12 435.18,-203.12 435.18,-203.12 435.07,-198.12 439.68,-203.02 434.96,-193.12 434.96,-193.12"/>
<text text-anchor="middle" x="457.35" y="-173.8" font-family="Times,serif" font-size="14.00">reviewer</text>
</g>
<!-- Role&#45;&gt;User -->
<g id="edge11" class="edge">
<title>Role&#45;&gt;User</title>
<path fill="none" stroke="#9fc97e" d="M211.74,-496.36C227.32,-486.49 243.02,-475.53 256.85,-464 261.64,-460 266.41,-455.82 271.13,-451.49"/>
<polygon fill="#9fc97e" stroke="#9fc97e" points="211.61,-496.44 200.74,-497.9 207.36,-499.08 203.11,-501.73 203.11,-501.73 203.11,-501.73 207.36,-499.08 205.49,-505.55 211.61,-496.44 211.61,-496.44"/>
<polygon fill="#9fc97e" stroke="#9fc97e" points="271.21,-451.42 281.59,-447.88 274.86,-448.01 278.51,-444.59 278.51,-444.59 278.51,-444.59 274.86,-448.01 275.44,-441.3 271.21,-451.42 271.21,-451.42"/>
</g>
<!-- Resource -->
<g id="node9" class="node">
<title>Resource</title>
<ellipse fill="none" stroke="black" cx="44.85" cy="-324" rx="44.69" ry="18"/>
<text text-anchor="middle" x="44.85" y="-320.3" font-family="Times,serif" font-size="14.00">Resource</text>
</g>
<!-- Role&#45;&gt;Resource -->
<g id="edge12" class="edge">
<title>Role&#45;&gt;Resource</title>
<path fill="none" stroke="#fb3aa3" d="M101.48,-473.06C85.64,-431.66 66.4,-381.35 54.91,-351.32"/>
<polygon fill="#fb3aa3" stroke="#fb3aa3" points="101.48,-473.08 100.85,-484.02 103.27,-477.75 105.06,-482.42 105.06,-482.42 105.06,-482.42 103.27,-477.75 109.26,-480.81 101.48,-473.08 101.48,-473.08"/>
<polygon fill="#fb3aa3" stroke="#fb3aa3" points="54.9,-351.3 55.54,-340.35 53.12,-346.63 51.33,-341.96 51.33,-341.96 51.33,-341.96 53.12,-346.63 47.13,-343.57 54.9,-351.3 54.9,-351.3"/>
</g>
<!-- Subject&#45;&gt;Role -->
<g id="edge15" class="edge">
<title>Subject&#45;&gt;Role</title>
<path fill="none" stroke="#f1231f" d="M181.56,-786.25C167.93,-775.51 155.46,-762.77 146.85,-748 123.41,-707.84 118.96,-655.5 120.21,-613.89"/>
<polygon fill="#f1231f" stroke="#f1231f" points="181.69,-786.35 187,-795.94 185.69,-789.34 189.7,-792.34 189.7,-792.34 189.7,-792.34 185.69,-789.34 192.39,-788.73 181.69,-786.35 181.69,-786.35"/>
<polygon fill="#f1231f" stroke="#f1231f" points="120.21,-613.82 125.12,-604.02 120.42,-608.83 120.63,-603.83 120.63,-603.83 120.63,-603.83 120.42,-608.83 116.13,-603.65 120.21,-613.82 120.21,-613.82"/>
</g>
<!-- Teach -->
<g id="node7" class="node">
<title>Teach</title>
<path fill="none" stroke="black" d="M167.85,-641.5C167.85,-641.5 293.85,-641.5 293.85,-641.5 299.85,-641.5 305.85,-647.5 305.85,-653.5 305.85,-653.5 305.85,-735.5 305.85,-735.5 305.85,-741.5 299.85,-747.5 293.85,-747.5 293.85,-747.5 167.85,-747.5 167.85,-747.5 161.85,-747.5 155.85,-741.5 155.85,-735.5 155.85,-735.5 155.85,-653.5 155.85,-653.5 155.85,-647.5 161.85,-641.5 167.85,-641.5"/>
<text text-anchor="middle" x="230.85" y="-732.3" font-family="Times,serif" font-size="14.00">Teach</text>
<polyline fill="none" stroke="black" points="155.85,-724.5 305.85,-724.5 "/>
<text text-anchor="start" x="163.85" y="-709.3" font-family="Times,serif" font-size="14.00">id :INTEGER</text>
<text text-anchor="start" x="163.85" y="-694.3" font-family="Times,serif" font-size="14.00">user_id :INTEGER</text>
<text text-anchor="start" x="163.85" y="-679.3" font-family="Times,serif" font-size="14.00">subject_id :INTEGER</text>
<text text-anchor="start" x="163.85" y="-664.3" font-family="Times,serif" font-size="14.00">created_at :datetime(6)</text>
<text text-anchor="start" x="163.85" y="-649.3" font-family="Times,serif" font-size="14.00">updated_at :datetime(6)</text>
</g>
<!-- Subject&#45;&gt;Teach -->
<g id="edge13" class="edge">
<title>Subject&#45;&gt;Teach</title>
<path fill="none" stroke="#c0dec6" d="M251.04,-775.4C249.55,-769.5 248.03,-763.48 246.52,-757.5"/>
<polygon fill="#c0dec6" stroke="#c0dec6" points="251.07,-775.52 249.16,-786.32 252.3,-780.37 253.52,-785.21 253.52,-785.21 253.52,-785.21 252.3,-780.37 257.89,-784.11 251.07,-775.52 251.07,-775.52"/>
<polygon fill="#c0dec6" stroke="#c0dec6" points="246.45,-757.24 248.36,-746.44 245.23,-752.39 244,-747.54 244,-747.54 244,-747.54 245.23,-752.39 239.64,-748.64 246.45,-757.24 246.45,-757.24"/>
</g>
<!-- Subject&#45;&gt;User -->
<g id="edge14" class="edge">
<title>Subject&#45;&gt;User</title>
<path fill="none" stroke="#37a48e" d="M301.52,-776.55C306.64,-767.33 311.34,-757.61 314.85,-748 334.02,-695.47 353.12,-558.48 365.6,-454.51"/>
<polygon fill="#37a48e" stroke="#37a48e" points="301.51,-776.56 292.61,-782.97 299.01,-780.89 296.5,-785.22 296.5,-785.22 296.5,-785.22 299.01,-780.89 300.4,-787.47 301.51,-776.56 301.51,-776.56"/>
<polygon fill="#37a48e" stroke="#37a48e" points="365.6,-454.48 371.26,-445.09 366.2,-449.52 366.79,-444.55 366.79,-444.55 366.79,-444.55 366.2,-449.52 362.32,-444.02 365.6,-454.48 365.6,-454.48"/>
</g>
<!-- Teach&#45;&gt;Role -->
<g id="edge17" class="edge">
<title>Teach&#45;&gt;Role</title>
<path fill="none" stroke="#30cff7" d="M189.06,-632.85C184.4,-626.09 179.63,-619.16 174.9,-612.3"/>
<polygon fill="#30cff7" stroke="#30cff7" points="189.15,-632.98 191.12,-643.77 191.98,-637.09 194.82,-641.21 194.82,-641.21 194.82,-641.21 191.98,-637.09 198.53,-638.66 189.15,-632.98 189.15,-632.98"/>
<polygon fill="#30cff7" stroke="#30cff7" points="174.63,-611.91 172.67,-601.12 171.8,-607.79 168.96,-603.68 168.96,-603.68 168.96,-603.68 171.8,-607.79 165.26,-606.23 174.63,-611.91 174.63,-611.91"/>
</g>
<!-- Teach&#45;&gt;User -->
<g id="edge16" class="edge">
<title>Teach&#45;&gt;User</title>
<path fill="none" stroke="#0aea84" d="M254.01,-631.43C271.58,-584.88 296.59,-519.69 319.85,-463 321.09,-459.98 322.35,-456.92 323.63,-453.84"/>
<polygon fill="#0aea84" stroke="#0aea84" points="253.9,-631.72 246.17,-639.49 252.14,-636.4 250.38,-641.07 250.38,-641.07 250.38,-641.07 252.14,-636.4 254.59,-642.66 253.9,-631.72 253.9,-631.72"/>
<polygon fill="#0aea84" stroke="#0aea84" points="323.65,-453.78 331.66,-446.28 325.58,-449.16 327.51,-444.55 327.51,-444.55 327.51,-444.55 325.58,-449.16 323.35,-442.82 323.65,-453.78 323.65,-453.78"/>
</g>
<!-- User&#45;&gt;Course -->
<g id="edge18" class="edge">
<title>User&#45;&gt;Course</title>
<path fill="none" stroke="#391395" d="M435.1,-454.48C443.18,-482.81 448.85,-513 448.85,-542 448.85,-832 448.85,-832 448.85,-832 448.85,-856 444.08,-881.63 438.06,-904.42"/>
<polygon fill="#391395" stroke="#391395" points="434.99,-454.13 436.46,-443.26 433.57,-449.34 432.14,-444.54 432.14,-444.54 432.14,-444.54 433.57,-449.34 427.83,-445.83 434.99,-454.13 434.99,-454.13"/>
<polygon fill="#391395" stroke="#391395" points="437.98,-904.7 430.98,-913.14 436.65,-909.52 435.31,-914.34 435.31,-914.34 435.31,-914.34 436.65,-909.52 439.65,-915.54 437.98,-904.7 437.98,-904.7"/>
</g>
<!-- User&#45;&gt;Course -->
<g id="edge21" class="edge">
<title>User&#45;&gt;Course</title>
<path fill="none" stroke="#2d6081" d="M473.35,-454.05C486.06,-481.77 494.85,-511.83 494.85,-542 494.85,-832 494.85,-832 494.85,-832 494.85,-858.06 484.43,-883.69 471.06,-905.85"/>
<polygon fill="#2d6081" stroke="#2d6081" points="473.21,-453.76 472.95,-442.8 471.05,-449.25 468.89,-444.74 468.89,-444.74 468.89,-444.74 471.05,-449.25 464.84,-446.68 473.21,-453.76 473.21,-453.76"/>
<polygon fill="#2d6081" stroke="#2d6081" points="470.95,-906.03 461.8,-912.08 468.28,-910.26 465.6,-914.48 465.6,-914.48 465.6,-914.48 468.28,-910.26 469.41,-916.89 470.95,-906.03 470.95,-906.03"/>
<text text-anchor="middle" x="517.85" y="-690.8" font-family="Times,serif" font-size="14.00">teachers</text>
</g>
<!-- User&#45;&gt;Message -->
<g id="edge24" class="edge">
<title>User&#45;&gt;Message</title>
<path fill="none" stroke="#393b42" d="M268.77,-265.81C236.99,-244.44 205.21,-217.36 183.85,-185 176.28,-173.54 171.15,-160.04 167.68,-146.54"/>
<polygon fill="#393b42" stroke="#393b42" points="268.92,-265.91 274.81,-275.16 273.1,-268.65 277.28,-271.4 277.28,-271.4 277.28,-271.4 273.1,-268.65 279.75,-267.63 268.92,-265.91 268.92,-265.91"/>
<polygon fill="#393b42" stroke="#393b42" points="167.67,-146.49 169.82,-135.74 166.55,-141.61 165.44,-136.74 165.44,-136.74 165.44,-136.74 166.55,-141.61 161.05,-137.74 167.67,-146.49 167.67,-146.49"/>
<text text-anchor="middle" x="211.35" y="-173.8" font-family="Times,serif" font-size="14.00">messaged</text>
</g>
<!-- User&#45;&gt;Review -->
<g id="edge23" class="edge">
<title>User&#45;&gt;Review</title>
<path fill="none" stroke="#bf56b1" d="M360.02,-193.24C359.62,-190.47 359.23,-187.72 358.85,-185 357.78,-177.43 356.7,-169.56 355.64,-161.67"/>
<polygon fill="#bf56b1" stroke="#bf56b1" points="360.05,-193.45 357.02,-203.99 360.76,-198.4 361.47,-203.35 361.47,-203.35 361.47,-203.35 360.76,-198.4 365.93,-202.7 360.05,-193.45 360.05,-193.45"/>
<polygon fill="#bf56b1" stroke="#bf56b1" points="355.63,-161.6 358.77,-151.09 354.97,-156.64 354.31,-151.68 354.31,-151.68 354.31,-151.68 354.97,-156.64 349.85,-152.28 355.63,-161.6 355.63,-161.6"/>
<text text-anchor="middle" x="384.85" y="-173.8" font-family="Times,serif" font-size="14.00">reviewed</text>
</g>
<!-- User&#45;&gt;User -->
<g id="edge22" class="edge">
<title>User&#45;&gt;User</title>
<path fill="none" stroke="#1640d4" d="M491.55,-340.65C497.09,-336.5 500.35,-330.95 500.35,-324 500.35,-317.05 497.09,-311.5 491.55,-307.35"/>
<polygon fill="#1640d4" stroke="#1640d4" points="491.49,-340.68 480.55,-341.48 487.09,-343.06 482.69,-345.44 482.69,-345.44 482.69,-345.44 487.09,-343.06 484.83,-349.4 491.49,-340.68 491.49,-340.68"/>
<polygon fill="#1640d4" stroke="#1640d4" points="491.49,-307.32 484.83,-298.6 487.09,-304.94 482.69,-302.56 482.69,-302.56 482.69,-302.56 487.09,-304.94 480.55,-306.52 491.49,-307.32 491.49,-307.32"/>
<text text-anchor="middle" x="523.35" y="-320.3" font-family="Times,serif" font-size="14.00">students</text>
</g>
<!-- ActiveStorage::Attachment -->
<g id="node10" class="node">
<title>ActiveStorage::Attachment</title>
<ellipse fill="none" stroke="black" cx="549.85" cy="-76" rx="110.48" ry="18"/>
<text text-anchor="middle" x="549.85" y="-72.3" font-family="Times,serif" font-size="14.00">ActiveStorage::Attachment</text>
</g>
<!-- User&#45;&gt;ActiveStorage::Attachment -->
<g id="edge19" class="edge">
<title>User&#45;&gt;ActiveStorage::Attachment</title>
<path fill="none" stroke="#980e7f" d="M479.04,-194.92C481.35,-191.59 483.62,-188.28 485.85,-185 504.23,-157.84 523.12,-125.28 535.56,-103.07"/>
<polygon fill="#980e7f" stroke="#980e7f" points="478.96,-195.02 469.53,-200.62 476.09,-199.11 473.21,-203.21 473.21,-203.21 473.21,-203.21 476.09,-199.11 476.89,-205.79 478.96,-195.02 478.96,-195.02"/>
<polygon fill="#980e7f" stroke="#980e7f" points="535.62,-102.96 544.42,-96.41 538.05,-98.59 540.48,-94.23 540.48,-94.23 540.48,-94.23 538.05,-98.59 536.55,-92.04 535.62,-102.96 535.62,-102.96"/>
<text text-anchor="middle" x="546.35" y="-173.8" font-family="Times,serif" font-size="14.00">avatar_attachment</text>
</g>
<!-- ActiveStorage::Blob -->
<g id="node11" class="node">
<title>ActiveStorage::Blob</title>
<ellipse fill="none" stroke="black" cx="763.85" cy="-76" rx="85.59" ry="18"/>
<text text-anchor="middle" x="763.85" y="-72.3" font-family="Times,serif" font-size="14.00">ActiveStorage::Blob</text>
</g>
<!-- User&#45;&gt;ActiveStorage::Blob -->
<g id="edge20" class="edge">
<title>User&#45;&gt;ActiveStorage::Blob</title>
<path fill="none" stroke="#3dca54" d="M491.56,-261.56C546.09,-230.4 612.04,-190.97 668.85,-152 692.54,-135.74 718.03,-115.45 736.64,-100.07"/>
<polygon fill="#3dca54" stroke="#3dca54" points="491.25,-261.74 480.33,-262.78 486.9,-264.21 482.56,-266.69 482.56,-266.69 482.56,-266.69 486.9,-264.21 484.78,-270.6 491.25,-261.74 491.25,-261.74"/>
<polygon fill="#3dca54" stroke="#3dca54" points="736.73,-100 747.3,-97.06 740.57,-96.8 744.42,-93.6 744.42,-93.6 744.42,-93.6 740.57,-96.8 741.54,-90.14 736.73,-100 736.73,-100"/>
<text text-anchor="middle" x="671.35" y="-173.8" font-family="Times,serif" font-size="14.00">avatar_blob</text>
</g>
</g>
</svg>
