<?xml version="1.0" encoding="UTF-8" standalone="no"?>
<!DOCTYPE svg PUBLIC "-//W3C//DTD SVG 1.1//EN"
 "http://www.w3.org/Graphics/SVG/1.1/DTD/svg11.dtd">
<!-- Generated by graphviz version 2.49.1 (20210923.0004)
 -->
<!-- Title: controllers_diagram Pages: 1 -->
<svg width="700pt" height="642pt"
 viewBox="0.00 0.00 700.00 642.00" xmlns="http://www.w3.org/2000/svg" xmlns:xlink="http://www.w3.org/1999/xlink">
<g id="graph0" class="graph" transform="scale(1 1) rotate(0) translate(4 638)">
<title>controllers_diagram</title>
<polygon fill="transparent" stroke="transparent" points="-4,4 -4,-638 696,-638 696,4 -4,4"/>
<!-- _diagram_info -->
<g id="node1" class="node">
<title>_diagram_info</title>
<text text-anchor="start" x="331" y="-114.6" font-family="Times,serif" font-size="13.00">Controllers diagram</text>
<text text-anchor="start" x="331" y="-100.6" font-family="Times,serif" font-size="13.00">Date: Apr 26 2022 &#45; 13:04</text>
<text text-anchor="start" x="331" y="-86.6" font-family="Times,serif" font-size="13.00">Migration version: 20220420001117</text>
<text text-anchor="start" x="331" y="-72.6" font-family="Times,serif" font-size="13.00">Generated by RailRoady 1.6.0</text>
<text text-anchor="start" x="331" y="-58.6" font-family="Times,serif" font-size="13.00">http://railroady.prestonlee.com</text>
</g>
<!-- ApplicationController -->
<g id="node2" class="node">
<title>ApplicationController</title>
<path fill="none" stroke="black" d="M505,-442.5C505,-442.5 680,-442.5 680,-442.5 686,-442.5 692,-448.5 692,-454.5 692,-454.5 692,-523.5 692,-523.5 692,-529.5 686,-535.5 680,-535.5 680,-535.5 505,-535.5 505,-535.5 499,-535.5 493,-529.5 493,-523.5 493,-523.5 493,-454.5 493,-454.5 493,-448.5 499,-442.5 505,-442.5"/>
<text text-anchor="middle" x="592.5" y="-520.3" font-family="Times,serif" font-size="14.00">ApplicationController</text>
<polyline fill="none" stroke="black" points="493,-512.5 692,-512.5 "/>
<polyline fill="none" stroke="black" points="493,-488.5 692,-488.5 "/>
<text text-anchor="start" x="501" y="-473.3" font-family="Times,serif" font-size="14.00">configure_permitted_parameters</text>
<polyline fill="none" stroke="black" points="493,-465.5 692,-465.5 "/>
<text text-anchor="start" x="501" y="-450.3" font-family="Times,serif" font-size="14.00">_layout</text>
</g>
<!-- CoursesController -->
<g id="node3" class="node">
<title>CoursesController</title>
<path fill="none" stroke="black" d="M182,-391.5C182,-391.5 277,-391.5 277,-391.5 283,-391.5 289,-397.5 289,-403.5 289,-403.5 289,-592.5 289,-592.5 289,-598.5 283,-604.5 277,-604.5 277,-604.5 182,-604.5 182,-604.5 176,-604.5 170,-598.5 170,-592.5 170,-592.5 170,-403.5 170,-403.5 170,-397.5 176,-391.5 182,-391.5"/>
<text text-anchor="middle" x="229.5" y="-589.3" font-family="Times,serif" font-size="14.00">CoursesController</text>
<polyline fill="none" stroke="black" points="170,-581.5 289,-581.5 "/>
<text text-anchor="start" x="178" y="-566.3" font-family="Times,serif" font-size="14.00">create</text>
<text text-anchor="start" x="178" y="-551.3" font-family="Times,serif" font-size="14.00">destroy</text>
<text text-anchor="start" x="178" y="-536.3" font-family="Times,serif" font-size="14.00">edit</text>
<text text-anchor="start" x="178" y="-521.3" font-family="Times,serif" font-size="14.00">index</text>
<text text-anchor="start" x="178" y="-506.3" font-family="Times,serif" font-size="14.00">new</text>
<text text-anchor="start" x="178" y="-491.3" font-family="Times,serif" font-size="14.00">show</text>
<text text-anchor="start" x="178" y="-476.3" font-family="Times,serif" font-size="14.00">update</text>
<polyline fill="none" stroke="black" points="170,-468.5 289,-468.5 "/>
<polyline fill="none" stroke="black" points="170,-444.5 289,-444.5 "/>
<text text-anchor="start" x="178" y="-429.3" font-family="Times,serif" font-size="14.00">_layout</text>
<text text-anchor="start" x="178" y="-414.3" font-family="Times,serif" font-size="14.00">course_params</text>
<text text-anchor="start" x="178" y="-399.3" font-family="Times,serif" font-size="14.00">set_course</text>
</g>
<!-- HomeController -->
<g id="node4" class="node">
<title>HomeController</title>
<path fill="none" stroke="black" d="M182,-0.5C182,-0.5 266,-0.5 266,-0.5 272,-0.5 278,-6.5 278,-12.5 278,-12.5 278,-81.5 278,-81.5 278,-87.5 272,-93.5 266,-93.5 266,-93.5 182,-93.5 182,-93.5 176,-93.5 170,-87.5 170,-81.5 170,-81.5 170,-12.5 170,-12.5 170,-6.5 176,-0.5 182,-0.5"/>
<text text-anchor="middle" x="224" y="-78.3" font-family="Times,serif" font-size="14.00">HomeController</text>
<polyline fill="none" stroke="black" points="170,-70.5 278,-70.5 "/>
<text text-anchor="start" x="178" y="-55.3" font-family="Times,serif" font-size="14.00">index</text>
<polyline fill="none" stroke="black" points="170,-47.5 278,-47.5 "/>
<polyline fill="none" stroke="black" points="170,-23.5 278,-23.5 "/>
<text text-anchor="start" x="178" y="-8.3" font-family="Times,serif" font-size="14.00">_layout</text>
</g>
<!-- MessagesController -->
<g id="node5" class="node">
<title>MessagesController</title>
<path fill="none" stroke="black" d="M12,-510.5C12,-510.5 116,-510.5 116,-510.5 122,-510.5 128,-516.5 128,-522.5 128,-522.5 128,-621.5 128,-621.5 128,-627.5 122,-633.5 116,-633.5 116,-633.5 12,-633.5 12,-633.5 6,-633.5 0,-627.5 0,-621.5 0,-621.5 0,-522.5 0,-522.5 0,-516.5 6,-510.5 12,-510.5"/>
<text text-anchor="middle" x="64" y="-618.3" font-family="Times,serif" font-size="14.00">MessagesController</text>
<polyline fill="none" stroke="black" points="0,-610.5 128,-610.5 "/>
<text text-anchor="start" x="8" y="-595.3" font-family="Times,serif" font-size="14.00">create</text>
<text text-anchor="start" x="8" y="-580.3" font-family="Times,serif" font-size="14.00">destroy</text>
<text text-anchor="start" x="8" y="-565.3" font-family="Times,serif" font-size="14.00">message_params</text>
<polyline fill="none" stroke="black" points="0,-557.5 128,-557.5 "/>
<polyline fill="none" stroke="black" points="0,-533.5 128,-533.5 "/>
<text text-anchor="start" x="8" y="-518.3" font-family="Times,serif" font-size="14.00">_layout</text>
</g>
<!-- ReviewsController -->
<g id="node6" class="node">
<title>ReviewsController</title>
<path fill="none" stroke="black" d="M29,-34.5C29,-34.5 127,-34.5 127,-34.5 133,-34.5 139,-40.5 139,-46.5 139,-46.5 139,-205.5 139,-205.5 139,-211.5 133,-217.5 127,-217.5 127,-217.5 29,-217.5 29,-217.5 23,-217.5 17,-211.5 17,-205.5 17,-205.5 17,-46.5 17,-46.5 17,-40.5 23,-34.5 29,-34.5"/>
<text text-anchor="middle" x="78" y="-202.3" font-family="Times,serif" font-size="14.00">ReviewsController</text>
<polyline fill="none" stroke="black" points="17,-194.5 139,-194.5 "/>
<text text-anchor="start" x="25" y="-179.3" font-family="Times,serif" font-size="14.00">create</text>
<text text-anchor="start" x="25" y="-164.3" font-family="Times,serif" font-size="14.00">destroy</text>
<text text-anchor="start" x="25" y="-149.3" font-family="Times,serif" font-size="14.00">edit</text>
<text text-anchor="start" x="25" y="-134.3" font-family="Times,serif" font-size="14.00">new</text>
<text text-anchor="start" x="25" y="-119.3" font-family="Times,serif" font-size="14.00">update</text>
<polyline fill="none" stroke="black" points="17,-111.5 139,-111.5 "/>
<polyline fill="none" stroke="black" points="17,-87.5 139,-87.5 "/>
<text text-anchor="start" x="25" y="-72.3" font-family="Times,serif" font-size="14.00">_layout</text>
<text text-anchor="start" x="25" y="-57.3" font-family="Times,serif" font-size="14.00">review_params</text>
<text text-anchor="start" x="25" y="-42.3" font-family="Times,serif" font-size="14.00">set_review</text>
</g>
<!-- SubjectsController -->
<g id="node7" class="node">
<title>SubjectsController</title>
<path fill="none" stroke="black" d="M182,-136.5C182,-136.5 279,-136.5 279,-136.5 285,-136.5 291,-142.5 291,-148.5 291,-148.5 291,-352.5 291,-352.5 291,-358.5 285,-364.5 279,-364.5 279,-364.5 182,-364.5 182,-364.5 176,-364.5 170,-358.5 170,-352.5 170,-352.5 170,-148.5 170,-148.5 170,-142.5 176,-136.5 182,-136.5"/>
<text text-anchor="middle" x="230.5" y="-349.3" font-family="Times,serif" font-size="14.00">SubjectsController</text>
<polyline fill="none" stroke="black" points="170,-341.5 291,-341.5 "/>
<text text-anchor="start" x="178" y="-326.3" font-family="Times,serif" font-size="14.00">update</text>
<text text-anchor="start" x="178" y="-311.3" font-family="Times,serif" font-size="14.00">create</text>
<text text-anchor="start" x="178" y="-296.3" font-family="Times,serif" font-size="14.00">destroy</text>
<text text-anchor="start" x="178" y="-281.3" font-family="Times,serif" font-size="14.00">edit</text>
<text text-anchor="start" x="178" y="-266.3" font-family="Times,serif" font-size="14.00">index</text>
<text text-anchor="start" x="178" y="-251.3" font-family="Times,serif" font-size="14.00">new</text>
<text text-anchor="start" x="178" y="-236.3" font-family="Times,serif" font-size="14.00">show</text>
<text text-anchor="start" x="178" y="-221.3" font-family="Times,serif" font-size="14.00">aggiungi_materia</text>
<polyline fill="none" stroke="black" points="170,-213.5 291,-213.5 "/>
<polyline fill="none" stroke="black" points="170,-189.5 291,-189.5 "/>
<text text-anchor="start" x="178" y="-174.3" font-family="Times,serif" font-size="14.00">_layout</text>
<text text-anchor="start" x="178" y="-159.3" font-family="Times,serif" font-size="14.00">set_subject</text>
<text text-anchor="start" x="178" y="-144.3" font-family="Times,serif" font-size="14.00">subject_params</text>
</g>
<!-- TeachesController -->
<g id="node8" class="node">
<title>TeachesController</title>
<path fill="none" stroke="black" d="M29,-255.5C29,-255.5 124,-255.5 124,-255.5 130,-255.5 136,-261.5 136,-267.5 136,-267.5 136,-456.5 136,-456.5 136,-462.5 130,-468.5 124,-468.5 124,-468.5 29,-468.5 29,-468.5 23,-468.5 17,-462.5 17,-456.5 17,-456.5 17,-267.5 17,-267.5 17,-261.5 23,-255.5 29,-255.5"/>
<text text-anchor="middle" x="76.5" y="-453.3" font-family="Times,serif" font-size="14.00">TeachesController</text>
<polyline fill="none" stroke="black" points="17,-445.5 136,-445.5 "/>
<text text-anchor="start" x="25" y="-430.3" font-family="Times,serif" font-size="14.00">create</text>
<text text-anchor="start" x="25" y="-415.3" font-family="Times,serif" font-size="14.00">destroy</text>
<text text-anchor="start" x="25" y="-400.3" font-family="Times,serif" font-size="14.00">edit</text>
<text text-anchor="start" x="25" y="-385.3" font-family="Times,serif" font-size="14.00">index</text>
<text text-anchor="start" x="25" y="-370.3" font-family="Times,serif" font-size="14.00">new</text>
<text text-anchor="start" x="25" y="-355.3" font-family="Times,serif" font-size="14.00">show</text>
<text text-anchor="start" x="25" y="-340.3" font-family="Times,serif" font-size="14.00">update</text>
<polyline fill="none" stroke="black" points="17,-332.5 136,-332.5 "/>
<polyline fill="none" stroke="black" points="17,-308.5 136,-308.5 "/>
<text text-anchor="start" x="25" y="-293.3" font-family="Times,serif" font-size="14.00">_layout</text>
<text text-anchor="start" x="25" y="-278.3" font-family="Times,serif" font-size="14.00">set_teach</text>
<text text-anchor="start" x="25" y="-263.3" font-family="Times,serif" font-size="14.00">teach_params</text>
</g>
<!-- Users::OmniauthCallbacksController -->
<g id="node9" class="node">
<title>Users::OmniauthCallbacksController</title>
<path fill="none" stroke="black" d="M335,-170.5C335,-170.5 536,-170.5 536,-170.5 542,-170.5 548,-176.5 548,-182.5 548,-182.5 548,-266.5 548,-266.5 548,-272.5 542,-278.5 536,-278.5 536,-278.5 335,-278.5 335,-278.5 329,-278.5 323,-272.5 323,-266.5 323,-266.5 323,-182.5 323,-182.5 323,-176.5 329,-170.5 335,-170.5"/>
<text text-anchor="middle" x="435.5" y="-263.3" font-family="Times,serif" font-size="14.00">Users::OmniauthCallbacksController</text>
<polyline fill="none" stroke="black" points="323,-255.5 548,-255.5 "/>
<text text-anchor="start" x="331" y="-240.3" font-family="Times,serif" font-size="14.00">failure</text>
<text text-anchor="start" x="331" y="-225.3" font-family="Times,serif" font-size="14.00">google_oauth2</text>
<polyline fill="none" stroke="black" points="323,-217.5 548,-217.5 "/>
<polyline fill="none" stroke="black" points="323,-193.5 548,-193.5 "/>
<text text-anchor="start" x="331" y="-178.3" font-family="Times,serif" font-size="14.00">_layout</text>
</g>
<!-- Users::RegistrationsController -->
<g id="node10" class="node">
<title>Users::RegistrationsController</title>
<path fill="none" stroke="black" d="M505,-306.5C505,-306.5 669,-306.5 669,-306.5 675,-306.5 681,-312.5 681,-318.5 681,-318.5 681,-402.5 681,-402.5 681,-408.5 675,-414.5 669,-414.5 669,-414.5 505,-414.5 505,-414.5 499,-414.5 493,-408.5 493,-402.5 493,-402.5 493,-318.5 493,-318.5 493,-312.5 499,-306.5 505,-306.5"/>
<text text-anchor="middle" x="587" y="-399.3" font-family="Times,serif" font-size="14.00">Users::RegistrationsController</text>
<polyline fill="none" stroke="black" points="493,-391.5 681,-391.5 "/>
<text text-anchor="start" x="501" y="-376.3" font-family="Times,serif" font-size="14.00">after_update_path_for</text>
<text text-anchor="start" x="501" y="-361.3" font-family="Times,serif" font-size="14.00">update_resource</text>
<polyline fill="none" stroke="black" points="493,-353.5 681,-353.5 "/>
<polyline fill="none" stroke="black" points="493,-329.5 681,-329.5 "/>
<text text-anchor="start" x="501" y="-314.3" font-family="Times,serif" font-size="14.00">_layout</text>
</g>
<!-- UsersController -->
<g id="node11" class="node">
<title>UsersController</title>
<path fill="none" stroke="black" d="M335,-306.5C335,-306.5 440,-306.5 440,-306.5 446,-306.5 452,-312.5 452,-318.5 452,-318.5 452,-492.5 452,-492.5 452,-498.5 446,-504.5 440,-504.5 440,-504.5 335,-504.5 335,-504.5 329,-504.5 323,-498.5 323,-492.5 323,-492.5 323,-318.5 323,-318.5 323,-312.5 329,-306.5 335,-306.5"/>
<text text-anchor="middle" x="387.5" y="-489.3" font-family="Times,serif" font-size="14.00">UsersController</text>
<polyline fill="none" stroke="black" points="323,-481.5 452,-481.5 "/>
<text text-anchor="start" x="331" y="-466.3" font-family="Times,serif" font-size="14.00">show</text>
<text text-anchor="start" x="331" y="-451.3" font-family="Times,serif" font-size="14.00">edit</text>
<text text-anchor="start" x="331" y="-436.3" font-family="Times,serif" font-size="14.00">fa_corso</text>
<text text-anchor="start" x="331" y="-421.3" font-family="Times,serif" font-size="14.00">index</text>
<text text-anchor="start" x="331" y="-406.3" font-family="Times,serif" font-size="14.00">insegna_materia</text>
<text text-anchor="start" x="331" y="-391.3" font-family="Times,serif" font-size="14.00">nonfa_corso</text>
<text text-anchor="start" x="331" y="-376.3" font-family="Times,serif" font-size="14.00">noninsegna_materia</text>
<text text-anchor="start" x="331" y="-361.3" font-family="Times,serif" font-size="14.00">destroy</text>
<polyline fill="none" stroke="black" points="323,-353.5 452,-353.5 "/>
<polyline fill="none" stroke="black" points="323,-329.5 452,-329.5 "/>
<text text-anchor="start" x="331" y="-314.3" font-family="Times,serif" font-size="14.00">_layout</text>
</g>
</g>
</svg>
