<?xml version="1.0" encoding="UTF-8" standalone="no"?>
<!DOCTYPE svg PUBLIC "-//W3C//DTD SVG 1.1//EN"
 "http://www.w3.org/Graphics/SVG/1.1/DTD/svg11.dtd">
<!-- Generated by graphviz version 2.49.1 (20210923.0004)
 -->
<!-- Title: controllers_diagram Pages: 1 -->
<svg width="693pt" height="636pt"
 viewBox="0.00 0.00 693.00 636.00" xmlns="http://www.w3.org/2000/svg" xmlns:xlink="http://www.w3.org/1999/xlink">
<g id="graph0" class="graph" transform="scale(1 1) rotate(0) translate(4 632)">
<title>controllers_diagram</title>
<polygon fill="transparent" stroke="transparent" points="-4,4 -4,-632 689,-632 689,4 -4,4"/>
<!-- _diagram_info -->
<g id="node1" class="node">
<title>_diagram_info</title>
<text text-anchor="start" x="332" y="-117.6" font-family="Times,serif" font-size="13.00">Controllers diagram</text>
<text text-anchor="start" x="332" y="-103.6" font-family="Times,serif" font-size="13.00">Date: Apr 19 2022 &#45; 14:46</text>
<text text-anchor="start" x="332" y="-89.6" font-family="Times,serif" font-size="13.00">Migration version: 20220410181456</text>
<text text-anchor="start" x="332" y="-75.6" font-family="Times,serif" font-size="13.00">Generated by RailRoady 1.6.0</text>
<text text-anchor="start" x="332" y="-61.6" font-family="Times,serif" font-size="13.00">http://railroady.prestonlee.com</text>
</g>
<!-- ApplicationController -->
<g id="node2" class="node">
<title>ApplicationController</title>
<path fill="none" stroke="black" d="M498,-468.5C498,-468.5 673,-468.5 673,-468.5 679,-468.5 685,-474.5 685,-480.5 685,-480.5 685,-549.5 685,-549.5 685,-555.5 679,-561.5 673,-561.5 673,-561.5 498,-561.5 498,-561.5 492,-561.5 486,-555.5 486,-549.5 486,-549.5 486,-480.5 486,-480.5 486,-474.5 492,-468.5 498,-468.5"/>
<text text-anchor="middle" x="585.5" y="-546.3" font-family="Times,serif" font-size="14.00">ApplicationController</text>
<polyline fill="none" stroke="black" points="486,-538.5 685,-538.5 "/>
<polyline fill="none" stroke="black" points="486,-514.5 685,-514.5 "/>
<text text-anchor="start" x="494" y="-499.3" font-family="Times,serif" font-size="14.00">configure_permitted_parameters</text>
<polyline fill="none" stroke="black" points="486,-491.5 685,-491.5 "/>
<text text-anchor="start" x="494" y="-476.3" font-family="Times,serif" font-size="14.00">_layout</text>
</g>
<!-- CoursesController -->
<g id="node3" class="node">
<title>CoursesController</title>
<path fill="none" stroke="black" d="M174,-396.5C174,-396.5 269,-396.5 269,-396.5 275,-396.5 281,-402.5 281,-408.5 281,-408.5 281,-597.5 281,-597.5 281,-603.5 275,-609.5 269,-609.5 269,-609.5 174,-609.5 174,-609.5 168,-609.5 162,-603.5 162,-597.5 162,-597.5 162,-408.5 162,-408.5 162,-402.5 168,-396.5 174,-396.5"/>
<text text-anchor="middle" x="221.5" y="-594.3" font-family="Times,serif" font-size="14.00">CoursesController</text>
<polyline fill="none" stroke="black" points="162,-586.5 281,-586.5 "/>
<text text-anchor="start" x="170" y="-571.3" font-family="Times,serif" font-size="14.00">create</text>
<text text-anchor="start" x="170" y="-556.3" font-family="Times,serif" font-size="14.00">destroy</text>
<text text-anchor="start" x="170" y="-541.3" font-family="Times,serif" font-size="14.00">edit</text>
<text text-anchor="start" x="170" y="-526.3" font-family="Times,serif" font-size="14.00">index</text>
<text text-anchor="start" x="170" y="-511.3" font-family="Times,serif" font-size="14.00">new</text>
<text text-anchor="start" x="170" y="-496.3" font-family="Times,serif" font-size="14.00">show</text>
<text text-anchor="start" x="170" y="-481.3" font-family="Times,serif" font-size="14.00">update</text>
<polyline fill="none" stroke="black" points="162,-473.5 281,-473.5 "/>
<polyline fill="none" stroke="black" points="162,-449.5 281,-449.5 "/>
<text text-anchor="start" x="170" y="-434.3" font-family="Times,serif" font-size="14.00">_layout</text>
<text text-anchor="start" x="170" y="-419.3" font-family="Times,serif" font-size="14.00">course_params</text>
<text text-anchor="start" x="170" y="-404.3" font-family="Times,serif" font-size="14.00">set_course</text>
</g>
<!-- HomeController -->
<g id="node4" class="node">
<title>HomeController</title>
<path fill="none" stroke="black" d="M174,-0.5C174,-0.5 258,-0.5 258,-0.5 264,-0.5 270,-6.5 270,-12.5 270,-12.5 270,-81.5 270,-81.5 270,-87.5 264,-93.5 258,-93.5 258,-93.5 174,-93.5 174,-93.5 168,-93.5 162,-87.5 162,-81.5 162,-81.5 162,-12.5 162,-12.5 162,-6.5 168,-0.5 174,-0.5"/>
<text text-anchor="middle" x="216" y="-78.3" font-family="Times,serif" font-size="14.00">HomeController</text>
<polyline fill="none" stroke="black" points="162,-70.5 270,-70.5 "/>
<text text-anchor="start" x="170" y="-55.3" font-family="Times,serif" font-size="14.00">index</text>
<polyline fill="none" stroke="black" points="162,-47.5 270,-47.5 "/>
<polyline fill="none" stroke="black" points="162,-23.5 270,-23.5 "/>
<text text-anchor="start" x="170" y="-8.3" font-family="Times,serif" font-size="14.00">_layout</text>
</g>
<!-- MessagesController -->
<g id="node5" class="node">
<title>MessagesController</title>
<path fill="none" stroke="black" d="M12,-504.5C12,-504.5 116,-504.5 116,-504.5 122,-504.5 128,-510.5 128,-516.5 128,-516.5 128,-615.5 128,-615.5 128,-621.5 122,-627.5 116,-627.5 116,-627.5 12,-627.5 12,-627.5 6,-627.5 0,-621.5 0,-615.5 0,-615.5 0,-516.5 0,-516.5 0,-510.5 6,-504.5 12,-504.5"/>
<text text-anchor="middle" x="64" y="-612.3" font-family="Times,serif" font-size="14.00">MessagesController</text>
<polyline fill="none" stroke="black" points="0,-604.5 128,-604.5 "/>
<text text-anchor="start" x="8" y="-589.3" font-family="Times,serif" font-size="14.00">create</text>
<text text-anchor="start" x="8" y="-574.3" font-family="Times,serif" font-size="14.00">destroy</text>
<text text-anchor="start" x="8" y="-559.3" font-family="Times,serif" font-size="14.00">message_params</text>
<polyline fill="none" stroke="black" points="0,-551.5 128,-551.5 "/>
<polyline fill="none" stroke="black" points="0,-527.5 128,-527.5 "/>
<text text-anchor="start" x="8" y="-512.3" font-family="Times,serif" font-size="14.00">_layout</text>
</g>
<!-- ReviewsController -->
<g id="node6" class="node">
<title>ReviewsController</title>
<path fill="none" stroke="black" d="M12,-36.5C12,-36.5 110,-36.5 110,-36.5 116,-36.5 122,-42.5 122,-48.5 122,-48.5 122,-207.5 122,-207.5 122,-213.5 116,-219.5 110,-219.5 110,-219.5 12,-219.5 12,-219.5 6,-219.5 0,-213.5 0,-207.5 0,-207.5 0,-48.5 0,-48.5 0,-42.5 6,-36.5 12,-36.5"/>
<text text-anchor="middle" x="61" y="-204.3" font-family="Times,serif" font-size="14.00">ReviewsController</text>
<polyline fill="none" stroke="black" points="0,-196.5 122,-196.5 "/>
<text text-anchor="start" x="8" y="-181.3" font-family="Times,serif" font-size="14.00">create</text>
<text text-anchor="start" x="8" y="-166.3" font-family="Times,serif" font-size="14.00">destroy</text>
<text text-anchor="start" x="8" y="-151.3" font-family="Times,serif" font-size="14.00">edit</text>
<text text-anchor="start" x="8" y="-136.3" font-family="Times,serif" font-size="14.00">new</text>
<text text-anchor="start" x="8" y="-121.3" font-family="Times,serif" font-size="14.00">update</text>
<polyline fill="none" stroke="black" points="0,-113.5 122,-113.5 "/>
<polyline fill="none" stroke="black" points="0,-89.5 122,-89.5 "/>
<text text-anchor="start" x="8" y="-74.3" font-family="Times,serif" font-size="14.00">_layout</text>
<text text-anchor="start" x="8" y="-59.3" font-family="Times,serif" font-size="14.00">review_params</text>
<text text-anchor="start" x="8" y="-44.3" font-family="Times,serif" font-size="14.00">set_review</text>
</g>
<!-- SubjectsController -->
<g id="node7" class="node">
<title>SubjectsController</title>
<path fill="none" stroke="black" d="M174,-126.5C174,-126.5 271,-126.5 271,-126.5 277,-126.5 283,-132.5 283,-138.5 283,-138.5 283,-342.5 283,-342.5 283,-348.5 277,-354.5 271,-354.5 271,-354.5 174,-354.5 174,-354.5 168,-354.5 162,-348.5 162,-342.5 162,-342.5 162,-138.5 162,-138.5 162,-132.5 168,-126.5 174,-126.5"/>
<text text-anchor="middle" x="222.5" y="-339.3" font-family="Times,serif" font-size="14.00">SubjectsController</text>
<polyline fill="none" stroke="black" points="162,-331.5 283,-331.5 "/>
<text text-anchor="start" x="170" y="-316.3" font-family="Times,serif" font-size="14.00">update</text>
<text text-anchor="start" x="170" y="-301.3" font-family="Times,serif" font-size="14.00">create</text>
<text text-anchor="start" x="170" y="-286.3" font-family="Times,serif" font-size="14.00">destroy</text>
<text text-anchor="start" x="170" y="-271.3" font-family="Times,serif" font-size="14.00">edit</text>
<text text-anchor="start" x="170" y="-256.3" font-family="Times,serif" font-size="14.00">index</text>
<text text-anchor="start" x="170" y="-241.3" font-family="Times,serif" font-size="14.00">new</text>
<text text-anchor="start" x="170" y="-226.3" font-family="Times,serif" font-size="14.00">show</text>
<text text-anchor="start" x="170" y="-211.3" font-family="Times,serif" font-size="14.00">aggiungi_materia</text>
<polyline fill="none" stroke="black" points="162,-203.5 283,-203.5 "/>
<polyline fill="none" stroke="black" points="162,-179.5 283,-179.5 "/>
<text text-anchor="start" x="170" y="-164.3" font-family="Times,serif" font-size="14.00">_layout</text>
<text text-anchor="start" x="170" y="-149.3" font-family="Times,serif" font-size="14.00">set_subject</text>
<text text-anchor="start" x="170" y="-134.3" font-family="Times,serif" font-size="14.00">subject_params</text>
</g>
<!-- TeachesController -->
<g id="node8" class="node">
<title>TeachesController</title>
<path fill="none" stroke="black" d="M12,-252.5C12,-252.5 107,-252.5 107,-252.5 113,-252.5 119,-258.5 119,-264.5 119,-264.5 119,-453.5 119,-453.5 119,-459.5 113,-465.5 107,-465.5 107,-465.5 12,-465.5 12,-465.5 6,-465.5 0,-459.5 0,-453.5 0,-453.5 0,-264.5 0,-264.5 0,-258.5 6,-252.5 12,-252.5"/>
<text text-anchor="middle" x="59.5" y="-450.3" font-family="Times,serif" font-size="14.00">TeachesController</text>
<polyline fill="none" stroke="black" points="0,-442.5 119,-442.5 "/>
<text text-anchor="start" x="8" y="-427.3" font-family="Times,serif" font-size="14.00">create</text>
<text text-anchor="start" x="8" y="-412.3" font-family="Times,serif" font-size="14.00">destroy</text>
<text text-anchor="start" x="8" y="-397.3" font-family="Times,serif" font-size="14.00">edit</text>
<text text-anchor="start" x="8" y="-382.3" font-family="Times,serif" font-size="14.00">index</text>
<text text-anchor="start" x="8" y="-367.3" font-family="Times,serif" font-size="14.00">new</text>
<text text-anchor="start" x="8" y="-352.3" font-family="Times,serif" font-size="14.00">show</text>
<text text-anchor="start" x="8" y="-337.3" font-family="Times,serif" font-size="14.00">update</text>
<polyline fill="none" stroke="black" points="0,-329.5 119,-329.5 "/>
<polyline fill="none" stroke="black" points="0,-305.5 119,-305.5 "/>
<text text-anchor="start" x="8" y="-290.3" font-family="Times,serif" font-size="14.00">_layout</text>
<text text-anchor="start" x="8" y="-275.3" font-family="Times,serif" font-size="14.00">set_teach</text>
<text text-anchor="start" x="8" y="-260.3" font-family="Times,serif" font-size="14.00">teach_params</text>
</g>
<!-- Users::OmniauthCallbacksController -->
<g id="node9" class="node">
<title>Users::OmniauthCallbacksController</title>
<path fill="none" stroke="black" d="M336,-162.5C336,-162.5 537,-162.5 537,-162.5 543,-162.5 549,-168.5 549,-174.5 549,-174.5 549,-273.5 549,-273.5 549,-279.5 543,-285.5 537,-285.5 537,-285.5 336,-285.5 336,-285.5 330,-285.5 324,-279.5 324,-273.5 324,-273.5 324,-174.5 324,-174.5 324,-168.5 330,-162.5 336,-162.5"/>
<text text-anchor="middle" x="436.5" y="-270.3" font-family="Times,serif" font-size="14.00">Users::OmniauthCallbacksController</text>
<polyline fill="none" stroke="black" points="324,-262.5 549,-262.5 "/>
<text text-anchor="start" x="332" y="-247.3" font-family="Times,serif" font-size="14.00">facebook</text>
<text text-anchor="start" x="332" y="-232.3" font-family="Times,serif" font-size="14.00">failure</text>
<text text-anchor="start" x="332" y="-217.3" font-family="Times,serif" font-size="14.00">google_oauth2</text>
<polyline fill="none" stroke="black" points="324,-209.5 549,-209.5 "/>
<polyline fill="none" stroke="black" points="324,-185.5 549,-185.5 "/>
<text text-anchor="start" x="332" y="-170.3" font-family="Times,serif" font-size="14.00">_layout</text>
</g>
<!-- Users::RegistrationsController -->
<g id="node10" class="node">
<title>Users::RegistrationsController</title>
<path fill="none" stroke="black" d="M498,-324.5C498,-324.5 662,-324.5 662,-324.5 668,-324.5 674,-330.5 674,-336.5 674,-336.5 674,-420.5 674,-420.5 674,-426.5 668,-432.5 662,-432.5 662,-432.5 498,-432.5 498,-432.5 492,-432.5 486,-426.5 486,-420.5 486,-420.5 486,-336.5 486,-336.5 486,-330.5 492,-324.5 498,-324.5"/>
<text text-anchor="middle" x="580" y="-417.3" font-family="Times,serif" font-size="14.00">Users::RegistrationsController</text>
<polyline fill="none" stroke="black" points="486,-409.5 674,-409.5 "/>
<text text-anchor="start" x="494" y="-394.3" font-family="Times,serif" font-size="14.00">after_update_path_for</text>
<text text-anchor="start" x="494" y="-379.3" font-family="Times,serif" font-size="14.00">update_resource</text>
<polyline fill="none" stroke="black" points="486,-371.5 674,-371.5 "/>
<polyline fill="none" stroke="black" points="486,-347.5 674,-347.5 "/>
<text text-anchor="start" x="494" y="-332.3" font-family="Times,serif" font-size="14.00">_layout</text>
</g>
<!-- UsersController -->
<g id="node11" class="node">
<title>UsersController</title>
<path fill="none" stroke="black" d="M336,-324.5C336,-324.5 441,-324.5 441,-324.5 447,-324.5 453,-330.5 453,-336.5 453,-336.5 453,-510.5 453,-510.5 453,-516.5 447,-522.5 441,-522.5 441,-522.5 336,-522.5 336,-522.5 330,-522.5 324,-516.5 324,-510.5 324,-510.5 324,-336.5 324,-336.5 324,-330.5 330,-324.5 336,-324.5"/>
<text text-anchor="middle" x="388.5" y="-507.3" font-family="Times,serif" font-size="14.00">UsersController</text>
<polyline fill="none" stroke="black" points="324,-499.5 453,-499.5 "/>
<text text-anchor="start" x="332" y="-484.3" font-family="Times,serif" font-size="14.00">show</text>
<text text-anchor="start" x="332" y="-469.3" font-family="Times,serif" font-size="14.00">edit</text>
<text text-anchor="start" x="332" y="-454.3" font-family="Times,serif" font-size="14.00">fa_corso</text>
<text text-anchor="start" x="332" y="-439.3" font-family="Times,serif" font-size="14.00">index</text>
<text text-anchor="start" x="332" y="-424.3" font-family="Times,serif" font-size="14.00">insegna_materia</text>
<text text-anchor="start" x="332" y="-409.3" font-family="Times,serif" font-size="14.00">nonfa_corso</text>
<text text-anchor="start" x="332" y="-394.3" font-family="Times,serif" font-size="14.00">noninsegna_materia</text>
<text text-anchor="start" x="332" y="-379.3" font-family="Times,serif" font-size="14.00">destroy</text>
<polyline fill="none" stroke="black" points="324,-371.5 453,-371.5 "/>
<polyline fill="none" stroke="black" points="324,-347.5 453,-347.5 "/>
<text text-anchor="start" x="332" y="-332.3" font-family="Times,serif" font-size="14.00">_layout</text>
</g>
</g>
</svg>
