<?xml version="1.0" encoding="UTF-8" standalone="no"?>
<!DOCTYPE svg PUBLIC "-//W3C//DTD SVG 1.1//EN"
 "http://www.w3.org/Graphics/SVG/1.1/DTD/svg11.dtd">
<!-- Generated by graphviz version 2.49.1 (20210923.0004)
 -->
<!-- Title: models_diagram Pages: 1 -->
<svg width="941pt" height="465pt"
 viewBox="0.00 0.00 941.29 465.00" xmlns="http://www.w3.org/2000/svg" xmlns:xlink="http://www.w3.org/1999/xlink">
<g id="graph0" class="graph" transform="scale(1 1) rotate(0) translate(4 461)">
<title>models_diagram</title>
<polygon fill="transparent" stroke="transparent" points="-4,4 -4,-461 937.29,-461 937.29,4 -4,4"/>
<!-- _diagram_info -->
<g id="node1" class="node">
<title>_diagram_info</title>
<text text-anchor="start" x="8" y="-442.6" font-family="Times,serif" font-size="13.00">Models diagram</text>
<text text-anchor="start" x="8" y="-428.6" font-family="Times,serif" font-size="13.00">Date: Apr 26 2022 &#45; 13:04</text>
<text text-anchor="start" x="8" y="-414.6" font-family="Times,serif" font-size="13.00">Migration version: 20220420001117</text>
<text text-anchor="start" x="8" y="-400.6" font-family="Times,serif" font-size="13.00">Generated by RailRoady 1.6.0</text>
<text text-anchor="start" x="8" y="-386.6" font-family="Times,serif" font-size="13.00">http://railroady.prestonlee.com</text>
</g>
<!-- Ability -->
<g id="node2" class="node">
<title>Ability</title>
<polygon fill="none" stroke="black" points="281.5,-436 225.5,-436 225.5,-400 281.5,-400 281.5,-436"/>
<text text-anchor="middle" x="253.5" y="-414.3" font-family="Times,serif" font-size="14.00">Ability</text>
</g>
<!-- ApplicationRecord -->
<g id="node3" class="node">
<title>ApplicationRecord</title>
<ellipse fill="none" stroke="black" cx="379.5" cy="-418" rx="79.89" ry="18"/>
<text text-anchor="middle" x="379.5" y="-414.3" font-family="Times,serif" font-size="14.00">ApplicationRecord</text>
</g>
<!-- Course -->
<g id="node4" class="node">
<title>Course</title>
<ellipse fill="none" stroke="black" cx="513.5" cy="-418" rx="36.29" ry="18"/>
<text text-anchor="middle" x="513.5" y="-414.3" font-family="Times,serif" font-size="14.00">Course</text>
</g>
<!-- Role -->
<g id="node7" class="node">
<title>Role</title>
<ellipse fill="none" stroke="black" cx="313.5" cy="-178" rx="27.9" ry="18"/>
<text text-anchor="middle" x="313.5" y="-174.3" font-family="Times,serif" font-size="14.00">Role</text>
</g>
<!-- Course&#45;&gt;Role -->
<g id="edge4" class="edge">
<title>Course&#45;&gt;Role</title>
<path fill="none" stroke="#654d15" d="M490.94,-394.87C484.14,-389.09 476.38,-383.28 468.5,-379 418.72,-351.94 388.87,-379.62 346.5,-342 308.18,-307.98 307.13,-242.79 310.09,-205.99"/>
<polygon fill="#654d15" stroke="#654d15" points="490.97,-394.9 495.43,-404.92 494.7,-398.23 498.43,-401.56 498.43,-401.56 498.43,-401.56 494.7,-398.23 501.43,-398.21 490.97,-394.9 490.97,-394.9"/>
<polygon fill="#654d15" stroke="#654d15" points="310.1,-205.94 315.54,-196.42 310.58,-200.96 311.06,-195.99 311.06,-195.99 311.06,-195.99 310.58,-200.96 306.58,-195.56 310.1,-205.94 310.1,-205.94"/>
</g>
<!-- Subject -->
<g id="node8" class="node">
<title>Subject</title>
<ellipse fill="none" stroke="black" cx="393.5" cy="-324" rx="37.89" ry="18"/>
<text text-anchor="middle" x="393.5" y="-320.3" font-family="Times,serif" font-size="14.00">Subject</text>
</g>
<!-- Course&#45;&gt;Subject -->
<g id="edge3" class="edge">
<title>Course&#45;&gt;Subject</title>
<path fill="none" stroke="#0795e0" d="M488.45,-395.26C482.03,-389.85 475.08,-384.13 468.5,-379 453.63,-367.39 436.59,-355.05 422.52,-345.11"/>
<polygon fill="#0795e0" stroke="#0795e0" points="488.62,-395.4 493.32,-405.31 492.43,-398.64 496.24,-401.88 496.24,-401.88 496.24,-401.88 492.43,-398.64 499.15,-398.46 488.62,-395.4 488.62,-395.4"/>
<polygon fill="#0795e0" stroke="#0795e0" points="422.37,-345 416.77,-335.57 418.28,-342.12 414.19,-339.25 414.19,-339.25 414.19,-339.25 418.28,-342.12 411.6,-342.93 422.37,-345 422.37,-345"/>
</g>
<!-- User -->
<g id="node10" class="node">
<title>User</title>
<ellipse fill="none" stroke="black" cx="479.5" cy="-105" rx="27.9" ry="18"/>
<text text-anchor="middle" x="479.5" y="-101.3" font-family="Times,serif" font-size="14.00">User</text>
</g>
<!-- Course&#45;&gt;User -->
<g id="edge1" class="edge">
<title>Course&#45;&gt;User</title>
<path fill="none" stroke="#873788" d="M558.4,-411.14C606.65,-402.04 676.5,-379.46 676.5,-325 676.5,-325 676.5,-325 676.5,-177 676.5,-143.37 573.64,-121.27 516.57,-111.6"/>
<polygon fill="#873788" stroke="#873788" points="558.32,-411.16 547.69,-408.46 553.39,-412.02 548.47,-412.89 548.47,-412.89 548.47,-412.89 553.39,-412.02 549.25,-417.32 558.32,-411.16 558.32,-411.16"/>
<polygon fill="#873788" stroke="#873788" points="516.35,-111.56 507.21,-105.49 511.41,-110.75 506.48,-109.93 506.48,-109.93 506.48,-109.93 511.41,-110.75 505.75,-114.37 516.35,-111.56 516.35,-111.56"/>
<text text-anchor="middle" x="697" y="-247.3" font-family="Times,serif" font-size="14.00">teacher</text>
</g>
<!-- Course&#45;&gt;User -->
<g id="edge2" class="edge">
<title>Course&#45;&gt;User</title>
<path fill="none" stroke="#6e6d5f" d="M498.4,-391.17C489.31,-373.23 479.5,-348.42 479.5,-325 479.5,-325 479.5,-325 479.5,-177 479.5,-162.65 479.5,-146.67 479.5,-133.51"/>
<polygon fill="#6e6d5f" stroke="#6e6d5f" points="498.6,-391.56 499.33,-402.5 500.95,-395.97 503.3,-400.39 503.3,-400.39 503.3,-400.39 500.95,-395.97 507.27,-398.27 498.6,-391.56 498.6,-391.56"/>
<polygon fill="#6e6d5f" stroke="#6e6d5f" points="479.5,-133.22 484,-123.22 479.5,-128.22 479.5,-123.22 479.5,-123.22 479.5,-123.22 479.5,-128.22 475,-123.22 479.5,-133.22 479.5,-133.22"/>
<text text-anchor="middle" x="500" y="-247.3" font-family="Times,serif" font-size="14.00">student</text>
</g>
<!-- Message -->
<g id="node5" class="node">
<title>Message</title>
<ellipse fill="none" stroke="black" cx="285.5" cy="-18" rx="42.49" ry="18"/>
<text text-anchor="middle" x="285.5" y="-14.3" font-family="Times,serif" font-size="14.00">Message</text>
</g>
<!-- Message&#45;&gt;Role -->
<g id="edge5" class="edge">
<title>Message&#45;&gt;Role</title>
<path fill="none" stroke="#f99dea" d="M267.57,-43.92C265.91,-47.18 264.48,-50.59 263.5,-54 261.65,-60.41 262.07,-62.49 263.5,-69 270.16,-99.23 286.15,-131.07 298.27,-152.28"/>
<polygon fill="#f99dea" stroke="#f99dea" points="267.64,-43.8 276.58,-37.44 270.17,-39.48 272.7,-35.17 272.7,-35.17 272.7,-35.17 270.17,-39.48 268.81,-32.89 267.64,-43.8 267.64,-43.8"/>
<polygon fill="#f99dea" stroke="#f99dea" points="298.3,-152.33 299.47,-163.23 300.82,-156.64 303.35,-160.96 303.35,-160.96 303.35,-160.96 300.82,-156.64 307.23,-158.68 298.3,-152.33 298.3,-152.33"/>
</g>
<!-- Message&#45;&gt;User -->
<g id="edge6" class="edge">
<title>Message&#45;&gt;User</title>
<path fill="none" stroke="#a9dd3c" d="M311.66,-40.62C324.53,-50.4 340.65,-61.43 356.5,-69 384.15,-82.2 417.73,-91.34 442.81,-96.96"/>
<polygon fill="#a9dd3c" stroke="#a9dd3c" points="311.59,-40.57 306.47,-30.88 307.65,-37.5 303.71,-34.43 303.71,-34.43 303.71,-34.43 307.65,-37.5 300.94,-37.98 311.59,-40.57 311.59,-40.57"/>
<polygon fill="#a9dd3c" stroke="#a9dd3c" points="442.88,-96.97 451.71,-103.48 447.77,-98.03 452.66,-99.08 452.66,-99.08 452.66,-99.08 447.77,-98.03 453.6,-94.68 442.88,-96.97 442.88,-96.97"/>
</g>
<!-- Message&#45;&gt;User -->
<g id="edge7" class="edge">
<title>Message&#45;&gt;User</title>
<path fill="none" stroke="#3e94a9" d="M321.62,-36.48C342.26,-46.31 368.69,-58.66 392.5,-69 410.18,-76.68 430.12,-84.75 446.45,-91.2"/>
<polygon fill="#3e94a9" stroke="#3e94a9" points="321.6,-36.47 314.52,-28.1 317.09,-34.31 312.58,-32.15 312.58,-32.15 312.58,-32.15 317.09,-34.31 310.64,-36.21 321.6,-36.47 321.6,-36.47"/>
<polygon fill="#3e94a9" stroke="#3e94a9" points="446.79,-91.33 454.45,-99.17 451.44,-93.16 456.09,-94.98 456.09,-94.98 456.09,-94.98 451.44,-93.16 457.74,-90.8 446.79,-91.33 446.79,-91.33"/>
<text text-anchor="middle" x="422.5" y="-57.8" font-family="Times,serif" font-size="14.00">messanger</text>
</g>
<!-- Review -->
<g id="node6" class="node">
<title>Review</title>
<ellipse fill="none" stroke="black" cx="463.5" cy="-18" rx="38.19" ry="18"/>
<text text-anchor="middle" x="463.5" y="-14.3" font-family="Times,serif" font-size="14.00">Review</text>
</g>
<!-- Review&#45;&gt;Role -->
<g id="edge8" class="edge">
<title>Review&#45;&gt;Role</title>
<path fill="none" stroke="#a276dc" d="M416.84,-25.56C397.02,-30.47 374.96,-39.04 359.5,-54 333.03,-79.61 321.65,-121.88 316.85,-149.59"/>
<polygon fill="#a276dc" stroke="#a276dc" points="416.9,-25.55 427.64,-27.77 421.78,-24.46 426.66,-23.37 426.66,-23.37 426.66,-23.37 421.78,-24.46 425.68,-18.98 416.9,-25.55 416.9,-25.55"/>
<polygon fill="#a276dc" stroke="#a276dc" points="316.81,-149.89 310.83,-159.09 316.04,-154.83 315.27,-159.78 315.27,-159.78 315.27,-159.78 316.04,-154.83 319.72,-160.46 316.81,-149.89 316.81,-149.89"/>
</g>
<!-- Review&#45;&gt;User -->
<g id="edge9" class="edge">
<title>Review&#45;&gt;User</title>
<path fill="none" stroke="#ea6b80" d="M499.21,-36.75C505.37,-41.48 510.92,-47.21 514.5,-54 519.98,-64.4 514.13,-75.18 505.75,-84.05"/>
<polygon fill="#ea6b80" stroke="#ea6b80" points="498.87,-36.51 493.11,-27.19 494.73,-33.71 490.58,-30.91 490.58,-30.91 490.58,-30.91 494.73,-33.71 488.06,-34.64 498.87,-36.51 498.87,-36.51"/>
<polygon fill="#ea6b80" stroke="#ea6b80" points="505.62,-84.18 495.24,-87.72 501.96,-87.59 498.31,-91.01 498.31,-91.01 498.31,-91.01 501.96,-87.59 501.38,-94.29 505.62,-84.18 505.62,-84.18"/>
</g>
<!-- Review&#45;&gt;User -->
<g id="edge10" class="edge">
<title>Review&#45;&gt;User</title>
<path fill="none" stroke="#21f29c" d="M504.64,-32.21C514.47,-37.4 523.77,-44.47 529.5,-54 537.52,-67.33 525.35,-79.71 511.02,-88.82"/>
<polygon fill="#21f29c" stroke="#21f29c" points="504.6,-32.19 497.46,-23.87 500.08,-30.07 495.55,-27.95 495.55,-27.95 495.55,-27.95 500.08,-30.07 493.64,-32.02 504.6,-32.19 504.6,-32.19"/>
<polygon fill="#21f29c" stroke="#21f29c" points="510.63,-89.04 499.72,-90.15 506.3,-91.55 501.97,-94.05 501.97,-94.05 501.97,-94.05 506.3,-91.55 504.22,-97.94 510.63,-89.04 510.63,-89.04"/>
<text text-anchor="middle" x="556" y="-57.8" font-family="Times,serif" font-size="14.00">reviewer</text>
</g>
<!-- Role&#45;&gt;User -->
<g id="edge11" class="edge">
<title>Role&#45;&gt;User</title>
<path fill="none" stroke="#cf2183" d="M343.4,-160.86C355.94,-154.36 370.77,-146.99 384.5,-141 404.35,-132.35 427.09,-123.92 445.35,-117.5"/>
<polygon fill="#cf2183" stroke="#cf2183" points="343.17,-160.99 332.23,-161.65 338.75,-163.31 334.32,-165.64 334.32,-165.64 334.32,-165.64 338.75,-163.31 336.41,-169.62 343.17,-160.99 343.17,-160.99"/>
<polygon fill="#cf2183" stroke="#cf2183" points="445.54,-117.43 456.46,-118.4 450.26,-115.79 454.98,-114.15 454.98,-114.15 454.98,-114.15 450.26,-115.79 453.51,-109.9 445.54,-117.43 445.54,-117.43"/>
</g>
<!-- Resource -->
<g id="node11" class="node">
<title>Resource</title>
<ellipse fill="none" stroke="black" cx="144.5" cy="-105" rx="44.69" ry="18"/>
<text text-anchor="middle" x="144.5" y="-101.3" font-family="Times,serif" font-size="14.00">Resource</text>
</g>
<!-- Role&#45;&gt;Resource -->
<g id="edge12" class="edge">
<title>Role&#45;&gt;Resource</title>
<path fill="none" stroke="#dc5e33" d="M277.63,-167.94C255.72,-161.83 227.43,-152.91 203.5,-142 193.84,-137.59 183.81,-131.93 174.81,-126.41"/>
<polygon fill="#dc5e33" stroke="#dc5e33" points="277.86,-168 286.33,-174.97 282.68,-169.31 287.51,-170.62 287.51,-170.62 287.51,-170.62 282.68,-169.31 288.69,-166.28 277.86,-168 277.86,-168"/>
<polygon fill="#dc5e33" stroke="#dc5e33" points="174.68,-126.32 168.62,-117.18 170.45,-123.65 166.22,-120.98 166.22,-120.98 166.22,-120.98 170.45,-123.65 163.82,-124.79 174.68,-126.32 174.68,-126.32"/>
</g>
<!-- Subject&#45;&gt;Role -->
<g id="edge15" class="edge">
<title>Subject&#45;&gt;Role</title>
<path fill="none" stroke="#fc472d" d="M363.56,-302.92C352.2,-293.84 340.17,-282.18 332.5,-269 321.3,-249.76 316.66,-224.78 314.76,-206.02"/>
<polygon fill="#fc472d" stroke="#fc472d" points="363.68,-303.01 368.92,-312.64 367.66,-306.03 371.64,-309.06 371.64,-309.06 371.64,-309.06 367.66,-306.03 374.36,-305.47 363.68,-303.01 363.68,-303.01"/>
<polygon fill="#fc472d" stroke="#fc472d" points="314.76,-206.02 318.43,-195.69 314.36,-201.04 313.95,-196.05 313.95,-196.05 313.95,-196.05 314.36,-201.04 309.46,-196.42 314.76,-206.02 314.76,-206.02"/>
</g>
<!-- Teach -->
<g id="node9" class="node">
<title>Teach</title>
<ellipse fill="none" stroke="black" cx="373.5" cy="-251" rx="32.49" ry="18"/>
<text text-anchor="middle" x="373.5" y="-247.3" font-family="Times,serif" font-size="14.00">Teach</text>
</g>
<!-- Subject&#45;&gt;Teach -->
<g id="edge13" class="edge">
<title>Subject&#45;&gt;Teach</title>
<path fill="none" stroke="#54b19e" d="M385.91,-296.05C384.31,-290.38 382.63,-284.4 381.03,-278.74"/>
<polygon fill="#54b19e" stroke="#54b19e" points="385.95,-296.19 384.33,-307.03 387.3,-301 388.66,-305.81 388.66,-305.81 388.66,-305.81 387.3,-301 392.99,-304.59 385.95,-296.19 385.95,-296.19"/>
<polygon fill="#54b19e" stroke="#54b19e" points="381.01,-278.65 382.63,-267.81 379.65,-273.84 378.3,-269.03 378.3,-269.03 378.3,-269.03 379.65,-273.84 373.97,-270.25 381.01,-278.65 381.01,-278.65"/>
</g>
<!-- Subject&#45;&gt;User -->
<g id="edge14" class="edge">
<title>Subject&#45;&gt;User</title>
<path fill="none" stroke="#72246e" d="M404.02,-296.31C418.02,-260.83 443.55,-196.17 465.5,-141 466.65,-138.11 467.85,-135.09 469.05,-132.09"/>
<polygon fill="#72246e" stroke="#72246e" points="403.9,-296.63 396.04,-304.28 402.06,-301.28 400.23,-305.93 400.23,-305.93 400.23,-305.93 402.06,-301.28 404.41,-307.58 403.9,-296.63 403.9,-296.63"/>
<polygon fill="#72246e" stroke="#72246e" points="469.08,-132.02 476.97,-124.4 470.94,-127.37 472.79,-122.73 472.79,-122.73 472.79,-122.73 470.94,-127.37 468.61,-121.06 469.08,-132.02 469.08,-132.02"/>
</g>
<!-- Teach&#45;&gt;Role -->
<g id="edge17" class="edge">
<title>Teach&#45;&gt;Role</title>
<path fill="none" stroke="#23f7fa" d="M353.65,-226.51C347.05,-218.7 339.72,-210.02 333.14,-202.24"/>
<polygon fill="#23f7fa" stroke="#23f7fa" points="353.73,-226.6 356.75,-237.15 356.96,-230.42 360.18,-234.24 360.18,-234.24 360.18,-234.24 356.96,-230.42 363.62,-231.34 353.73,-226.6 353.73,-226.6"/>
<polygon fill="#23f7fa" stroke="#23f7fa" points="332.82,-201.86 329.8,-191.32 329.59,-198.04 326.37,-194.23 326.37,-194.23 326.37,-194.23 329.59,-198.04 322.93,-197.13 332.82,-201.86 332.82,-201.86"/>
</g>
<!-- Teach&#45;&gt;User -->
<g id="edge16" class="edge">
<title>Teach&#45;&gt;User</title>
<path fill="none" stroke="#bf657e" d="M379.62,-223.28C386.18,-199.46 398.59,-164.79 419.5,-141 427.12,-132.33 437.43,-125.25 447.35,-119.79"/>
<polygon fill="#bf657e" stroke="#bf657e" points="379.59,-223.39 372.73,-231.94 378.34,-228.23 377.08,-233.07 377.08,-233.07 377.08,-233.07 378.34,-228.23 381.44,-234.2 379.59,-223.39 379.59,-223.39"/>
<polygon fill="#bf657e" stroke="#bf657e" points="447.36,-119.78 458.31,-119.23 451.81,-117.5 456.26,-115.22 456.26,-115.22 456.26,-115.22 451.81,-117.5 454.21,-111.22 447.36,-119.78 447.36,-119.78"/>
</g>
<!-- User&#45;&gt;Course -->
<g id="edge18" class="edge">
<title>User&#45;&gt;Course</title>
<path fill="none" stroke="#676cec" d="M509.57,-121.97C528.16,-134.23 548.5,-153.11 548.5,-177 548.5,-325 548.5,-325 548.5,-325 548.5,-348.5 538.4,-373.31 529.05,-391.23"/>
<polygon fill="#676cec" stroke="#676cec" points="509.46,-121.9 503.32,-112.81 505.21,-119.27 500.95,-116.64 500.95,-116.64 500.95,-116.64 505.21,-119.27 498.59,-120.47 509.46,-121.9 509.46,-121.9"/>
<polygon fill="#676cec" stroke="#676cec" points="528.81,-391.66 520.06,-398.26 526.41,-396.04 524,-400.43 524,-400.43 524,-400.43 526.41,-396.04 527.95,-402.59 528.81,-391.66 528.81,-391.66"/>
</g>
<!-- User&#45;&gt;Course -->
<g id="edge21" class="edge">
<title>User&#45;&gt;Course</title>
<path fill="none" stroke="#78862e" d="M516.49,-112.78C550.11,-121.33 594.5,-139.68 594.5,-177 594.5,-325 594.5,-325 594.5,-325 594.5,-356.32 567.72,-382.04 544.96,-398.25"/>
<polygon fill="#78862e" stroke="#78862e" points="516.2,-112.71 507.49,-106.05 511.33,-111.57 506.46,-110.43 506.46,-110.43 506.46,-110.43 511.33,-111.57 505.44,-114.81 516.2,-112.71 516.2,-112.71"/>
<polygon fill="#78862e" stroke="#78862e" points="544.77,-398.37 533.97,-400.26 540.63,-401.18 536.49,-403.98 536.49,-403.98 536.49,-403.98 540.63,-401.18 539.02,-407.71 544.77,-398.37 544.77,-398.37"/>
<text text-anchor="middle" x="617.5" y="-247.3" font-family="Times,serif" font-size="14.00">teachers</text>
</g>
<!-- User&#45;&gt;Message -->
<g id="edge24" class="edge">
<title>User&#45;&gt;Message</title>
<path fill="none" stroke="#5333cb" d="M441.2,-103.2C387.41,-101.18 293.67,-94.05 272.5,-69 266.78,-62.23 267.41,-53.24 270.34,-44.75"/>
<polygon fill="#5333cb" stroke="#5333cb" points="441.4,-103.21 451.24,-108.04 446.39,-103.38 451.39,-103.54 451.39,-103.54 451.39,-103.54 446.39,-103.38 451.54,-99.04 441.4,-103.21 441.4,-103.21"/>
<polygon fill="#5333cb" stroke="#5333cb" points="270.38,-44.67 278.54,-37.34 272.4,-40.09 274.42,-35.52 274.42,-35.52 274.42,-35.52 272.4,-40.09 270.3,-33.7 270.38,-44.67 270.38,-44.67"/>
<text text-anchor="middle" x="300" y="-57.8" font-family="Times,serif" font-size="14.00">messaged</text>
</g>
<!-- User&#45;&gt;Review -->
<g id="edge23" class="edge">
<title>User&#45;&gt;Review</title>
<path fill="none" stroke="#be2741" d="M462.73,-79.73C461,-76.26 459.5,-72.63 458.5,-69 456.47,-61.69 456.4,-53.57 457.19,-46.04"/>
<polygon fill="#be2741" stroke="#be2741" points="462.76,-79.77 463.81,-90.69 465.24,-84.12 467.72,-88.46 467.72,-88.46 467.72,-88.46 465.24,-84.12 471.62,-86.22 462.76,-79.77 462.76,-79.77"/>
<polygon fill="#be2741" stroke="#be2741" points="457.23,-45.81 463.21,-36.62 458,-40.87 458.76,-35.93 458.76,-35.93 458.76,-35.93 458,-40.87 454.32,-35.24 457.23,-45.81 457.23,-45.81"/>
<text text-anchor="middle" x="484.5" y="-57.8" font-family="Times,serif" font-size="14.00">reviewed</text>
</g>
<!-- User&#45;&gt;User -->
<g id="edge22" class="edge">
<title>User&#45;&gt;User</title>
<path fill="none" stroke="#2cd7e4" d="M515.74,-111.21C521.5,-110.3 525.45,-108.23 525.45,-105 525.45,-101.77 521.5,-99.7 515.74,-98.79"/>
<polygon fill="#2cd7e4" stroke="#2cd7e4" points="515.47,-111.22 505.27,-107.2 510.47,-111.46 505.48,-111.69 505.48,-111.69 505.48,-111.69 510.47,-111.46 505.69,-116.19 515.47,-111.22 515.47,-111.22"/>
<polygon fill="#2cd7e4" stroke="#2cd7e4" points="515.47,-98.78 505.69,-93.81 510.47,-98.54 505.48,-98.31 505.48,-98.31 505.48,-98.31 510.47,-98.54 505.27,-102.8 515.47,-98.78 515.47,-98.78"/>
<text text-anchor="middle" x="548.45" y="-101.3" font-family="Times,serif" font-size="14.00">students</text>
</g>
<!-- ActiveStorage::Attachment -->
<g id="node12" class="node">
<title>ActiveStorage::Attachment</title>
<ellipse fill="none" stroke="black" cx="633.5" cy="-18" rx="110.48" ry="18"/>
<text text-anchor="middle" x="633.5" y="-14.3" font-family="Times,serif" font-size="14.00">ActiveStorage::Attachment</text>
</g>
<!-- User&#45;&gt;ActiveStorage::Attachment -->
<g id="edge19" class="edge">
<title>User&#45;&gt;ActiveStorage::Attachment</title>
<path fill="none" stroke="#d0232f" d="M515.91,-96.39C537.02,-90.91 563.5,-82.13 584.5,-69 595.34,-62.22 605.55,-52.57 613.81,-43.56"/>
<polygon fill="#d0232f" stroke="#d0232f" points="515.74,-96.44 504.95,-94.46 510.88,-97.63 506.03,-98.82 506.03,-98.82 506.03,-98.82 510.88,-97.63 507.1,-103.19 515.74,-96.44 515.74,-96.44"/>
<polygon fill="#d0232f" stroke="#d0232f" points="613.94,-43.4 623.92,-38.85 617.24,-39.64 620.53,-35.88 620.53,-35.88 620.53,-35.88 617.24,-39.64 617.15,-32.92 613.94,-43.4 613.94,-43.4"/>
<text text-anchor="middle" x="654" y="-57.8" font-family="Times,serif" font-size="14.00">avatar_attachment</text>
</g>
<!-- ActiveStorage::Blob -->
<g id="node13" class="node">
<title>ActiveStorage::Blob</title>
<ellipse fill="none" stroke="black" cx="847.5" cy="-18" rx="85.59" ry="18"/>
<text text-anchor="middle" x="847.5" y="-14.3" font-family="Times,serif" font-size="14.00">ActiveStorage::Blob</text>
</g>
<!-- User&#45;&gt;ActiveStorage::Blob -->
<g id="edge20" class="edge">
<title>User&#45;&gt;ActiveStorage::Blob</title>
<path fill="none" stroke="#44be21" d="M517.21,-100.56C563.14,-95.84 642.87,-85.97 709.5,-69 740.95,-60.99 775.26,-48.58 801.81,-38.12"/>
<polygon fill="#44be21" stroke="#44be21" points="517.06,-100.57 506.66,-97.09 512.09,-101.07 507.11,-101.57 507.11,-101.57 507.11,-101.57 512.09,-101.07 507.56,-106.05 517.06,-100.57 517.06,-100.57"/>
<polygon fill="#44be21" stroke="#44be21" points="801.93,-38.07 812.88,-38.55 806.57,-36.22 811.21,-34.37 811.21,-34.37 811.21,-34.37 806.57,-36.22 809.55,-30.19 801.93,-38.07 801.93,-38.07"/>
<text text-anchor="middle" x="789" y="-57.8" font-family="Times,serif" font-size="14.00">avatar_blob</text>
</g>
</g>
</svg>
