<?xml version="1.0" encoding="UTF-8" standalone="no"?>
<!DOCTYPE svg PUBLIC "-//W3C//DTD SVG 1.1//EN"
 "http://www.w3.org/Graphics/SVG/1.1/DTD/svg11.dtd">
<!-- Generated by graphviz version 2.49.1 (20210923.0004)
 -->
<!-- Title: models_diagram Pages: 1 -->
<svg width="942pt" height="465pt"
 viewBox="0.00 0.00 941.79 465.00" xmlns="http://www.w3.org/2000/svg" xmlns:xlink="http://www.w3.org/1999/xlink">
<g id="graph0" class="graph" transform="scale(1 1) rotate(0) translate(4 461)">
<title>models_diagram</title>
<polygon fill="transparent" stroke="transparent" points="-4,4 -4,-461 937.79,-461 937.79,4 -4,4"/>
<!-- _diagram_info -->
<g id="node1" class="node">
<title>_diagram_info</title>
<text text-anchor="start" x="8" y="-442.6" font-family="Times,serif" font-size="13.00">Models diagram</text>
<text text-anchor="start" x="8" y="-428.6" font-family="Times,serif" font-size="13.00">Date: Apr 19 2022 &#45; 14:46</text>
<text text-anchor="start" x="8" y="-414.6" font-family="Times,serif" font-size="13.00">Migration version: 20220410181456</text>
<text text-anchor="start" x="8" y="-400.6" font-family="Times,serif" font-size="13.00">Generated by RailRoady 1.6.0</text>
<text text-anchor="start" x="8" y="-386.6" font-family="Times,serif" font-size="13.00">http://railroady.prestonlee.com</text>
</g>
<!-- Ability -->
<g id="node2" class="node">
<title>Ability</title>
<polygon fill="none" stroke="black" points="282,-436 226,-436 226,-400 282,-400 282,-436"/>
<text text-anchor="middle" x="254" y="-414.3" font-family="Times,serif" font-size="14.00">Ability</text>
</g>
<!-- ApplicationRecord -->
<g id="node3" class="node">
<title>ApplicationRecord</title>
<ellipse fill="none" stroke="black" cx="380" cy="-418" rx="79.89" ry="18"/>
<text text-anchor="middle" x="380" y="-414.3" font-family="Times,serif" font-size="14.00">ApplicationRecord</text>
</g>
<!-- Course -->
<g id="node4" class="node">
<title>Course</title>
<ellipse fill="none" stroke="black" cx="514" cy="-418" rx="36.29" ry="18"/>
<text text-anchor="middle" x="514" y="-414.3" font-family="Times,serif" font-size="14.00">Course</text>
</g>
<!-- Role -->
<g id="node7" class="node">
<title>Role</title>
<ellipse fill="none" stroke="black" cx="314" cy="-178" rx="27.9" ry="18"/>
<text text-anchor="middle" x="314" y="-174.3" font-family="Times,serif" font-size="14.00">Role</text>
</g>
<!-- Course&#45;&gt;Role -->
<g id="edge4" class="edge">
<title>Course&#45;&gt;Role</title>
<path fill="none" stroke="#052c14" d="M491.44,-394.87C484.64,-389.09 476.88,-383.28 469,-379 419.22,-351.94 389.37,-379.62 347,-342 308.68,-307.98 307.63,-242.79 310.59,-205.99"/>
<polygon fill="#052c14" stroke="#052c14" points="491.47,-394.9 495.93,-404.92 495.2,-398.23 498.93,-401.56 498.93,-401.56 498.93,-401.56 495.2,-398.23 501.93,-398.21 491.47,-394.9 491.47,-394.9"/>
<polygon fill="#052c14" stroke="#052c14" points="310.6,-205.94 316.04,-196.42 311.08,-200.96 311.56,-195.99 311.56,-195.99 311.56,-195.99 311.08,-200.96 307.08,-195.56 310.6,-205.94 310.6,-205.94"/>
</g>
<!-- Subject -->
<g id="node8" class="node">
<title>Subject</title>
<ellipse fill="none" stroke="black" cx="394" cy="-324" rx="37.89" ry="18"/>
<text text-anchor="middle" x="394" y="-320.3" font-family="Times,serif" font-size="14.00">Subject</text>
</g>
<!-- Course&#45;&gt;Subject -->
<g id="edge3" class="edge">
<title>Course&#45;&gt;Subject</title>
<path fill="none" stroke="#ed43ec" d="M488.95,-395.26C482.53,-389.85 475.58,-384.13 469,-379 454.13,-367.39 437.09,-355.05 423.02,-345.11"/>
<polygon fill="#ed43ec" stroke="#ed43ec" points="489.12,-395.4 493.82,-405.31 492.93,-398.64 496.74,-401.88 496.74,-401.88 496.74,-401.88 492.93,-398.64 499.65,-398.46 489.12,-395.4 489.12,-395.4"/>
<polygon fill="#ed43ec" stroke="#ed43ec" points="422.87,-345 417.27,-335.57 418.78,-342.12 414.69,-339.25 414.69,-339.25 414.69,-339.25 418.78,-342.12 412.1,-342.93 422.87,-345 422.87,-345"/>
</g>
<!-- User -->
<g id="node10" class="node">
<title>User</title>
<ellipse fill="none" stroke="black" cx="480" cy="-105" rx="27.9" ry="18"/>
<text text-anchor="middle" x="480" y="-101.3" font-family="Times,serif" font-size="14.00">User</text>
</g>
<!-- Course&#45;&gt;User -->
<g id="edge1" class="edge">
<title>Course&#45;&gt;User</title>
<path fill="none" stroke="#731a80" d="M558.9,-411.14C607.15,-402.04 677,-379.46 677,-325 677,-325 677,-325 677,-177 677,-143.37 574.14,-121.27 517.07,-111.6"/>
<polygon fill="#731a80" stroke="#731a80" points="558.82,-411.16 548.19,-408.46 553.89,-412.02 548.97,-412.89 548.97,-412.89 548.97,-412.89 553.89,-412.02 549.75,-417.32 558.82,-411.16 558.82,-411.16"/>
<polygon fill="#731a80" stroke="#731a80" points="516.85,-111.56 507.71,-105.49 511.91,-110.75 506.98,-109.93 506.98,-109.93 506.98,-109.93 511.91,-110.75 506.25,-114.37 516.85,-111.56 516.85,-111.56"/>
<text text-anchor="middle" x="697.5" y="-247.3" font-family="Times,serif" font-size="14.00">teacher</text>
</g>
<!-- Course&#45;&gt;User -->
<g id="edge2" class="edge">
<title>Course&#45;&gt;User</title>
<path fill="none" stroke="#3fb56f" d="M498.9,-391.17C489.81,-373.23 480,-348.42 480,-325 480,-325 480,-325 480,-177 480,-162.65 480,-146.67 480,-133.51"/>
<polygon fill="#3fb56f" stroke="#3fb56f" points="499.1,-391.56 499.83,-402.5 501.45,-395.97 503.8,-400.39 503.8,-400.39 503.8,-400.39 501.45,-395.97 507.77,-398.27 499.1,-391.56 499.1,-391.56"/>
<polygon fill="#3fb56f" stroke="#3fb56f" points="480,-133.22 484.5,-123.22 480,-128.22 480,-123.22 480,-123.22 480,-123.22 480,-128.22 475.5,-123.22 480,-133.22 480,-133.22"/>
<text text-anchor="middle" x="500.5" y="-247.3" font-family="Times,serif" font-size="14.00">student</text>
</g>
<!-- Message -->
<g id="node5" class="node">
<title>Message</title>
<ellipse fill="none" stroke="black" cx="286" cy="-18" rx="42.49" ry="18"/>
<text text-anchor="middle" x="286" y="-14.3" font-family="Times,serif" font-size="14.00">Message</text>
</g>
<!-- Message&#45;&gt;Role -->
<g id="edge5" class="edge">
<title>Message&#45;&gt;Role</title>
<path fill="none" stroke="#d6933a" d="M268.07,-43.92C266.41,-47.18 264.98,-50.59 264,-54 262.15,-60.41 262.57,-62.49 264,-69 270.66,-99.23 286.65,-131.07 298.77,-152.28"/>
<polygon fill="#d6933a" stroke="#d6933a" points="268.14,-43.8 277.08,-37.44 270.67,-39.48 273.2,-35.17 273.2,-35.17 273.2,-35.17 270.67,-39.48 269.31,-32.89 268.14,-43.8 268.14,-43.8"/>
<polygon fill="#d6933a" stroke="#d6933a" points="298.8,-152.33 299.97,-163.23 301.32,-156.64 303.85,-160.96 303.85,-160.96 303.85,-160.96 301.32,-156.64 307.73,-158.68 298.8,-152.33 298.8,-152.33"/>
</g>
<!-- Message&#45;&gt;User -->
<g id="edge6" class="edge">
<title>Message&#45;&gt;User</title>
<path fill="none" stroke="#52fb28" d="M312.16,-40.62C325.03,-50.4 341.15,-61.43 357,-69 384.65,-82.2 418.23,-91.34 443.31,-96.96"/>
<polygon fill="#52fb28" stroke="#52fb28" points="312.09,-40.57 306.97,-30.88 308.15,-37.5 304.21,-34.43 304.21,-34.43 304.21,-34.43 308.15,-37.5 301.44,-37.98 312.09,-40.57 312.09,-40.57"/>
<polygon fill="#52fb28" stroke="#52fb28" points="443.38,-96.97 452.21,-103.48 448.27,-98.03 453.16,-99.08 453.16,-99.08 453.16,-99.08 448.27,-98.03 454.1,-94.68 443.38,-96.97 443.38,-96.97"/>
</g>
<!-- Message&#45;&gt;User -->
<g id="edge7" class="edge">
<title>Message&#45;&gt;User</title>
<path fill="none" stroke="#7969e0" d="M322.12,-36.48C342.76,-46.31 369.19,-58.66 393,-69 410.68,-76.68 430.62,-84.75 446.95,-91.2"/>
<polygon fill="#7969e0" stroke="#7969e0" points="322.1,-36.47 315.02,-28.1 317.59,-34.31 313.08,-32.15 313.08,-32.15 313.08,-32.15 317.59,-34.31 311.14,-36.21 322.1,-36.47 322.1,-36.47"/>
<polygon fill="#7969e0" stroke="#7969e0" points="447.29,-91.33 454.95,-99.17 451.94,-93.16 456.59,-94.98 456.59,-94.98 456.59,-94.98 451.94,-93.16 458.24,-90.8 447.29,-91.33 447.29,-91.33"/>
<text text-anchor="middle" x="423" y="-57.8" font-family="Times,serif" font-size="14.00">messanger</text>
</g>
<!-- Review -->
<g id="node6" class="node">
<title>Review</title>
<ellipse fill="none" stroke="black" cx="464" cy="-18" rx="38.19" ry="18"/>
<text text-anchor="middle" x="464" y="-14.3" font-family="Times,serif" font-size="14.00">Review</text>
</g>
<!-- Review&#45;&gt;Role -->
<g id="edge8" class="edge">
<title>Review&#45;&gt;Role</title>
<path fill="none" stroke="#2c5c63" d="M417.34,-25.56C397.52,-30.47 375.46,-39.04 360,-54 333.53,-79.61 322.15,-121.88 317.35,-149.59"/>
<polygon fill="#2c5c63" stroke="#2c5c63" points="417.4,-25.55 428.14,-27.77 422.28,-24.46 427.16,-23.37 427.16,-23.37 427.16,-23.37 422.28,-24.46 426.18,-18.98 417.4,-25.55 417.4,-25.55"/>
<polygon fill="#2c5c63" stroke="#2c5c63" points="317.31,-149.89 311.33,-159.09 316.54,-154.83 315.77,-159.78 315.77,-159.78 315.77,-159.78 316.54,-154.83 320.22,-160.46 317.31,-149.89 317.31,-149.89"/>
</g>
<!-- Review&#45;&gt;User -->
<g id="edge9" class="edge">
<title>Review&#45;&gt;User</title>
<path fill="none" stroke="#f0dfe1" d="M499.71,-36.75C505.87,-41.48 511.42,-47.21 515,-54 520.48,-64.4 514.63,-75.18 506.25,-84.05"/>
<polygon fill="#f0dfe1" stroke="#f0dfe1" points="499.37,-36.51 493.61,-27.19 495.23,-33.71 491.08,-30.91 491.08,-30.91 491.08,-30.91 495.23,-33.71 488.56,-34.64 499.37,-36.51 499.37,-36.51"/>
<polygon fill="#f0dfe1" stroke="#f0dfe1" points="506.12,-84.18 495.74,-87.72 502.46,-87.59 498.81,-91.01 498.81,-91.01 498.81,-91.01 502.46,-87.59 501.88,-94.29 506.12,-84.18 506.12,-84.18"/>
</g>
<!-- Review&#45;&gt;User -->
<g id="edge10" class="edge">
<title>Review&#45;&gt;User</title>
<path fill="none" stroke="#73127e" d="M505.14,-32.21C514.97,-37.4 524.27,-44.47 530,-54 538.02,-67.33 525.85,-79.71 511.52,-88.82"/>
<polygon fill="#73127e" stroke="#73127e" points="505.1,-32.19 497.96,-23.87 500.58,-30.07 496.05,-27.95 496.05,-27.95 496.05,-27.95 500.58,-30.07 494.14,-32.02 505.1,-32.19 505.1,-32.19"/>
<polygon fill="#73127e" stroke="#73127e" points="511.13,-89.04 500.22,-90.15 506.8,-91.55 502.47,-94.05 502.47,-94.05 502.47,-94.05 506.8,-91.55 504.72,-97.94 511.13,-89.04 511.13,-89.04"/>
<text text-anchor="middle" x="556.5" y="-57.8" font-family="Times,serif" font-size="14.00">reviewer</text>
</g>
<!-- Role&#45;&gt;User -->
<g id="edge11" class="edge">
<title>Role&#45;&gt;User</title>
<path fill="none" stroke="#26014a" d="M343.9,-160.86C356.44,-154.36 371.27,-146.99 385,-141 404.85,-132.35 427.59,-123.92 445.85,-117.5"/>
<polygon fill="#26014a" stroke="#26014a" points="343.67,-160.99 332.73,-161.65 339.25,-163.31 334.82,-165.64 334.82,-165.64 334.82,-165.64 339.25,-163.31 336.91,-169.62 343.67,-160.99 343.67,-160.99"/>
<polygon fill="#26014a" stroke="#26014a" points="446.04,-117.43 456.96,-118.4 450.76,-115.79 455.48,-114.15 455.48,-114.15 455.48,-114.15 450.76,-115.79 454.01,-109.9 446.04,-117.43 446.04,-117.43"/>
</g>
<!-- Resource -->
<g id="node11" class="node">
<title>Resource</title>
<ellipse fill="none" stroke="black" cx="145" cy="-105" rx="44.69" ry="18"/>
<text text-anchor="middle" x="145" y="-101.3" font-family="Times,serif" font-size="14.00">Resource</text>
</g>
<!-- Role&#45;&gt;Resource -->
<g id="edge12" class="edge">
<title>Role&#45;&gt;Resource</title>
<path fill="none" stroke="#ba30fc" d="M278.13,-167.94C256.22,-161.83 227.93,-152.91 204,-142 194.34,-137.59 184.31,-131.93 175.31,-126.41"/>
<polygon fill="#ba30fc" stroke="#ba30fc" points="278.36,-168 286.83,-174.97 283.18,-169.31 288.01,-170.62 288.01,-170.62 288.01,-170.62 283.18,-169.31 289.19,-166.28 278.36,-168 278.36,-168"/>
<polygon fill="#ba30fc" stroke="#ba30fc" points="175.18,-126.32 169.12,-117.18 170.95,-123.65 166.72,-120.98 166.72,-120.98 166.72,-120.98 170.95,-123.65 164.32,-124.79 175.18,-126.32 175.18,-126.32"/>
</g>
<!-- Subject&#45;&gt;Role -->
<g id="edge15" class="edge">
<title>Subject&#45;&gt;Role</title>
<path fill="none" stroke="#b465ab" d="M364.06,-302.92C352.7,-293.84 340.67,-282.18 333,-269 321.8,-249.76 317.16,-224.78 315.26,-206.02"/>
<polygon fill="#b465ab" stroke="#b465ab" points="364.18,-303.01 369.42,-312.64 368.16,-306.03 372.14,-309.06 372.14,-309.06 372.14,-309.06 368.16,-306.03 374.86,-305.47 364.18,-303.01 364.18,-303.01"/>
<polygon fill="#b465ab" stroke="#b465ab" points="315.26,-206.02 318.93,-195.69 314.86,-201.04 314.45,-196.05 314.45,-196.05 314.45,-196.05 314.86,-201.04 309.96,-196.42 315.26,-206.02 315.26,-206.02"/>
</g>
<!-- Teach -->
<g id="node9" class="node">
<title>Teach</title>
<ellipse fill="none" stroke="black" cx="374" cy="-251" rx="32.49" ry="18"/>
<text text-anchor="middle" x="374" y="-247.3" font-family="Times,serif" font-size="14.00">Teach</text>
</g>
<!-- Subject&#45;&gt;Teach -->
<g id="edge13" class="edge">
<title>Subject&#45;&gt;Teach</title>
<path fill="none" stroke="#d853e1" d="M386.41,-296.05C384.81,-290.38 383.13,-284.4 381.53,-278.74"/>
<polygon fill="#d853e1" stroke="#d853e1" points="386.45,-296.19 384.83,-307.03 387.8,-301 389.16,-305.81 389.16,-305.81 389.16,-305.81 387.8,-301 393.49,-304.59 386.45,-296.19 386.45,-296.19"/>
<polygon fill="#d853e1" stroke="#d853e1" points="381.51,-278.65 383.13,-267.81 380.15,-273.84 378.8,-269.03 378.8,-269.03 378.8,-269.03 380.15,-273.84 374.47,-270.25 381.51,-278.65 381.51,-278.65"/>
</g>
<!-- Subject&#45;&gt;User -->
<g id="edge14" class="edge">
<title>Subject&#45;&gt;User</title>
<path fill="none" stroke="#0e9949" d="M404.52,-296.31C418.52,-260.83 444.05,-196.17 466,-141 467.15,-138.11 468.35,-135.09 469.55,-132.09"/>
<polygon fill="#0e9949" stroke="#0e9949" points="404.4,-296.63 396.54,-304.28 402.56,-301.28 400.73,-305.93 400.73,-305.93 400.73,-305.93 402.56,-301.28 404.91,-307.58 404.4,-296.63 404.4,-296.63"/>
<polygon fill="#0e9949" stroke="#0e9949" points="469.58,-132.02 477.47,-124.4 471.44,-127.37 473.29,-122.73 473.29,-122.73 473.29,-122.73 471.44,-127.37 469.11,-121.06 469.58,-132.02 469.58,-132.02"/>
</g>
<!-- Teach&#45;&gt;Role -->
<g id="edge17" class="edge">
<title>Teach&#45;&gt;Role</title>
<path fill="none" stroke="#4b2c71" d="M354.15,-226.51C347.55,-218.7 340.22,-210.02 333.64,-202.24"/>
<polygon fill="#4b2c71" stroke="#4b2c71" points="354.23,-226.6 357.25,-237.15 357.46,-230.42 360.68,-234.24 360.68,-234.24 360.68,-234.24 357.46,-230.42 364.12,-231.34 354.23,-226.6 354.23,-226.6"/>
<polygon fill="#4b2c71" stroke="#4b2c71" points="333.32,-201.86 330.3,-191.32 330.09,-198.04 326.87,-194.23 326.87,-194.23 326.87,-194.23 330.09,-198.04 323.43,-197.13 333.32,-201.86 333.32,-201.86"/>
</g>
<!-- Teach&#45;&gt;User -->
<g id="edge16" class="edge">
<title>Teach&#45;&gt;User</title>
<path fill="none" stroke="#802817" d="M380.12,-223.28C386.68,-199.46 399.09,-164.79 420,-141 427.62,-132.33 437.93,-125.25 447.85,-119.79"/>
<polygon fill="#802817" stroke="#802817" points="380.09,-223.39 373.23,-231.94 378.84,-228.23 377.58,-233.07 377.58,-233.07 377.58,-233.07 378.84,-228.23 381.94,-234.2 380.09,-223.39 380.09,-223.39"/>
<polygon fill="#802817" stroke="#802817" points="447.86,-119.78 458.81,-119.23 452.31,-117.5 456.76,-115.22 456.76,-115.22 456.76,-115.22 452.31,-117.5 454.71,-111.22 447.86,-119.78 447.86,-119.78"/>
</g>
<!-- User&#45;&gt;Course -->
<g id="edge18" class="edge">
<title>User&#45;&gt;Course</title>
<path fill="none" stroke="#235e52" d="M510.07,-121.97C528.66,-134.23 549,-153.11 549,-177 549,-325 549,-325 549,-325 549,-348.5 538.9,-373.31 529.55,-391.23"/>
<polygon fill="#235e52" stroke="#235e52" points="509.96,-121.9 503.82,-112.81 505.71,-119.27 501.45,-116.64 501.45,-116.64 501.45,-116.64 505.71,-119.27 499.09,-120.47 509.96,-121.9 509.96,-121.9"/>
<polygon fill="#235e52" stroke="#235e52" points="529.31,-391.66 520.56,-398.26 526.91,-396.04 524.5,-400.43 524.5,-400.43 524.5,-400.43 526.91,-396.04 528.45,-402.59 529.31,-391.66 529.31,-391.66"/>
</g>
<!-- User&#45;&gt;Course -->
<g id="edge21" class="edge">
<title>User&#45;&gt;Course</title>
<path fill="none" stroke="#130f53" d="M516.99,-112.78C550.61,-121.33 595,-139.68 595,-177 595,-325 595,-325 595,-325 595,-356.32 568.22,-382.04 545.46,-398.25"/>
<polygon fill="#130f53" stroke="#130f53" points="516.7,-112.71 507.99,-106.05 511.83,-111.57 506.96,-110.43 506.96,-110.43 506.96,-110.43 511.83,-111.57 505.94,-114.81 516.7,-112.71 516.7,-112.71"/>
<polygon fill="#130f53" stroke="#130f53" points="545.27,-398.37 534.47,-400.26 541.13,-401.18 536.99,-403.98 536.99,-403.98 536.99,-403.98 541.13,-401.18 539.52,-407.71 545.27,-398.37 545.27,-398.37"/>
<text text-anchor="middle" x="618" y="-247.3" font-family="Times,serif" font-size="14.00">teachers</text>
</g>
<!-- User&#45;&gt;Message -->
<g id="edge24" class="edge">
<title>User&#45;&gt;Message</title>
<path fill="none" stroke="#573662" d="M441.7,-103.2C387.91,-101.18 294.17,-94.05 273,-69 267.28,-62.23 267.91,-53.24 270.84,-44.75"/>
<polygon fill="#573662" stroke="#573662" points="441.9,-103.21 451.74,-108.04 446.89,-103.38 451.89,-103.54 451.89,-103.54 451.89,-103.54 446.89,-103.38 452.04,-99.04 441.9,-103.21 441.9,-103.21"/>
<polygon fill="#573662" stroke="#573662" points="270.88,-44.67 279.04,-37.34 272.9,-40.09 274.92,-35.52 274.92,-35.52 274.92,-35.52 272.9,-40.09 270.8,-33.7 270.88,-44.67 270.88,-44.67"/>
<text text-anchor="middle" x="300.5" y="-57.8" font-family="Times,serif" font-size="14.00">messaged</text>
</g>
<!-- User&#45;&gt;Review -->
<g id="edge23" class="edge">
<title>User&#45;&gt;Review</title>
<path fill="none" stroke="#195d96" d="M463.23,-79.73C461.5,-76.26 460,-72.63 459,-69 456.97,-61.69 456.9,-53.57 457.69,-46.04"/>
<polygon fill="#195d96" stroke="#195d96" points="463.26,-79.77 464.31,-90.69 465.74,-84.12 468.22,-88.46 468.22,-88.46 468.22,-88.46 465.74,-84.12 472.12,-86.22 463.26,-79.77 463.26,-79.77"/>
<polygon fill="#195d96" stroke="#195d96" points="457.73,-45.81 463.71,-36.62 458.5,-40.87 459.26,-35.93 459.26,-35.93 459.26,-35.93 458.5,-40.87 454.82,-35.24 457.73,-45.81 457.73,-45.81"/>
<text text-anchor="middle" x="485" y="-57.8" font-family="Times,serif" font-size="14.00">reviewed</text>
</g>
<!-- User&#45;&gt;User -->
<g id="edge22" class="edge">
<title>User&#45;&gt;User</title>
<path fill="none" stroke="#750900" d="M516.24,-111.21C522,-110.3 525.95,-108.23 525.95,-105 525.95,-101.77 522,-99.7 516.24,-98.79"/>
<polygon fill="#750900" stroke="#750900" points="515.97,-111.22 505.77,-107.2 510.97,-111.46 505.98,-111.69 505.98,-111.69 505.98,-111.69 510.97,-111.46 506.19,-116.19 515.97,-111.22 515.97,-111.22"/>
<polygon fill="#750900" stroke="#750900" points="515.97,-98.78 506.19,-93.81 510.97,-98.54 505.98,-98.31 505.98,-98.31 505.98,-98.31 510.97,-98.54 505.77,-102.8 515.97,-98.78 515.97,-98.78"/>
<text text-anchor="middle" x="548.95" y="-101.3" font-family="Times,serif" font-size="14.00">students</text>
</g>
<!-- ActiveStorage::Attachment -->
<g id="node12" class="node">
<title>ActiveStorage::Attachment</title>
<ellipse fill="none" stroke="black" cx="634" cy="-18" rx="110.48" ry="18"/>
<text text-anchor="middle" x="634" y="-14.3" font-family="Times,serif" font-size="14.00">ActiveStorage::Attachment</text>
</g>
<!-- User&#45;&gt;ActiveStorage::Attachment -->
<g id="edge19" class="edge">
<title>User&#45;&gt;ActiveStorage::Attachment</title>
<path fill="none" stroke="#4a6414" d="M516.41,-96.39C537.52,-90.91 564,-82.13 585,-69 595.84,-62.22 606.05,-52.57 614.31,-43.56"/>
<polygon fill="#4a6414" stroke="#4a6414" points="516.24,-96.44 505.45,-94.46 511.38,-97.63 506.53,-98.82 506.53,-98.82 506.53,-98.82 511.38,-97.63 507.6,-103.19 516.24,-96.44 516.24,-96.44"/>
<polygon fill="#4a6414" stroke="#4a6414" points="614.44,-43.4 624.42,-38.85 617.74,-39.64 621.03,-35.88 621.03,-35.88 621.03,-35.88 617.74,-39.64 617.65,-32.92 614.44,-43.4 614.44,-43.4"/>
<text text-anchor="middle" x="654.5" y="-57.8" font-family="Times,serif" font-size="14.00">avatar_attachment</text>
</g>
<!-- ActiveStorage::Blob -->
<g id="node13" class="node">
<title>ActiveStorage::Blob</title>
<ellipse fill="none" stroke="black" cx="848" cy="-18" rx="85.59" ry="18"/>
<text text-anchor="middle" x="848" y="-14.3" font-family="Times,serif" font-size="14.00">ActiveStorage::Blob</text>
</g>
<!-- User&#45;&gt;ActiveStorage::Blob -->
<g id="edge20" class="edge">
<title>User&#45;&gt;ActiveStorage::Blob</title>
<path fill="none" stroke="#bb0d3d" d="M517.71,-100.56C563.64,-95.84 643.37,-85.97 710,-69 741.45,-60.99 775.76,-48.58 802.31,-38.12"/>
<polygon fill="#bb0d3d" stroke="#bb0d3d" points="517.56,-100.57 507.16,-97.09 512.59,-101.07 507.61,-101.57 507.61,-101.57 507.61,-101.57 512.59,-101.07 508.06,-106.05 517.56,-100.57 517.56,-100.57"/>
<polygon fill="#bb0d3d" stroke="#bb0d3d" points="802.43,-38.07 813.38,-38.55 807.07,-36.22 811.71,-34.37 811.71,-34.37 811.71,-34.37 807.07,-36.22 810.05,-30.19 802.43,-38.07 802.43,-38.07"/>
<text text-anchor="middle" x="789.5" y="-57.8" font-family="Times,serif" font-size="14.00">avatar_blob</text>
</g>
</g>
</svg>
