<?xml version="1.0" encoding="UTF-8" standalone="no"?>
<!DOCTYPE svg PUBLIC "-//W3C//DTD SVG 1.1//EN"
 "http://www.w3.org/Graphics/SVG/1.1/DTD/svg11.dtd">
<!-- Generated by graphviz version 2.49.1 (20210923.0004)
 -->
<!-- Title: models_diagram Pages: 1 -->
<svg width="996pt" height="1059pt"
 viewBox="0.00 0.00 996.29 1059.00" xmlns="http://www.w3.org/2000/svg" xmlns:xlink="http://www.w3.org/1999/xlink">
<g id="graph0" class="graph" transform="scale(1 1) rotate(0) translate(4 1055)">
<title>models_diagram</title>
<polygon fill="transparent" stroke="transparent" points="-4,4 -4,-1055 992.29,-1055 992.29,4 -4,4"/>
<!-- _diagram_info -->
<g id="node1" class="node">
<title>_diagram_info</title>
<text text-anchor="start" x="8" y="-1007.1" font-family="Times,serif" font-size="13.00">Models diagram</text>
<text text-anchor="start" x="8" y="-993.1" font-family="Times,serif" font-size="13.00">Date: Apr 26 2022 &#45; 13:04</text>
<text text-anchor="start" x="8" y="-979.1" font-family="Times,serif" font-size="13.00">Migration version: 20220420001117</text>
<text text-anchor="start" x="8" y="-965.1" font-family="Times,serif" font-size="13.00">Generated by RailRoady 1.6.0</text>
<text text-anchor="start" x="8" y="-951.1" font-family="Times,serif" font-size="13.00">http://railroady.prestonlee.com</text>
</g>
<!-- Ability -->
<g id="node2" class="node">
<title>Ability</title>
<polygon fill="none" stroke="black" points="225.5,-959.5 225.5,-1005.5 281.5,-1005.5 281.5,-959.5 225.5,-959.5"/>
<text text-anchor="middle" x="253.5" y="-990.3" font-family="Times,serif" font-size="14.00">Ability</text>
<polyline fill="none" stroke="black" points="225.5,-982.5 281.5,-982.5 "/>
<text text-anchor="middle" x="253.5" y="-967.3" font-family="Times,serif" font-size="14.00"> </text>
</g>
<!-- ApplicationRecord -->
<g id="node3" class="node">
<title>ApplicationRecord</title>
<ellipse fill="none" stroke="black" cx="379.5" cy="-982.5" rx="79.89" ry="18"/>
<text text-anchor="middle" x="379.5" y="-978.8" font-family="Times,serif" font-size="14.00">ApplicationRecord</text>
</g>
<!-- Course -->
<g id="node4" class="node">
<title>Course</title>
<path fill="none" stroke="black" d="M489.5,-914.5C489.5,-914.5 615.5,-914.5 615.5,-914.5 621.5,-914.5 627.5,-920.5 627.5,-926.5 627.5,-926.5 627.5,-1038.5 627.5,-1038.5 627.5,-1044.5 621.5,-1050.5 615.5,-1050.5 615.5,-1050.5 489.5,-1050.5 489.5,-1050.5 483.5,-1050.5 477.5,-1044.5 477.5,-1038.5 477.5,-1038.5 477.5,-926.5 477.5,-926.5 477.5,-920.5 483.5,-914.5 489.5,-914.5"/>
<text text-anchor="middle" x="552.5" y="-1035.3" font-family="Times,serif" font-size="14.00">Course</text>
<polyline fill="none" stroke="black" points="477.5,-1027.5 627.5,-1027.5 "/>
<text text-anchor="start" x="485.5" y="-1012.3" font-family="Times,serif" font-size="14.00">id :INTEGER</text>
<text text-anchor="start" x="485.5" y="-997.3" font-family="Times,serif" font-size="14.00">created_at :datetime(6)</text>
<text text-anchor="start" x="485.5" y="-982.3" font-family="Times,serif" font-size="14.00">updated_at :datetime(6)</text>
<text text-anchor="start" x="485.5" y="-967.3" font-family="Times,serif" font-size="14.00">student_id :INTEGER</text>
<text text-anchor="start" x="485.5" y="-952.3" font-family="Times,serif" font-size="14.00">teacher_id :INTEGER</text>
<text text-anchor="start" x="485.5" y="-937.3" font-family="Times,serif" font-size="14.00">subject_id :INTEGER</text>
<text text-anchor="start" x="485.5" y="-922.3" font-family="Times,serif" font-size="14.00">day :varchar</text>
</g>
<!-- Role -->
<g id="node7" class="node">
<title>Role</title>
<path fill="none" stroke="black" d="M203.5,-482.5C203.5,-482.5 329.5,-482.5 329.5,-482.5 335.5,-482.5 341.5,-488.5 341.5,-494.5 341.5,-494.5 341.5,-591.5 341.5,-591.5 341.5,-597.5 335.5,-603.5 329.5,-603.5 329.5,-603.5 203.5,-603.5 203.5,-603.5 197.5,-603.5 191.5,-597.5 191.5,-591.5 191.5,-591.5 191.5,-494.5 191.5,-494.5 191.5,-488.5 197.5,-482.5 203.5,-482.5"/>
<text text-anchor="middle" x="266.5" y="-588.3" font-family="Times,serif" font-size="14.00">Role</text>
<polyline fill="none" stroke="black" points="191.5,-580.5 341.5,-580.5 "/>
<text text-anchor="start" x="199.5" y="-565.3" font-family="Times,serif" font-size="14.00">id :INTEGER</text>
<text text-anchor="start" x="199.5" y="-550.3" font-family="Times,serif" font-size="14.00">name :varchar</text>
<text text-anchor="start" x="199.5" y="-535.3" font-family="Times,serif" font-size="14.00">resource_type :varchar</text>
<text text-anchor="start" x="199.5" y="-520.3" font-family="Times,serif" font-size="14.00">resource_id :INTEGER</text>
<text text-anchor="start" x="199.5" y="-505.3" font-family="Times,serif" font-size="14.00">created_at :datetime(6)</text>
<text text-anchor="start" x="199.5" y="-490.3" font-family="Times,serif" font-size="14.00">updated_at :datetime(6)</text>
</g>
<!-- Course&#45;&gt;Role -->
<g id="edge4" class="edge">
<title>Course&#45;&gt;Role</title>
<path fill="none" stroke="#1158f9" d="M467.83,-914.27C404.21,-886.78 370.3,-917.82 319.5,-877 243.07,-815.59 243.96,-692.01 253.71,-613.88"/>
<polygon fill="#1158f9" stroke="#1158f9" points="467.95,-914.32 475.11,-922.62 472.48,-916.43 477.01,-918.55 477.01,-918.55 477.01,-918.55 472.48,-916.43 478.92,-914.47 467.95,-914.32 467.95,-914.32"/>
<polygon fill="#1158f9" stroke="#1158f9" points="253.76,-613.56 259.54,-604.24 254.42,-608.6 255.07,-603.65 255.07,-603.65 255.07,-603.65 254.42,-608.6 250.61,-603.05 253.76,-613.56 253.76,-613.56"/>
</g>
<!-- Subject -->
<g id="node8" class="node">
<title>Subject</title>
<path fill="none" stroke="black" d="M340.5,-785.5C340.5,-785.5 466.5,-785.5 466.5,-785.5 472.5,-785.5 478.5,-791.5 478.5,-797.5 478.5,-797.5 478.5,-864.5 478.5,-864.5 478.5,-870.5 472.5,-876.5 466.5,-876.5 466.5,-876.5 340.5,-876.5 340.5,-876.5 334.5,-876.5 328.5,-870.5 328.5,-864.5 328.5,-864.5 328.5,-797.5 328.5,-797.5 328.5,-791.5 334.5,-785.5 340.5,-785.5"/>
<text text-anchor="middle" x="403.5" y="-861.3" font-family="Times,serif" font-size="14.00">Subject</text>
<polyline fill="none" stroke="black" points="328.5,-853.5 478.5,-853.5 "/>
<text text-anchor="start" x="336.5" y="-838.3" font-family="Times,serif" font-size="14.00">id :INTEGER</text>
<text text-anchor="start" x="336.5" y="-823.3" font-family="Times,serif" font-size="14.00">name :varchar</text>
<text text-anchor="start" x="336.5" y="-808.3" font-family="Times,serif" font-size="14.00">created_at :datetime(6)</text>
<text text-anchor="start" x="336.5" y="-793.3" font-family="Times,serif" font-size="14.00">updated_at :datetime(6)</text>
</g>
<!-- Course&#45;&gt;Subject -->
<g id="edge3" class="edge">
<title>Course&#45;&gt;Subject</title>
<path fill="none" stroke="#f1c1c6" d="M478.26,-907.01C470.51,-899.23 462.75,-891.45 455.33,-884"/>
<polygon fill="#f1c1c6" stroke="#f1c1c6" points="478.35,-907.1 482.22,-917.36 481.88,-910.64 485.41,-914.18 485.41,-914.18 485.41,-914.18 481.88,-910.64 488.6,-911.01 478.35,-907.1 478.35,-907.1"/>
<polygon fill="#f1c1c6" stroke="#f1c1c6" points="455.08,-883.76 451.21,-873.5 451.55,-880.22 448.03,-876.67 448.03,-876.67 448.03,-876.67 451.55,-880.22 444.84,-879.85 455.08,-883.76 455.08,-883.76"/>
</g>
<!-- User -->
<g id="node10" class="node">
<title>User</title>
<path fill="none" stroke="black" d="M428,-203.5C428,-203.5 609,-203.5 609,-203.5 615,-203.5 621,-209.5 621,-215.5 621,-215.5 621,-432.5 621,-432.5 621,-438.5 615,-444.5 609,-444.5 609,-444.5 428,-444.5 428,-444.5 422,-444.5 416,-438.5 416,-432.5 416,-432.5 416,-215.5 416,-215.5 416,-209.5 422,-203.5 428,-203.5"/>
<text text-anchor="middle" x="518.5" y="-429.3" font-family="Times,serif" font-size="14.00">User</text>
<polyline fill="none" stroke="black" points="416,-421.5 621,-421.5 "/>
<text text-anchor="start" x="424" y="-406.3" font-family="Times,serif" font-size="14.00">postals :varchar</text>
<text text-anchor="start" x="424" y="-391.3" font-family="Times,serif" font-size="14.00">email :varchar</text>
<text text-anchor="start" x="424" y="-376.3" font-family="Times,serif" font-size="14.00">encrypted_password :varchar</text>
<text text-anchor="start" x="424" y="-361.3" font-family="Times,serif" font-size="14.00">reset_password_token :varchar</text>
<text text-anchor="start" x="424" y="-346.3" font-family="Times,serif" font-size="14.00">reset_password_sent_at :datetime</text>
<text text-anchor="start" x="424" y="-331.3" font-family="Times,serif" font-size="14.00">remember_created_at :datetime</text>
<text text-anchor="start" x="424" y="-316.3" font-family="Times,serif" font-size="14.00">created_at :datetime(6)</text>
<text text-anchor="start" x="424" y="-301.3" font-family="Times,serif" font-size="14.00">updated_at :datetime(6)</text>
<text text-anchor="start" x="424" y="-286.3" font-family="Times,serif" font-size="14.00">ruolo :varchar</text>
<text text-anchor="start" x="424" y="-271.3" font-family="Times,serif" font-size="14.00">nome :varchar</text>
<text text-anchor="start" x="424" y="-256.3" font-family="Times,serif" font-size="14.00">descrizione :TEXT</text>
<text text-anchor="start" x="424" y="-241.3" font-family="Times,serif" font-size="14.00">provider :varchar</text>
<text text-anchor="start" x="424" y="-226.3" font-family="Times,serif" font-size="14.00">uid :varchar</text>
<text text-anchor="start" x="424" y="-211.3" font-family="Times,serif" font-size="14.00">id :INTEGER</text>
</g>
<!-- Course&#45;&gt;User -->
<g id="edge1" class="edge">
<title>Course&#45;&gt;User</title>
<path fill="none" stroke="#d1e914" d="M636.57,-942.01C676.45,-916.95 715.5,-880.12 715.5,-832 715.5,-832 715.5,-832 715.5,-542 715.5,-482.12 673.86,-431.43 628.87,-394.14"/>
<polygon fill="#d1e914" stroke="#d1e914" points="636.35,-942.15 625.46,-943.49 632.07,-944.74 627.8,-947.34 627.8,-947.34 627.8,-947.34 632.07,-944.74 630.13,-951.19 636.35,-942.15 636.35,-942.15"/>
<polygon fill="#d1e914" stroke="#d1e914" points="628.81,-394.09 623.87,-384.3 624.93,-390.95 621.04,-387.8 621.04,-387.8 621.04,-387.8 624.93,-390.95 618.21,-391.3 628.81,-394.09 628.81,-394.09"/>
<text text-anchor="middle" x="736" y="-690.8" font-family="Times,serif" font-size="14.00">teacher</text>
</g>
<!-- Course&#45;&gt;User -->
<g id="edge2" class="edge">
<title>Course&#45;&gt;User</title>
<path fill="none" stroke="#19ec8e" d="M528.1,-904.42C522.67,-881.37 518.5,-855.87 518.5,-832 518.5,-832 518.5,-832 518.5,-542 518.5,-513.78 518.5,-483.49 518.5,-454.76"/>
<polygon fill="#19ec8e" stroke="#19ec8e" points="528.1,-904.43 526.12,-915.21 529.29,-909.28 530.49,-914.14 530.49,-914.14 530.49,-914.14 529.29,-909.28 534.86,-913.06 528.1,-904.43 528.1,-904.43"/>
<polygon fill="#19ec8e" stroke="#19ec8e" points="518.5,-454.67 523,-444.67 518.5,-449.67 518.5,-444.67 518.5,-444.67 518.5,-444.67 518.5,-449.67 514,-444.67 518.5,-454.67 518.5,-454.67"/>
<text text-anchor="middle" x="539" y="-690.8" font-family="Times,serif" font-size="14.00">student</text>
</g>
<!-- Message -->
<g id="node5" class="node">
<title>Message</title>
<path fill="none" stroke="black" d="M231,-15.5C231,-15.5 368,-15.5 368,-15.5 374,-15.5 380,-21.5 380,-27.5 380,-27.5 380,-124.5 380,-124.5 380,-130.5 374,-136.5 368,-136.5 368,-136.5 231,-136.5 231,-136.5 225,-136.5 219,-130.5 219,-124.5 219,-124.5 219,-27.5 219,-27.5 219,-21.5 225,-15.5 231,-15.5"/>
<text text-anchor="middle" x="299.5" y="-121.3" font-family="Times,serif" font-size="14.00">Message</text>
<polyline fill="none" stroke="black" points="219,-113.5 380,-113.5 "/>
<text text-anchor="start" x="227" y="-98.3" font-family="Times,serif" font-size="14.00">id :INTEGER</text>
<text text-anchor="start" x="227" y="-83.3" font-family="Times,serif" font-size="14.00">testo :TEXT</text>
<text text-anchor="start" x="227" y="-68.3" font-family="Times,serif" font-size="14.00">created_at :datetime(6)</text>
<text text-anchor="start" x="227" y="-53.3" font-family="Times,serif" font-size="14.00">updated_at :datetime(6)</text>
<text text-anchor="start" x="227" y="-38.3" font-family="Times,serif" font-size="14.00">messanger_id :INTEGER</text>
<text text-anchor="start" x="227" y="-23.3" font-family="Times,serif" font-size="14.00">user_id :INTEGER</text>
</g>
<!-- Message&#45;&gt;Role -->
<g id="edge5" class="edge">
<title>Message&#45;&gt;Role</title>
<path fill="none" stroke="#c6fb7e" d="M294.55,-146.73C288.32,-234.51 277.69,-384.38 271.45,-472.19"/>
<polygon fill="#c6fb7e" stroke="#c6fb7e" points="294.56,-146.58 299.76,-136.93 294.92,-141.6 295.27,-136.61 295.27,-136.61 295.27,-136.61 294.92,-141.6 290.78,-136.29 294.56,-146.58 294.56,-146.58"/>
<polygon fill="#c6fb7e" stroke="#c6fb7e" points="271.45,-472.19 266.26,-481.84 271.1,-477.17 270.75,-482.16 270.75,-482.16 270.75,-482.16 271.1,-477.17 275.24,-482.48 271.45,-472.19 271.45,-472.19"/>
</g>
<!-- Message&#45;&gt;User -->
<g id="edge6" class="edge">
<title>Message&#45;&gt;User</title>
<path fill="none" stroke="#5af63d" d="M359.5,-144.53C371.43,-157.94 383.86,-171.92 395.5,-185 399.94,-189.99 404.48,-195.09 409.06,-200.23"/>
<polygon fill="#5af63d" stroke="#5af63d" points="359.2,-144.19 355.92,-133.72 355.87,-140.45 352.55,-136.71 352.55,-136.71 352.55,-136.71 355.87,-140.45 349.19,-139.7 359.2,-144.19 359.2,-144.19"/>
<polygon fill="#5af63d" stroke="#5af63d" points="409.15,-200.33 412.44,-210.8 412.48,-204.07 415.8,-207.8 415.8,-207.8 415.8,-207.8 412.48,-204.07 419.16,-204.81 409.15,-200.33 409.15,-200.33"/>
</g>
<!-- Message&#45;&gt;User -->
<g id="edge7" class="edge">
<title>Message&#45;&gt;User</title>
<path fill="none" stroke="#d8773a" d="M370.56,-143.89C379.13,-152.52 387.62,-161.36 395.5,-170 402.96,-178.18 410.5,-186.75 418,-195.48"/>
<polygon fill="#d8773a" stroke="#d8773a" points="370.44,-143.76 366.54,-133.51 366.9,-140.23 363.36,-136.7 363.36,-136.7 363.36,-136.7 366.9,-140.23 360.18,-139.88 370.44,-143.76 370.44,-143.76"/>
<polygon fill="#d8773a" stroke="#d8773a" points="418.08,-195.57 421.14,-206.1 421.32,-199.37 424.56,-203.18 424.56,-203.18 424.56,-203.18 421.32,-199.37 427.99,-200.26 418.08,-195.57 418.08,-195.57"/>
<text text-anchor="middle" x="435.5" y="-173.8" font-family="Times,serif" font-size="14.00">messanger</text>
</g>
<!-- Review -->
<g id="node6" class="node">
<title>Review</title>
<path fill="none" stroke="black" d="M419,-0.5C419,-0.5 548,-0.5 548,-0.5 554,-0.5 560,-6.5 560,-12.5 560,-12.5 560,-139.5 560,-139.5 560,-145.5 554,-151.5 548,-151.5 548,-151.5 419,-151.5 419,-151.5 413,-151.5 407,-145.5 407,-139.5 407,-139.5 407,-12.5 407,-12.5 407,-6.5 413,-0.5 419,-0.5"/>
<text text-anchor="middle" x="483.5" y="-136.3" font-family="Times,serif" font-size="14.00">Review</text>
<polyline fill="none" stroke="black" points="407,-128.5 560,-128.5 "/>
<text text-anchor="start" x="415" y="-113.3" font-family="Times,serif" font-size="14.00">user_id :INTEGER</text>
<text text-anchor="start" x="415" y="-98.3" font-family="Times,serif" font-size="14.00">valutazione :INTEGER</text>
<text text-anchor="start" x="415" y="-83.3" font-family="Times,serif" font-size="14.00">testo :TEXT</text>
<text text-anchor="start" x="415" y="-68.3" font-family="Times,serif" font-size="14.00">created_at :datetime(6)</text>
<text text-anchor="start" x="415" y="-53.3" font-family="Times,serif" font-size="14.00">updated_at :datetime(6)</text>
<text text-anchor="start" x="415" y="-38.3" font-family="Times,serif" font-size="14.00">reviewer_id :INTEGER</text>
<text text-anchor="start" x="415" y="-23.3" font-family="Times,serif" font-size="14.00">reviewed_id :INTEGER</text>
<text text-anchor="start" x="415" y="-8.3" font-family="Times,serif" font-size="14.00">id :INTEGER</text>
</g>
<!-- Review&#45;&gt;Role -->
<g id="edge8" class="edge">
<title>Review&#45;&gt;Role</title>
<path fill="none" stroke="#706877" d="M404.97,-159.91C402.7,-163.25 400.53,-166.62 398.5,-170 382.5,-196.65 322.86,-372.42 289.49,-472.53"/>
<polygon fill="#706877" stroke="#706877" points="405.03,-159.82 414.5,-154.28 407.93,-155.75 410.83,-151.67 410.83,-151.67 410.83,-151.67 407.93,-155.75 407.17,-149.07 405.03,-159.82 405.03,-159.82"/>
<polygon fill="#706877" stroke="#706877" points="289.4,-472.78 281.97,-480.84 287.82,-477.52 286.24,-482.27 286.24,-482.27 286.24,-482.27 287.82,-477.52 290.51,-483.69 289.4,-472.78 289.4,-472.78"/>
</g>
<!-- Review&#45;&gt;User -->
<g id="edge9" class="edge">
<title>Review&#45;&gt;User</title>
<path fill="none" stroke="#f79b42" d="M549.95,-160.73C551.27,-163.79 552.46,-166.89 553.5,-170 556.02,-177.54 557.51,-185.35 558.18,-193.27"/>
<polygon fill="#f79b42" stroke="#f79b42" points="549.93,-160.68 549.71,-149.71 547.78,-156.16 545.64,-151.64 545.64,-151.64 545.64,-151.64 547.78,-156.16 541.57,-153.57 549.93,-160.68 549.93,-160.68"/>
<polygon fill="#f79b42" stroke="#f79b42" points="558.18,-193.36 554.09,-203.53 558.38,-198.35 558.59,-203.35 558.59,-203.35 558.59,-203.35 558.38,-198.35 563.09,-203.16 558.18,-193.36 558.18,-193.36"/>
</g>
<!-- Review&#45;&gt;User -->
<g id="edge10" class="edge">
<title>Review&#45;&gt;User</title>
<path fill="none" stroke="#e16f85" d="M564.21,-160.36C565.8,-163.53 567.23,-166.74 568.5,-170 571.38,-177.43 573,-185.1 573.61,-192.86"/>
<polygon fill="#e16f85" stroke="#e16f85" points="564.2,-160.35 563.32,-149.42 561.79,-155.97 559.38,-151.59 559.38,-151.59 559.38,-151.59 561.79,-155.97 555.44,-153.76 564.2,-160.35 564.2,-160.35"/>
<polygon fill="#e16f85" stroke="#e16f85" points="573.61,-193.12 569.34,-203.22 573.72,-198.12 573.84,-203.12 573.84,-203.12 573.84,-203.12 573.72,-198.12 578.33,-203.02 573.61,-193.12 573.61,-193.12"/>
<text text-anchor="middle" x="596" y="-173.8" font-family="Times,serif" font-size="14.00">reviewer</text>
</g>
<!-- Role&#45;&gt;User -->
<g id="edge11" class="edge">
<title>Role&#45;&gt;User</title>
<path fill="none" stroke="#6f3fb3" d="M350.4,-496.36C365.97,-486.49 381.68,-475.53 395.5,-464 400.29,-460 405.06,-455.82 409.78,-451.49"/>
<polygon fill="#6f3fb3" stroke="#6f3fb3" points="350.26,-496.44 339.39,-497.9 346.01,-499.08 341.77,-501.73 341.77,-501.73 341.77,-501.73 346.01,-499.08 344.14,-505.55 350.26,-496.44 350.26,-496.44"/>
<polygon fill="#6f3fb3" stroke="#6f3fb3" points="409.86,-451.42 420.24,-447.88 413.52,-448.01 417.17,-444.59 417.17,-444.59 417.17,-444.59 413.52,-448.01 414.09,-441.3 409.86,-451.42 409.86,-451.42"/>
</g>
<!-- Resource -->
<g id="node11" class="node">
<title>Resource</title>
<ellipse fill="none" stroke="black" cx="183.5" cy="-324" rx="44.69" ry="18"/>
<text text-anchor="middle" x="183.5" y="-320.3" font-family="Times,serif" font-size="14.00">Resource</text>
</g>
<!-- Role&#45;&gt;Resource -->
<g id="edge12" class="edge">
<title>Role&#45;&gt;Resource</title>
<path fill="none" stroke="#60ceee" d="M240.13,-473.06C224.3,-431.66 205.05,-381.35 193.57,-351.32"/>
<polygon fill="#60ceee" stroke="#60ceee" points="240.14,-473.08 239.51,-484.02 241.92,-477.75 243.71,-482.42 243.71,-482.42 243.71,-482.42 241.92,-477.75 247.91,-480.81 240.14,-473.08 240.14,-473.08"/>
<polygon fill="#60ceee" stroke="#60ceee" points="193.56,-351.3 194.19,-340.35 191.77,-346.63 189.99,-341.96 189.99,-341.96 189.99,-341.96 191.77,-346.63 185.78,-343.57 193.56,-351.3 193.56,-351.3"/>
</g>
<!-- Subject&#45;&gt;Role -->
<g id="edge15" class="edge">
<title>Subject&#45;&gt;Role</title>
<path fill="none" stroke="#75fba5" d="M320.21,-786.25C306.58,-775.51 294.12,-762.77 285.5,-748 262.07,-707.84 257.61,-655.5 258.86,-613.89"/>
<polygon fill="#75fba5" stroke="#75fba5" points="320.35,-786.35 325.66,-795.94 324.35,-789.34 328.35,-792.34 328.35,-792.34 328.35,-792.34 324.35,-789.34 331.05,-788.73 320.35,-786.35 320.35,-786.35"/>
<polygon fill="#75fba5" stroke="#75fba5" points="258.86,-613.82 263.78,-604.02 259.07,-608.83 259.28,-603.83 259.28,-603.83 259.28,-603.83 259.07,-608.83 254.78,-603.65 258.86,-613.82 258.86,-613.82"/>
</g>
<!-- Teach -->
<g id="node9" class="node">
<title>Teach</title>
<path fill="none" stroke="black" d="M306.5,-641.5C306.5,-641.5 432.5,-641.5 432.5,-641.5 438.5,-641.5 444.5,-647.5 444.5,-653.5 444.5,-653.5 444.5,-735.5 444.5,-735.5 444.5,-741.5 438.5,-747.5 432.5,-747.5 432.5,-747.5 306.5,-747.5 306.5,-747.5 300.5,-747.5 294.5,-741.5 294.5,-735.5 294.5,-735.5 294.5,-653.5 294.5,-653.5 294.5,-647.5 300.5,-641.5 306.5,-641.5"/>
<text text-anchor="middle" x="369.5" y="-732.3" font-family="Times,serif" font-size="14.00">Teach</text>
<polyline fill="none" stroke="black" points="294.5,-724.5 444.5,-724.5 "/>
<text text-anchor="start" x="302.5" y="-709.3" font-family="Times,serif" font-size="14.00">id :INTEGER</text>
<text text-anchor="start" x="302.5" y="-694.3" font-family="Times,serif" font-size="14.00">user_id :INTEGER</text>
<text text-anchor="start" x="302.5" y="-679.3" font-family="Times,serif" font-size="14.00">subject_id :INTEGER</text>
<text text-anchor="start" x="302.5" y="-664.3" font-family="Times,serif" font-size="14.00">created_at :datetime(6)</text>
<text text-anchor="start" x="302.5" y="-649.3" font-family="Times,serif" font-size="14.00">updated_at :datetime(6)</text>
</g>
<!-- Subject&#45;&gt;Teach -->
<g id="edge13" class="edge">
<title>Subject&#45;&gt;Teach</title>
<path fill="none" stroke="#c5a790" d="M389.7,-775.4C388.21,-769.5 386.68,-763.48 385.17,-757.5"/>
<polygon fill="#c5a790" stroke="#c5a790" points="389.73,-775.52 387.82,-786.32 390.95,-780.37 392.18,-785.21 392.18,-785.21 392.18,-785.21 390.95,-780.37 396.54,-784.11 389.73,-775.52 389.73,-775.52"/>
<polygon fill="#c5a790" stroke="#c5a790" points="385.11,-757.24 387.02,-746.44 383.88,-752.39 382.66,-747.54 382.66,-747.54 382.66,-747.54 383.88,-752.39 378.29,-748.64 385.11,-757.24 385.11,-757.24"/>
</g>
<!-- Subject&#45;&gt;User -->
<g id="edge14" class="edge">
<title>Subject&#45;&gt;User</title>
<path fill="none" stroke="#e1d1b3" d="M440.17,-776.55C445.29,-767.33 449.99,-757.61 453.5,-748 472.67,-695.47 491.77,-558.48 504.25,-454.51"/>
<polygon fill="#e1d1b3" stroke="#e1d1b3" points="440.16,-776.56 431.26,-782.97 437.66,-780.89 435.16,-785.22 435.16,-785.22 435.16,-785.22 437.66,-780.89 439.05,-787.47 440.16,-776.56 440.16,-776.56"/>
<polygon fill="#e1d1b3" stroke="#e1d1b3" points="504.26,-454.48 509.91,-445.09 504.85,-449.52 505.44,-444.55 505.44,-444.55 505.44,-444.55 504.85,-449.52 500.97,-444.02 504.26,-454.48 504.26,-454.48"/>
</g>
<!-- Teach&#45;&gt;Role -->
<g id="edge17" class="edge">
<title>Teach&#45;&gt;Role</title>
<path fill="none" stroke="#30fec9" d="M327.72,-632.85C323.05,-626.09 318.28,-619.16 313.56,-612.3"/>
<polygon fill="#30fec9" stroke="#30fec9" points="327.8,-632.98 329.77,-643.77 330.64,-637.09 333.48,-641.21 333.48,-641.21 333.48,-641.21 330.64,-637.09 337.18,-638.66 327.8,-632.98 327.8,-632.98"/>
<polygon fill="#30fec9" stroke="#30fec9" points="313.29,-611.91 311.32,-601.12 310.45,-607.79 307.62,-603.68 307.62,-603.68 307.62,-603.68 310.45,-607.79 303.91,-606.23 313.29,-611.91 313.29,-611.91"/>
</g>
<!-- Teach&#45;&gt;User -->
<g id="edge16" class="edge">
<title>Teach&#45;&gt;User</title>
<path fill="none" stroke="#d65c7c" d="M392.66,-631.43C410.23,-584.88 435.24,-519.69 458.5,-463 459.74,-459.98 461,-456.92 462.28,-453.84"/>
<polygon fill="#d65c7c" stroke="#d65c7c" points="392.56,-631.72 384.82,-639.49 390.79,-636.4 389.03,-641.07 389.03,-641.07 389.03,-641.07 390.79,-636.4 393.24,-642.66 392.56,-631.72 392.56,-631.72"/>
<polygon fill="#d65c7c" stroke="#d65c7c" points="462.31,-453.78 470.31,-446.28 464.23,-449.16 466.16,-444.55 466.16,-444.55 466.16,-444.55 464.23,-449.16 462.01,-442.82 462.31,-453.78 462.31,-453.78"/>
</g>
<!-- User&#45;&gt;Course -->
<g id="edge18" class="edge">
<title>User&#45;&gt;Course</title>
<path fill="none" stroke="#3a6235" d="M573.75,-454.48C581.84,-482.81 587.5,-513 587.5,-542 587.5,-832 587.5,-832 587.5,-832 587.5,-855.91 583.2,-881.41 577.62,-904.46"/>
<polygon fill="#3a6235" stroke="#3a6235" points="573.65,-454.13 575.11,-443.26 572.22,-449.34 570.8,-444.54 570.8,-444.54 570.8,-444.54 572.22,-449.34 566.48,-445.83 573.65,-454.13 573.65,-454.13"/>
<polygon fill="#3a6235" stroke="#3a6235" points="577.62,-904.49 570.8,-913.07 576.39,-909.33 575.16,-914.18 575.16,-914.18 575.16,-914.18 576.39,-909.33 579.52,-915.28 577.62,-904.49 577.62,-904.49"/>
</g>
<!-- User&#45;&gt;Course -->
<g id="edge21" class="edge">
<title>User&#45;&gt;Course</title>
<path fill="none" stroke="#7cfcb9" d="M612,-454.05C624.72,-481.77 633.5,-511.83 633.5,-542 633.5,-832 633.5,-832 633.5,-832 633.5,-857.67 624.15,-883.15 611.81,-905.61"/>
<polygon fill="#7cfcb9" stroke="#7cfcb9" points="611.87,-453.76 611.61,-442.8 609.71,-449.25 607.55,-444.74 607.55,-444.74 607.55,-444.74 609.71,-449.25 603.49,-446.68 611.87,-453.76 611.87,-453.76"/>
<polygon fill="#7cfcb9" stroke="#7cfcb9" points="611.75,-905.72 602.85,-912.14 609.25,-910.05 606.75,-914.38 606.75,-914.38 606.75,-914.38 609.25,-910.05 610.65,-916.63 611.75,-905.72 611.75,-905.72"/>
<text text-anchor="middle" x="656.5" y="-690.8" font-family="Times,serif" font-size="14.00">teachers</text>
</g>
<!-- User&#45;&gt;Message -->
<g id="edge24" class="edge">
<title>User&#45;&gt;Message</title>
<path fill="none" stroke="#8891c2" d="M407.42,-265.81C375.64,-244.44 343.87,-217.36 322.5,-185 314.93,-173.54 309.8,-160.04 306.33,-146.54"/>
<polygon fill="#8891c2" stroke="#8891c2" points="407.57,-265.91 413.46,-275.16 411.75,-268.65 415.93,-271.4 415.93,-271.4 415.93,-271.4 411.75,-268.65 418.4,-267.63 407.57,-265.91 407.57,-265.91"/>
<polygon fill="#8891c2" stroke="#8891c2" points="306.32,-146.49 308.48,-135.74 305.21,-141.61 304.09,-136.74 304.09,-136.74 304.09,-136.74 305.21,-141.61 299.7,-137.74 306.32,-146.49 306.32,-146.49"/>
<text text-anchor="middle" x="350" y="-173.8" font-family="Times,serif" font-size="14.00">messaged</text>
</g>
<!-- User&#45;&gt;Review -->
<g id="edge23" class="edge">
<title>User&#45;&gt;Review</title>
<path fill="none" stroke="#1a7b54" d="M498.67,-193.24C498.27,-190.47 497.88,-187.72 497.5,-185 496.43,-177.43 495.35,-169.56 494.29,-161.67"/>
<polygon fill="#1a7b54" stroke="#1a7b54" points="498.7,-193.45 495.67,-203.99 499.41,-198.4 500.13,-203.35 500.13,-203.35 500.13,-203.35 499.41,-198.4 504.58,-202.7 498.7,-193.45 498.7,-193.45"/>
<polygon fill="#1a7b54" stroke="#1a7b54" points="494.28,-161.6 497.42,-151.09 493.62,-156.64 492.96,-151.68 492.96,-151.68 492.96,-151.68 493.62,-156.64 488.5,-152.28 494.28,-161.6 494.28,-161.6"/>
<text text-anchor="middle" x="523.5" y="-173.8" font-family="Times,serif" font-size="14.00">reviewed</text>
</g>
<!-- User&#45;&gt;User -->
<g id="edge22" class="edge">
<title>User&#45;&gt;User</title>
<path fill="none" stroke="#0c3bcf" d="M630.21,-340.65C635.74,-336.5 639,-330.95 639,-324 639,-317.05 635.74,-311.5 630.21,-307.35"/>
<polygon fill="#0c3bcf" stroke="#0c3bcf" points="630.14,-340.68 619.2,-341.48 625.74,-343.06 621.34,-345.44 621.34,-345.44 621.34,-345.44 625.74,-343.06 623.48,-349.4 630.14,-340.68 630.14,-340.68"/>
<polygon fill="#0c3bcf" stroke="#0c3bcf" points="630.14,-307.32 623.48,-298.6 625.74,-304.94 621.34,-302.56 621.34,-302.56 621.34,-302.56 625.74,-304.94 619.2,-306.52 630.14,-307.32 630.14,-307.32"/>
<text text-anchor="middle" x="662" y="-320.3" font-family="Times,serif" font-size="14.00">students</text>
</g>
<!-- ActiveStorage::Attachment -->
<g id="node12" class="node">
<title>ActiveStorage::Attachment</title>
<ellipse fill="none" stroke="black" cx="688.5" cy="-76" rx="110.48" ry="18"/>
<text text-anchor="middle" x="688.5" y="-72.3" font-family="Times,serif" font-size="14.00">ActiveStorage::Attachment</text>
</g>
<!-- User&#45;&gt;ActiveStorage::Attachment -->
<g id="edge19" class="edge">
<title>User&#45;&gt;ActiveStorage::Attachment</title>
<path fill="none" stroke="#718e68" d="M617.69,-194.92C620,-191.59 622.28,-188.28 624.5,-185 642.88,-157.84 661.77,-125.28 674.22,-103.07"/>
<polygon fill="#718e68" stroke="#718e68" points="617.62,-195.02 608.19,-200.62 614.74,-199.11 611.87,-203.21 611.87,-203.21 611.87,-203.21 614.74,-199.11 615.55,-205.79 617.62,-195.02 617.62,-195.02"/>
<polygon fill="#718e68" stroke="#718e68" points="674.28,-102.96 683.07,-96.41 676.71,-98.59 679.14,-94.23 679.14,-94.23 679.14,-94.23 676.71,-98.59 675.2,-92.04 674.28,-102.96 674.28,-102.96"/>
<text text-anchor="middle" x="685" y="-173.8" font-family="Times,serif" font-size="14.00">avatar_attachment</text>
</g>
<!-- ActiveStorage::Blob -->
<g id="node13" class="node">
<title>ActiveStorage::Blob</title>
<ellipse fill="none" stroke="black" cx="902.5" cy="-76" rx="85.59" ry="18"/>
<text text-anchor="middle" x="902.5" y="-72.3" font-family="Times,serif" font-size="14.00">ActiveStorage::Blob</text>
</g>
<!-- User&#45;&gt;ActiveStorage::Blob -->
<g id="edge20" class="edge">
<title>User&#45;&gt;ActiveStorage::Blob</title>
<path fill="none" stroke="#7f3833" d="M630.21,-261.56C684.75,-230.4 750.69,-190.97 807.5,-152 831.2,-135.74 856.69,-115.45 875.29,-100.07"/>
<polygon fill="#7f3833" stroke="#7f3833" points="629.9,-261.74 618.98,-262.78 625.56,-264.21 621.21,-266.69 621.21,-266.69 621.21,-266.69 625.56,-264.21 623.44,-270.6 629.9,-261.74 629.9,-261.74"/>
<polygon fill="#7f3833" stroke="#7f3833" points="875.39,-100 885.95,-97.06 879.23,-96.8 883.07,-93.6 883.07,-93.6 883.07,-93.6 879.23,-96.8 880.19,-90.14 875.39,-100 875.39,-100"/>
<text text-anchor="middle" x="810" y="-173.8" font-family="Times,serif" font-size="14.00">avatar_blob</text>
</g>
</g>
</svg>
