<?xml version="1.0" encoding="UTF-8" standalone="no"?>
<!DOCTYPE svg PUBLIC "-//W3C//DTD SVG 1.1//EN"
 "http://www.w3.org/Graphics/SVG/1.1/DTD/svg11.dtd">
<!-- Generated by graphviz version 2.49.1 (20210923.0004)
 -->
<!-- Title: models_diagram Pages: 1 -->
<svg width="997pt" height="1044pt"
 viewBox="0.00 0.00 996.79 1044.00" xmlns="http://www.w3.org/2000/svg" xmlns:xlink="http://www.w3.org/1999/xlink">
<g id="graph0" class="graph" transform="scale(1 1) rotate(0) translate(4 1040)">
<title>models_diagram</title>
<polygon fill="transparent" stroke="transparent" points="-4,4 -4,-1040 992.79,-1040 992.79,4 -4,4"/>
<!-- _diagram_info -->
<g id="node1" class="node">
<title>_diagram_info</title>
<text text-anchor="start" x="8" y="-999.6" font-family="Times,serif" font-size="13.00">Models diagram</text>
<text text-anchor="start" x="8" y="-985.6" font-family="Times,serif" font-size="13.00">Date: Apr 19 2022 &#45; 14:46</text>
<text text-anchor="start" x="8" y="-971.6" font-family="Times,serif" font-size="13.00">Migration version: 20220410181456</text>
<text text-anchor="start" x="8" y="-957.6" font-family="Times,serif" font-size="13.00">Generated by RailRoady 1.6.0</text>
<text text-anchor="start" x="8" y="-943.6" font-family="Times,serif" font-size="13.00">http://railroady.prestonlee.com</text>
</g>
<!-- Ability -->
<g id="node2" class="node">
<title>Ability</title>
<polygon fill="none" stroke="black" points="226,-952 226,-998 282,-998 282,-952 226,-952"/>
<text text-anchor="middle" x="254" y="-982.8" font-family="Times,serif" font-size="14.00">Ability</text>
<polyline fill="none" stroke="black" points="226,-975 282,-975 "/>
<text text-anchor="middle" x="254" y="-959.8" font-family="Times,serif" font-size="14.00"> </text>
</g>
<!-- ApplicationRecord -->
<g id="node3" class="node">
<title>ApplicationRecord</title>
<ellipse fill="none" stroke="black" cx="380" cy="-975" rx="79.89" ry="18"/>
<text text-anchor="middle" x="380" y="-971.3" font-family="Times,serif" font-size="14.00">ApplicationRecord</text>
</g>
<!-- Course -->
<g id="node4" class="node">
<title>Course</title>
<path fill="none" stroke="black" d="M490,-914.5C490,-914.5 616,-914.5 616,-914.5 622,-914.5 628,-920.5 628,-926.5 628,-926.5 628,-1023.5 628,-1023.5 628,-1029.5 622,-1035.5 616,-1035.5 616,-1035.5 490,-1035.5 490,-1035.5 484,-1035.5 478,-1029.5 478,-1023.5 478,-1023.5 478,-926.5 478,-926.5 478,-920.5 484,-914.5 490,-914.5"/>
<text text-anchor="middle" x="553" y="-1020.3" font-family="Times,serif" font-size="14.00">Course</text>
<polyline fill="none" stroke="black" points="478,-1012.5 628,-1012.5 "/>
<text text-anchor="start" x="486" y="-997.3" font-family="Times,serif" font-size="14.00">id :INTEGER</text>
<text text-anchor="start" x="486" y="-982.3" font-family="Times,serif" font-size="14.00">created_at :datetime(6)</text>
<text text-anchor="start" x="486" y="-967.3" font-family="Times,serif" font-size="14.00">updated_at :datetime(6)</text>
<text text-anchor="start" x="486" y="-952.3" font-family="Times,serif" font-size="14.00">student_id :INTEGER</text>
<text text-anchor="start" x="486" y="-937.3" font-family="Times,serif" font-size="14.00">teacher_id :INTEGER</text>
<text text-anchor="start" x="486" y="-922.3" font-family="Times,serif" font-size="14.00">subject_id :INTEGER</text>
</g>
<!-- Role -->
<g id="node7" class="node">
<title>Role</title>
<path fill="none" stroke="black" d="M204,-482.5C204,-482.5 330,-482.5 330,-482.5 336,-482.5 342,-488.5 342,-494.5 342,-494.5 342,-591.5 342,-591.5 342,-597.5 336,-603.5 330,-603.5 330,-603.5 204,-603.5 204,-603.5 198,-603.5 192,-597.5 192,-591.5 192,-591.5 192,-494.5 192,-494.5 192,-488.5 198,-482.5 204,-482.5"/>
<text text-anchor="middle" x="267" y="-588.3" font-family="Times,serif" font-size="14.00">Role</text>
<polyline fill="none" stroke="black" points="192,-580.5 342,-580.5 "/>
<text text-anchor="start" x="200" y="-565.3" font-family="Times,serif" font-size="14.00">id :INTEGER</text>
<text text-anchor="start" x="200" y="-550.3" font-family="Times,serif" font-size="14.00">name :varchar</text>
<text text-anchor="start" x="200" y="-535.3" font-family="Times,serif" font-size="14.00">resource_type :varchar</text>
<text text-anchor="start" x="200" y="-520.3" font-family="Times,serif" font-size="14.00">resource_id :INTEGER</text>
<text text-anchor="start" x="200" y="-505.3" font-family="Times,serif" font-size="14.00">created_at :datetime(6)</text>
<text text-anchor="start" x="200" y="-490.3" font-family="Times,serif" font-size="14.00">updated_at :datetime(6)</text>
</g>
<!-- Course&#45;&gt;Role -->
<g id="edge4" class="edge">
<title>Course&#45;&gt;Role</title>
<path fill="none" stroke="#d6de9c" d="M468.47,-914.31C403.95,-888.37 370.8,-917.82 320,-877 243.57,-815.59 244.46,-692.01 254.21,-613.88"/>
<polygon fill="#d6de9c" stroke="#d6de9c" points="468.61,-914.37 475.99,-922.48 473.2,-916.36 477.78,-918.35 477.78,-918.35 477.78,-918.35 473.2,-916.36 479.57,-914.22 468.61,-914.37 468.61,-914.37"/>
<polygon fill="#d6de9c" stroke="#d6de9c" points="254.26,-613.56 260.04,-604.24 254.92,-608.6 255.57,-603.65 255.57,-603.65 255.57,-603.65 254.92,-608.6 251.11,-603.05 254.26,-613.56 254.26,-613.56"/>
</g>
<!-- Subject -->
<g id="node8" class="node">
<title>Subject</title>
<path fill="none" stroke="black" d="M341,-785.5C341,-785.5 467,-785.5 467,-785.5 473,-785.5 479,-791.5 479,-797.5 479,-797.5 479,-864.5 479,-864.5 479,-870.5 473,-876.5 467,-876.5 467,-876.5 341,-876.5 341,-876.5 335,-876.5 329,-870.5 329,-864.5 329,-864.5 329,-797.5 329,-797.5 329,-791.5 335,-785.5 341,-785.5"/>
<text text-anchor="middle" x="404" y="-861.3" font-family="Times,serif" font-size="14.00">Subject</text>
<polyline fill="none" stroke="black" points="329,-853.5 479,-853.5 "/>
<text text-anchor="start" x="337" y="-838.3" font-family="Times,serif" font-size="14.00">id :INTEGER</text>
<text text-anchor="start" x="337" y="-823.3" font-family="Times,serif" font-size="14.00">name :varchar</text>
<text text-anchor="start" x="337" y="-808.3" font-family="Times,serif" font-size="14.00">created_at :datetime(6)</text>
<text text-anchor="start" x="337" y="-793.3" font-family="Times,serif" font-size="14.00">updated_at :datetime(6)</text>
</g>
<!-- Course&#45;&gt;Subject -->
<g id="edge3" class="edge">
<title>Course&#45;&gt;Subject</title>
<path fill="none" stroke="#747b87" d="M482.77,-907.07C474.48,-899.17 466.12,-891.2 458.1,-883.55"/>
<polygon fill="#747b87" stroke="#747b87" points="483,-907.29 487.14,-917.45 486.62,-910.74 490.24,-914.19 490.24,-914.19 490.24,-914.19 486.62,-910.74 493.35,-910.93 483,-907.29 483,-907.29"/>
<polygon fill="#747b87" stroke="#747b87" points="458.08,-883.53 453.94,-873.38 454.46,-880.09 450.84,-876.64 450.84,-876.64 450.84,-876.64 454.46,-880.09 447.73,-879.89 458.08,-883.53 458.08,-883.53"/>
</g>
<!-- User -->
<g id="node10" class="node">
<title>User</title>
<path fill="none" stroke="black" d="M428.5,-203.5C428.5,-203.5 609.5,-203.5 609.5,-203.5 615.5,-203.5 621.5,-209.5 621.5,-215.5 621.5,-215.5 621.5,-432.5 621.5,-432.5 621.5,-438.5 615.5,-444.5 609.5,-444.5 609.5,-444.5 428.5,-444.5 428.5,-444.5 422.5,-444.5 416.5,-438.5 416.5,-432.5 416.5,-432.5 416.5,-215.5 416.5,-215.5 416.5,-209.5 422.5,-203.5 428.5,-203.5"/>
<text text-anchor="middle" x="519" y="-429.3" font-family="Times,serif" font-size="14.00">User</text>
<polyline fill="none" stroke="black" points="416.5,-421.5 621.5,-421.5 "/>
<text text-anchor="start" x="424.5" y="-406.3" font-family="Times,serif" font-size="14.00">postals :varchar</text>
<text text-anchor="start" x="424.5" y="-391.3" font-family="Times,serif" font-size="14.00">email :varchar</text>
<text text-anchor="start" x="424.5" y="-376.3" font-family="Times,serif" font-size="14.00">encrypted_password :varchar</text>
<text text-anchor="start" x="424.5" y="-361.3" font-family="Times,serif" font-size="14.00">reset_password_token :varchar</text>
<text text-anchor="start" x="424.5" y="-346.3" font-family="Times,serif" font-size="14.00">reset_password_sent_at :datetime</text>
<text text-anchor="start" x="424.5" y="-331.3" font-family="Times,serif" font-size="14.00">remember_created_at :datetime</text>
<text text-anchor="start" x="424.5" y="-316.3" font-family="Times,serif" font-size="14.00">created_at :datetime(6)</text>
<text text-anchor="start" x="424.5" y="-301.3" font-family="Times,serif" font-size="14.00">updated_at :datetime(6)</text>
<text text-anchor="start" x="424.5" y="-286.3" font-family="Times,serif" font-size="14.00">ruolo :varchar</text>
<text text-anchor="start" x="424.5" y="-271.3" font-family="Times,serif" font-size="14.00">nome :varchar</text>
<text text-anchor="start" x="424.5" y="-256.3" font-family="Times,serif" font-size="14.00">descrizione :TEXT</text>
<text text-anchor="start" x="424.5" y="-241.3" font-family="Times,serif" font-size="14.00">provider :varchar</text>
<text text-anchor="start" x="424.5" y="-226.3" font-family="Times,serif" font-size="14.00">uid :varchar</text>
<text text-anchor="start" x="424.5" y="-211.3" font-family="Times,serif" font-size="14.00">id :INTEGER</text>
</g>
<!-- Course&#45;&gt;User -->
<g id="edge1" class="edge">
<title>Course&#45;&gt;User</title>
<path fill="none" stroke="#8d094c" d="M637.07,-937.53C676.95,-914.04 716,-879.03 716,-832 716,-832 716,-832 716,-542 716,-482.12 674.36,-431.43 629.37,-394.14"/>
<polygon fill="#8d094c" stroke="#8d094c" points="636.99,-937.58 626.07,-938.6 632.64,-940.05 628.3,-942.52 628.3,-942.52 628.3,-942.52 632.64,-940.05 630.52,-946.43 636.99,-937.58 636.99,-937.58"/>
<polygon fill="#8d094c" stroke="#8d094c" points="629.31,-394.09 624.37,-384.3 625.43,-390.95 621.54,-387.8 621.54,-387.8 621.54,-387.8 625.43,-390.95 618.71,-391.3 629.31,-394.09 629.31,-394.09"/>
<text text-anchor="middle" x="736.5" y="-690.8" font-family="Times,serif" font-size="14.00">teacher</text>
</g>
<!-- Course&#45;&gt;User -->
<g id="edge2" class="edge">
<title>Course&#45;&gt;User</title>
<path fill="none" stroke="#b6084e" d="M529.48,-904.37C523.63,-881.58 519,-855.96 519,-832 519,-832 519,-832 519,-542 519,-513.78 519,-483.49 519,-454.76"/>
<polygon fill="#b6084e" stroke="#b6084e" points="529.55,-904.64 527.8,-915.46 530.85,-909.46 532.15,-914.29 532.15,-914.29 532.15,-914.29 530.85,-909.46 536.49,-913.13 529.55,-904.64 529.55,-904.64"/>
<polygon fill="#b6084e" stroke="#b6084e" points="519,-454.67 523.5,-444.67 519,-449.67 519,-444.67 519,-444.67 519,-444.67 519,-449.67 514.5,-444.67 519,-454.67 519,-454.67"/>
<text text-anchor="middle" x="539.5" y="-690.8" font-family="Times,serif" font-size="14.00">student</text>
</g>
<!-- Message -->
<g id="node5" class="node">
<title>Message</title>
<path fill="none" stroke="black" d="M231.5,-15.5C231.5,-15.5 368.5,-15.5 368.5,-15.5 374.5,-15.5 380.5,-21.5 380.5,-27.5 380.5,-27.5 380.5,-124.5 380.5,-124.5 380.5,-130.5 374.5,-136.5 368.5,-136.5 368.5,-136.5 231.5,-136.5 231.5,-136.5 225.5,-136.5 219.5,-130.5 219.5,-124.5 219.5,-124.5 219.5,-27.5 219.5,-27.5 219.5,-21.5 225.5,-15.5 231.5,-15.5"/>
<text text-anchor="middle" x="300" y="-121.3" font-family="Times,serif" font-size="14.00">Message</text>
<polyline fill="none" stroke="black" points="219.5,-113.5 380.5,-113.5 "/>
<text text-anchor="start" x="227.5" y="-98.3" font-family="Times,serif" font-size="14.00">id :INTEGER</text>
<text text-anchor="start" x="227.5" y="-83.3" font-family="Times,serif" font-size="14.00">testo :TEXT</text>
<text text-anchor="start" x="227.5" y="-68.3" font-family="Times,serif" font-size="14.00">created_at :datetime(6)</text>
<text text-anchor="start" x="227.5" y="-53.3" font-family="Times,serif" font-size="14.00">updated_at :datetime(6)</text>
<text text-anchor="start" x="227.5" y="-38.3" font-family="Times,serif" font-size="14.00">messanger_id :INTEGER</text>
<text text-anchor="start" x="227.5" y="-23.3" font-family="Times,serif" font-size="14.00">user_id :INTEGER</text>
</g>
<!-- Message&#45;&gt;Role -->
<g id="edge5" class="edge">
<title>Message&#45;&gt;Role</title>
<path fill="none" stroke="#dea334" d="M295.05,-146.73C288.82,-234.51 278.19,-384.38 271.95,-472.19"/>
<polygon fill="#dea334" stroke="#dea334" points="295.06,-146.58 300.26,-136.93 295.42,-141.6 295.77,-136.61 295.77,-136.61 295.77,-136.61 295.42,-141.6 291.28,-136.29 295.06,-146.58 295.06,-146.58"/>
<polygon fill="#dea334" stroke="#dea334" points="271.95,-472.19 266.76,-481.84 271.6,-477.17 271.25,-482.16 271.25,-482.16 271.25,-482.16 271.6,-477.17 275.74,-482.48 271.95,-472.19 271.95,-472.19"/>
</g>
<!-- Message&#45;&gt;User -->
<g id="edge6" class="edge">
<title>Message&#45;&gt;User</title>
<path fill="none" stroke="#c5ac3e" d="M360,-144.53C371.93,-157.94 384.36,-171.92 396,-185 400.44,-189.99 404.98,-195.09 409.56,-200.23"/>
<polygon fill="#c5ac3e" stroke="#c5ac3e" points="359.7,-144.19 356.42,-133.72 356.37,-140.45 353.05,-136.71 353.05,-136.71 353.05,-136.71 356.37,-140.45 349.69,-139.7 359.7,-144.19 359.7,-144.19"/>
<polygon fill="#c5ac3e" stroke="#c5ac3e" points="409.65,-200.33 412.94,-210.8 412.98,-204.07 416.3,-207.8 416.3,-207.8 416.3,-207.8 412.98,-204.07 419.66,-204.81 409.65,-200.33 409.65,-200.33"/>
</g>
<!-- Message&#45;&gt;User -->
<g id="edge7" class="edge">
<title>Message&#45;&gt;User</title>
<path fill="none" stroke="#eba5b6" d="M371.06,-143.89C379.63,-152.52 388.12,-161.36 396,-170 403.46,-178.18 411,-186.75 418.5,-195.48"/>
<polygon fill="#eba5b6" stroke="#eba5b6" points="370.94,-143.76 367.04,-133.51 367.4,-140.23 363.86,-136.7 363.86,-136.7 363.86,-136.7 367.4,-140.23 360.68,-139.88 370.94,-143.76 370.94,-143.76"/>
<polygon fill="#eba5b6" stroke="#eba5b6" points="418.58,-195.57 421.64,-206.1 421.82,-199.37 425.06,-203.18 425.06,-203.18 425.06,-203.18 421.82,-199.37 428.49,-200.26 418.58,-195.57 418.58,-195.57"/>
<text text-anchor="middle" x="436" y="-173.8" font-family="Times,serif" font-size="14.00">messanger</text>
</g>
<!-- Review -->
<g id="node6" class="node">
<title>Review</title>
<path fill="none" stroke="black" d="M419.5,-0.5C419.5,-0.5 548.5,-0.5 548.5,-0.5 554.5,-0.5 560.5,-6.5 560.5,-12.5 560.5,-12.5 560.5,-139.5 560.5,-139.5 560.5,-145.5 554.5,-151.5 548.5,-151.5 548.5,-151.5 419.5,-151.5 419.5,-151.5 413.5,-151.5 407.5,-145.5 407.5,-139.5 407.5,-139.5 407.5,-12.5 407.5,-12.5 407.5,-6.5 413.5,-0.5 419.5,-0.5"/>
<text text-anchor="middle" x="484" y="-136.3" font-family="Times,serif" font-size="14.00">Review</text>
<polyline fill="none" stroke="black" points="407.5,-128.5 560.5,-128.5 "/>
<text text-anchor="start" x="415.5" y="-113.3" font-family="Times,serif" font-size="14.00">user_id :INTEGER</text>
<text text-anchor="start" x="415.5" y="-98.3" font-family="Times,serif" font-size="14.00">valutazione :INTEGER</text>
<text text-anchor="start" x="415.5" y="-83.3" font-family="Times,serif" font-size="14.00">testo :TEXT</text>
<text text-anchor="start" x="415.5" y="-68.3" font-family="Times,serif" font-size="14.00">created_at :datetime(6)</text>
<text text-anchor="start" x="415.5" y="-53.3" font-family="Times,serif" font-size="14.00">updated_at :datetime(6)</text>
<text text-anchor="start" x="415.5" y="-38.3" font-family="Times,serif" font-size="14.00">reviewer_id :INTEGER</text>
<text text-anchor="start" x="415.5" y="-23.3" font-family="Times,serif" font-size="14.00">reviewed_id :INTEGER</text>
<text text-anchor="start" x="415.5" y="-8.3" font-family="Times,serif" font-size="14.00">id :INTEGER</text>
</g>
<!-- Review&#45;&gt;Role -->
<g id="edge8" class="edge">
<title>Review&#45;&gt;Role</title>
<path fill="none" stroke="#724d83" d="M405.47,-159.91C403.2,-163.25 401.03,-166.62 399,-170 383,-196.65 323.36,-372.42 289.99,-472.53"/>
<polygon fill="#724d83" stroke="#724d83" points="405.53,-159.82 415,-154.28 408.43,-155.75 411.33,-151.67 411.33,-151.67 411.33,-151.67 408.43,-155.75 407.67,-149.07 405.53,-159.82 405.53,-159.82"/>
<polygon fill="#724d83" stroke="#724d83" points="289.9,-472.78 282.47,-480.84 288.32,-477.52 286.74,-482.27 286.74,-482.27 286.74,-482.27 288.32,-477.52 291.01,-483.69 289.9,-472.78 289.9,-472.78"/>
</g>
<!-- Review&#45;&gt;User -->
<g id="edge9" class="edge">
<title>Review&#45;&gt;User</title>
<path fill="none" stroke="#e9332b" d="M550.45,-160.73C551.77,-163.79 552.96,-166.89 554,-170 556.52,-177.54 558.01,-185.35 558.68,-193.27"/>
<polygon fill="#e9332b" stroke="#e9332b" points="550.43,-160.68 550.21,-149.71 548.28,-156.16 546.14,-151.64 546.14,-151.64 546.14,-151.64 548.28,-156.16 542.07,-153.57 550.43,-160.68 550.43,-160.68"/>
<polygon fill="#e9332b" stroke="#e9332b" points="558.68,-193.36 554.59,-203.53 558.88,-198.35 559.09,-203.35 559.09,-203.35 559.09,-203.35 558.88,-198.35 563.59,-203.16 558.68,-193.36 558.68,-193.36"/>
</g>
<!-- Review&#45;&gt;User -->
<g id="edge10" class="edge">
<title>Review&#45;&gt;User</title>
<path fill="none" stroke="#2c17fe" d="M564.71,-160.36C566.3,-163.53 567.73,-166.74 569,-170 571.88,-177.43 573.5,-185.1 574.11,-192.86"/>
<polygon fill="#2c17fe" stroke="#2c17fe" points="564.7,-160.35 563.82,-149.42 562.29,-155.97 559.88,-151.59 559.88,-151.59 559.88,-151.59 562.29,-155.97 555.94,-153.76 564.7,-160.35 564.7,-160.35"/>
<polygon fill="#2c17fe" stroke="#2c17fe" points="574.11,-193.12 569.84,-203.22 574.22,-198.12 574.34,-203.12 574.34,-203.12 574.34,-203.12 574.22,-198.12 578.83,-203.02 574.11,-193.12 574.11,-193.12"/>
<text text-anchor="middle" x="596.5" y="-173.8" font-family="Times,serif" font-size="14.00">reviewer</text>
</g>
<!-- Role&#45;&gt;User -->
<g id="edge11" class="edge">
<title>Role&#45;&gt;User</title>
<path fill="none" stroke="#df4ba2" d="M350.9,-496.36C366.47,-486.49 382.18,-475.53 396,-464 400.79,-460 405.56,-455.82 410.28,-451.49"/>
<polygon fill="#df4ba2" stroke="#df4ba2" points="350.76,-496.44 339.89,-497.9 346.51,-499.08 342.27,-501.73 342.27,-501.73 342.27,-501.73 346.51,-499.08 344.64,-505.55 350.76,-496.44 350.76,-496.44"/>
<polygon fill="#df4ba2" stroke="#df4ba2" points="410.36,-451.42 420.74,-447.88 414.02,-448.01 417.67,-444.59 417.67,-444.59 417.67,-444.59 414.02,-448.01 414.59,-441.3 410.36,-451.42 410.36,-451.42"/>
</g>
<!-- Resource -->
<g id="node11" class="node">
<title>Resource</title>
<ellipse fill="none" stroke="black" cx="184" cy="-324" rx="44.69" ry="18"/>
<text text-anchor="middle" x="184" y="-320.3" font-family="Times,serif" font-size="14.00">Resource</text>
</g>
<!-- Role&#45;&gt;Resource -->
<g id="edge12" class="edge">
<title>Role&#45;&gt;Resource</title>
<path fill="none" stroke="#2f3126" d="M240.63,-473.06C224.8,-431.66 205.55,-381.35 194.07,-351.32"/>
<polygon fill="#2f3126" stroke="#2f3126" points="240.64,-473.08 240.01,-484.02 242.42,-477.75 244.21,-482.42 244.21,-482.42 244.21,-482.42 242.42,-477.75 248.41,-480.81 240.64,-473.08 240.64,-473.08"/>
<polygon fill="#2f3126" stroke="#2f3126" points="194.06,-351.3 194.69,-340.35 192.27,-346.63 190.49,-341.96 190.49,-341.96 190.49,-341.96 192.27,-346.63 186.28,-343.57 194.06,-351.3 194.06,-351.3"/>
</g>
<!-- Subject&#45;&gt;Role -->
<g id="edge15" class="edge">
<title>Subject&#45;&gt;Role</title>
<path fill="none" stroke="#669d03" d="M320.71,-786.25C307.08,-775.51 294.62,-762.77 286,-748 262.57,-707.84 258.11,-655.5 259.36,-613.89"/>
<polygon fill="#669d03" stroke="#669d03" points="320.85,-786.35 326.16,-795.94 324.85,-789.34 328.85,-792.34 328.85,-792.34 328.85,-792.34 324.85,-789.34 331.55,-788.73 320.85,-786.35 320.85,-786.35"/>
<polygon fill="#669d03" stroke="#669d03" points="259.36,-613.82 264.28,-604.02 259.57,-608.83 259.78,-603.83 259.78,-603.83 259.78,-603.83 259.57,-608.83 255.28,-603.65 259.36,-613.82 259.36,-613.82"/>
</g>
<!-- Teach -->
<g id="node9" class="node">
<title>Teach</title>
<path fill="none" stroke="black" d="M307,-641.5C307,-641.5 433,-641.5 433,-641.5 439,-641.5 445,-647.5 445,-653.5 445,-653.5 445,-735.5 445,-735.5 445,-741.5 439,-747.5 433,-747.5 433,-747.5 307,-747.5 307,-747.5 301,-747.5 295,-741.5 295,-735.5 295,-735.5 295,-653.5 295,-653.5 295,-647.5 301,-641.5 307,-641.5"/>
<text text-anchor="middle" x="370" y="-732.3" font-family="Times,serif" font-size="14.00">Teach</text>
<polyline fill="none" stroke="black" points="295,-724.5 445,-724.5 "/>
<text text-anchor="start" x="303" y="-709.3" font-family="Times,serif" font-size="14.00">id :INTEGER</text>
<text text-anchor="start" x="303" y="-694.3" font-family="Times,serif" font-size="14.00">user_id :INTEGER</text>
<text text-anchor="start" x="303" y="-679.3" font-family="Times,serif" font-size="14.00">subject_id :INTEGER</text>
<text text-anchor="start" x="303" y="-664.3" font-family="Times,serif" font-size="14.00">created_at :datetime(6)</text>
<text text-anchor="start" x="303" y="-649.3" font-family="Times,serif" font-size="14.00">updated_at :datetime(6)</text>
</g>
<!-- Subject&#45;&gt;Teach -->
<g id="edge13" class="edge">
<title>Subject&#45;&gt;Teach</title>
<path fill="none" stroke="#b454fb" d="M390.2,-775.4C388.71,-769.5 387.18,-763.48 385.67,-757.5"/>
<polygon fill="#b454fb" stroke="#b454fb" points="390.23,-775.52 388.32,-786.32 391.45,-780.37 392.68,-785.21 392.68,-785.21 392.68,-785.21 391.45,-780.37 397.04,-784.11 390.23,-775.52 390.23,-775.52"/>
<polygon fill="#b454fb" stroke="#b454fb" points="385.61,-757.24 387.52,-746.44 384.38,-752.39 383.16,-747.54 383.16,-747.54 383.16,-747.54 384.38,-752.39 378.79,-748.64 385.61,-757.24 385.61,-757.24"/>
</g>
<!-- Subject&#45;&gt;User -->
<g id="edge14" class="edge">
<title>Subject&#45;&gt;User</title>
<path fill="none" stroke="#dd1a4f" d="M440.67,-776.55C445.79,-767.33 450.49,-757.61 454,-748 473.17,-695.47 492.27,-558.48 504.75,-454.51"/>
<polygon fill="#dd1a4f" stroke="#dd1a4f" points="440.66,-776.56 431.76,-782.97 438.16,-780.89 435.66,-785.22 435.66,-785.22 435.66,-785.22 438.16,-780.89 439.55,-787.47 440.66,-776.56 440.66,-776.56"/>
<polygon fill="#dd1a4f" stroke="#dd1a4f" points="504.76,-454.48 510.41,-445.09 505.35,-449.52 505.94,-444.55 505.94,-444.55 505.94,-444.55 505.35,-449.52 501.47,-444.02 504.76,-454.48 504.76,-454.48"/>
</g>
<!-- Teach&#45;&gt;Role -->
<g id="edge17" class="edge">
<title>Teach&#45;&gt;Role</title>
<path fill="none" stroke="#9e4493" d="M328.22,-632.85C323.55,-626.09 318.78,-619.16 314.06,-612.3"/>
<polygon fill="#9e4493" stroke="#9e4493" points="328.3,-632.98 330.27,-643.77 331.14,-637.09 333.98,-641.21 333.98,-641.21 333.98,-641.21 331.14,-637.09 337.68,-638.66 328.3,-632.98 328.3,-632.98"/>
<polygon fill="#9e4493" stroke="#9e4493" points="313.79,-611.91 311.82,-601.12 310.95,-607.79 308.12,-603.68 308.12,-603.68 308.12,-603.68 310.95,-607.79 304.41,-606.23 313.79,-611.91 313.79,-611.91"/>
</g>
<!-- Teach&#45;&gt;User -->
<g id="edge16" class="edge">
<title>Teach&#45;&gt;User</title>
<path fill="none" stroke="#c543c3" d="M393.16,-631.43C410.73,-584.88 435.74,-519.69 459,-463 460.24,-459.98 461.5,-456.92 462.78,-453.84"/>
<polygon fill="#c543c3" stroke="#c543c3" points="393.06,-631.72 385.32,-639.49 391.29,-636.4 389.53,-641.07 389.53,-641.07 389.53,-641.07 391.29,-636.4 393.74,-642.66 393.06,-631.72 393.06,-631.72"/>
<polygon fill="#c543c3" stroke="#c543c3" points="462.81,-453.78 470.81,-446.28 464.73,-449.16 466.66,-444.55 466.66,-444.55 466.66,-444.55 464.73,-449.16 462.51,-442.82 462.81,-453.78 462.81,-453.78"/>
</g>
<!-- User&#45;&gt;Course -->
<g id="edge18" class="edge">
<title>User&#45;&gt;Course</title>
<path fill="none" stroke="#14422f" d="M574.25,-454.48C582.34,-482.81 588,-513 588,-542 588,-832 588,-832 588,-832 588,-856 583.23,-881.63 577.21,-904.42"/>
<polygon fill="#14422f" stroke="#14422f" points="574.15,-454.13 575.61,-443.26 572.72,-449.34 571.3,-444.54 571.3,-444.54 571.3,-444.54 572.72,-449.34 566.98,-445.83 574.15,-454.13 574.15,-454.13"/>
<polygon fill="#14422f" stroke="#14422f" points="577.13,-904.7 570.13,-913.14 575.8,-909.52 574.47,-914.34 574.47,-914.34 574.47,-914.34 575.8,-909.52 578.81,-915.54 577.13,-904.7 577.13,-904.7"/>
</g>
<!-- User&#45;&gt;Course -->
<g id="edge21" class="edge">
<title>User&#45;&gt;Course</title>
<path fill="none" stroke="#2ff586" d="M612.5,-454.05C625.22,-481.77 634,-511.83 634,-542 634,-832 634,-832 634,-832 634,-858.06 623.58,-883.69 610.22,-905.85"/>
<polygon fill="#2ff586" stroke="#2ff586" points="612.37,-453.76 612.11,-442.8 610.21,-449.25 608.05,-444.74 608.05,-444.74 608.05,-444.74 610.21,-449.25 603.99,-446.68 612.37,-453.76 612.37,-453.76"/>
<polygon fill="#2ff586" stroke="#2ff586" points="610.1,-906.03 600.95,-912.08 607.43,-910.26 604.76,-914.48 604.76,-914.48 604.76,-914.48 607.43,-910.26 608.56,-916.89 610.1,-906.03 610.1,-906.03"/>
<text text-anchor="middle" x="657" y="-690.8" font-family="Times,serif" font-size="14.00">teachers</text>
</g>
<!-- User&#45;&gt;Message -->
<g id="edge24" class="edge">
<title>User&#45;&gt;Message</title>
<path fill="none" stroke="#d0f553" d="M407.92,-265.81C376.14,-244.44 344.37,-217.36 323,-185 315.43,-173.54 310.3,-160.04 306.83,-146.54"/>
<polygon fill="#d0f553" stroke="#d0f553" points="408.07,-265.91 413.96,-275.16 412.25,-268.65 416.43,-271.4 416.43,-271.4 416.43,-271.4 412.25,-268.65 418.9,-267.63 408.07,-265.91 408.07,-265.91"/>
<polygon fill="#d0f553" stroke="#d0f553" points="306.82,-146.49 308.98,-135.74 305.71,-141.61 304.59,-136.74 304.59,-136.74 304.59,-136.74 305.71,-141.61 300.2,-137.74 306.82,-146.49 306.82,-146.49"/>
<text text-anchor="middle" x="350.5" y="-173.8" font-family="Times,serif" font-size="14.00">messaged</text>
</g>
<!-- User&#45;&gt;Review -->
<g id="edge23" class="edge">
<title>User&#45;&gt;Review</title>
<path fill="none" stroke="#0a1bbc" d="M499.17,-193.24C498.77,-190.47 498.38,-187.72 498,-185 496.93,-177.43 495.85,-169.56 494.79,-161.67"/>
<polygon fill="#0a1bbc" stroke="#0a1bbc" points="499.2,-193.45 496.17,-203.99 499.91,-198.4 500.63,-203.35 500.63,-203.35 500.63,-203.35 499.91,-198.4 505.08,-202.7 499.2,-193.45 499.2,-193.45"/>
<polygon fill="#0a1bbc" stroke="#0a1bbc" points="494.78,-161.6 497.92,-151.09 494.12,-156.64 493.46,-151.68 493.46,-151.68 493.46,-151.68 494.12,-156.64 489,-152.28 494.78,-161.6 494.78,-161.6"/>
<text text-anchor="middle" x="524" y="-173.8" font-family="Times,serif" font-size="14.00">reviewed</text>
</g>
<!-- User&#45;&gt;User -->
<g id="edge22" class="edge">
<title>User&#45;&gt;User</title>
<path fill="none" stroke="#a1506a" d="M630.71,-340.65C636.24,-336.5 639.5,-330.95 639.5,-324 639.5,-317.05 636.24,-311.5 630.71,-307.35"/>
<polygon fill="#a1506a" stroke="#a1506a" points="630.64,-340.68 619.7,-341.48 626.24,-343.06 621.84,-345.44 621.84,-345.44 621.84,-345.44 626.24,-343.06 623.98,-349.4 630.64,-340.68 630.64,-340.68"/>
<polygon fill="#a1506a" stroke="#a1506a" points="630.64,-307.32 623.98,-298.6 626.24,-304.94 621.84,-302.56 621.84,-302.56 621.84,-302.56 626.24,-304.94 619.7,-306.52 630.64,-307.32 630.64,-307.32"/>
<text text-anchor="middle" x="662.5" y="-320.3" font-family="Times,serif" font-size="14.00">students</text>
</g>
<!-- ActiveStorage::Attachment -->
<g id="node12" class="node">
<title>ActiveStorage::Attachment</title>
<ellipse fill="none" stroke="black" cx="689" cy="-76" rx="110.48" ry="18"/>
<text text-anchor="middle" x="689" y="-72.3" font-family="Times,serif" font-size="14.00">ActiveStorage::Attachment</text>
</g>
<!-- User&#45;&gt;ActiveStorage::Attachment -->
<g id="edge19" class="edge">
<title>User&#45;&gt;ActiveStorage::Attachment</title>
<path fill="none" stroke="#c31959" d="M618.19,-194.92C620.5,-191.59 622.78,-188.28 625,-185 643.38,-157.84 662.27,-125.28 674.72,-103.07"/>
<polygon fill="#c31959" stroke="#c31959" points="618.12,-195.02 608.69,-200.62 615.24,-199.11 612.37,-203.21 612.37,-203.21 612.37,-203.21 615.24,-199.11 616.05,-205.79 618.12,-195.02 618.12,-195.02"/>
<polygon fill="#c31959" stroke="#c31959" points="674.78,-102.96 683.57,-96.41 677.21,-98.59 679.64,-94.23 679.64,-94.23 679.64,-94.23 677.21,-98.59 675.7,-92.04 674.78,-102.96 674.78,-102.96"/>
<text text-anchor="middle" x="685.5" y="-173.8" font-family="Times,serif" font-size="14.00">avatar_attachment</text>
</g>
<!-- ActiveStorage::Blob -->
<g id="node13" class="node">
<title>ActiveStorage::Blob</title>
<ellipse fill="none" stroke="black" cx="903" cy="-76" rx="85.59" ry="18"/>
<text text-anchor="middle" x="903" y="-72.3" font-family="Times,serif" font-size="14.00">ActiveStorage::Blob</text>
</g>
<!-- User&#45;&gt;ActiveStorage::Blob -->
<g id="edge20" class="edge">
<title>User&#45;&gt;ActiveStorage::Blob</title>
<path fill="none" stroke="#d1e123" d="M630.71,-261.56C685.25,-230.4 751.19,-190.97 808,-152 831.7,-135.74 857.19,-115.45 875.79,-100.07"/>
<polygon fill="#d1e123" stroke="#d1e123" points="630.4,-261.74 619.48,-262.78 626.06,-264.21 621.71,-266.69 621.71,-266.69 621.71,-266.69 626.06,-264.21 623.94,-270.6 630.4,-261.74 630.4,-261.74"/>
<polygon fill="#d1e123" stroke="#d1e123" points="875.89,-100 886.45,-97.06 879.73,-96.8 883.57,-93.6 883.57,-93.6 883.57,-93.6 879.73,-96.8 880.69,-90.14 875.89,-100 875.89,-100"/>
<text text-anchor="middle" x="810.5" y="-173.8" font-family="Times,serif" font-size="14.00">avatar_blob</text>
</g>
</g>
</svg>
